<?xml version="1.0" encoding="UTF-8" standalone="no"?><!-- Generator: Gravit.io --><svg xmlns="http://www.w3.org/2000/svg" xmlns:xlink="http://www.w3.org/1999/xlink" style="isolation:isolate" viewBox="0 0 3000 300" width="3000pt" height="300pt"><defs><clipPath id="_clipPath_zKNDGqECDyPQNPqbgP7qQyxp4x6jrytC"><rect width="3000" height="300"/></clipPath></defs><g clip-path="url(#_clipPath_zKNDGqECDyPQNPqbgP7qQyxp4x6jrytC)"><rect x="0" y="0" width="3000" height="300" transform="matrix(1,0,0,1,0,0)" fill="rgb(13,16,23)"/><g><path d=" M 2641.421 37.407 Q 2641.494 37.843 2656.825 73.277 Q 2657.136 73.836 2657.396 74.062 C 2657.655 74.287 2657.757 74.307 2657.966 74.418 C 2658.175 74.53 2658.5 74.711 2658.822 74.775 C 2659.143 74.839 2659.286 74.847 2659.606 74.775 C 2659.927 74.703 2660.276 74.58 2660.533 74.418 C 2660.79 74.257 2661.125 74.064 2661.389 73.752 C 2661.653 73.439 2661.859 73.131 2661.96 72.778 C 2662.06 72.425 2662.049 72.621 2662.067 72.004 Q 2662.084 71.388 2661.96 70.995 L 2646.556 35.104 Q 2645.967 34.218 2645.486 33.913 Q 2645.005 33.607 2644.345 33.485 Q 2643.834 33.437 2643.561 33.485 C 2643.288 33.533 2642.847 33.745 2642.581 33.913 C 2642.315 34.08 2642.179 34.264 2641.992 34.483 C 2641.804 34.703 2641.561 35.003 2641.421 35.339 C 2641.282 35.675 2641.248 35.865 2641.225 36.163 C 2641.202 36.462 2641.349 36.971 2641.421 37.407 Z " fill="rgb(247,145,35)" vector-effect="non-scaling-stroke" stroke-width="1" stroke="rgb(247,145,35)" stroke-linejoin="miter" stroke-linecap="square" stroke-miterlimit="3"/><path d=" M 2602.812 64.64 Q 2603.044 65.017 2630.603 92.055 Q 2631.102 92.456 2631.427 92.567 C 2631.753 92.678 2631.855 92.658 2632.09 92.682 C 2632.326 92.706 2632.695 92.751 2633.017 92.69 C 2633.339 92.628 2633.474 92.581 2633.744 92.394 C 2634.013 92.206 2634.291 91.961 2634.468 91.714 C 2634.645 91.468 2634.883 91.163 2635.009 90.774 C 2635.136 90.385 2635.21 90.022 2635.171 89.657 C 2635.131 89.292 2635.194 89.478 2634.978 88.9 Q 2634.762 88.322 2634.498 88.006 L 2606.7 60.571 Q 2605.82 59.972 2605.26 59.871 Q 2604.699 59.769 2604.042 59.905 Q 2603.55 60.053 2603.315 60.2 C 2603.08 60.348 2602.752 60.711 2602.569 60.966 C 2602.386 61.221 2602.329 61.443 2602.238 61.716 C 2602.147 61.99 2602.035 62.361 2602.033 62.724 C 2602.03 63.088 2602.071 63.277 2602.162 63.562 C 2602.253 63.847 2602.581 64.263 2602.812 64.64 Z " fill="rgb(247,145,35)" vector-effect="non-scaling-stroke" stroke-width="1" stroke="rgb(247,145,35)" stroke-linejoin="miter" stroke-linecap="square" stroke-miterlimit="3"/><path d=" M 2576.79 106.365 Q 2577.147 106.626 2612.901 121.196 Q 2613.514 121.377 2613.857 121.357 C 2614.201 121.336 2614.288 121.279 2614.515 121.212 C 2614.741 121.145 2615.101 121.047 2615.375 120.867 C 2615.65 120.688 2615.757 120.594 2615.935 120.318 C 2616.114 120.042 2616.277 119.71 2616.348 119.415 C 2616.418 119.119 2616.522 118.747 2616.492 118.339 C 2616.462 117.932 2616.393 117.568 2616.218 117.245 C 2616.043 116.922 2616.172 117.07 2615.753 116.618 Q 2615.334 116.165 2614.97 115.972 L 2578.845 101.126 Q 2577.804 100.905 2577.247 101.024 Q 2576.689 101.142 2576.132 101.517 Q 2575.733 101.841 2575.572 102.066 C 2575.411 102.291 2575.245 102.752 2575.172 103.057 C 2575.099 103.363 2575.131 103.589 2575.151 103.877 C 2575.17 104.165 2575.207 104.55 2575.342 104.888 C 2575.478 105.225 2575.587 105.385 2575.78 105.614 C 2575.972 105.843 2576.433 106.103 2576.79 106.365 Z " fill="rgb(247,145,35)" vector-effect="non-scaling-stroke" stroke-width="1" stroke="rgb(247,145,35)" stroke-linejoin="miter" stroke-linecap="square" stroke-miterlimit="3"/><path d=" M 2568.809 152.41 Q 2569.238 152.515 2607.846 152.292 Q 2608.483 152.224 2608.792 152.074 C 2609.101 151.924 2609.159 151.837 2609.343 151.689 C 2609.527 151.54 2609.821 151.312 2610.006 151.041 C 2610.192 150.771 2610.255 150.642 2610.314 150.319 C 2610.373 149.996 2610.397 149.627 2610.349 149.327 C 2610.301 149.027 2610.255 148.643 2610.071 148.278 C 2609.887 147.913 2609.684 147.603 2609.399 147.372 C 2609.113 147.141 2609.289 147.228 2608.729 146.97 Q 2608.168 146.712 2607.758 146.673 L 2568.702 146.784 Q 2567.656 146.978 2567.186 147.301 Q 2566.717 147.624 2566.345 148.183 Q 2566.101 148.635 2566.038 148.905 C 2565.975 149.175 2565.998 149.664 2566.048 149.974 C 2566.098 150.284 2566.214 150.481 2566.342 150.74 C 2566.471 150.998 2566.651 151.34 2566.906 151.6 C 2567.16 151.86 2567.322 151.965 2567.588 152.103 C 2567.853 152.241 2568.379 152.306 2568.809 152.41 Z " fill="rgb(247,145,35)" vector-effect="non-scaling-stroke" stroke-width="1" stroke="rgb(247,145,35)" stroke-linejoin="miter" stroke-linecap="square" stroke-miterlimit="3"/><path d=" M 2580.05 199.702 Q 2580.487 199.635 2616.097 184.718 Q 2616.66 184.414 2616.888 184.157 C 2617.117 183.9 2617.138 183.798 2617.251 183.591 C 2617.365 183.383 2617.55 183.06 2617.618 182.739 C 2617.686 182.418 2617.695 182.276 2617.627 181.955 C 2617.559 181.633 2617.44 181.282 2617.281 181.023 C 2617.123 180.764 2616.934 180.427 2616.625 180.16 C 2616.315 179.893 2616.01 179.683 2615.658 179.578 C 2615.306 179.473 2615.502 179.487 2614.886 179.462 Q 2614.269 179.437 2613.875 179.557 L 2577.807 194.541 Q 2576.914 195.12 2576.603 195.597 Q 2576.292 196.074 2576.162 196.733 Q 2576.108 197.244 2576.153 197.517 C 2576.197 197.791 2576.405 198.234 2576.569 198.502 C 2576.733 198.77 2576.915 198.908 2577.133 199.098 C 2577.35 199.288 2577.647 199.535 2577.982 199.678 C 2578.316 199.821 2578.506 199.857 2578.804 199.884 C 2579.102 199.91 2579.612 199.769 2580.05 199.702 Z " fill="rgb(247,145,35)" vector-effect="non-scaling-stroke" stroke-width="1" stroke="rgb(247,145,35)" stroke-linejoin="miter" stroke-linecap="square" stroke-miterlimit="3"/><path d=" M 2606.813 238.639 Q 2607.194 238.414 2634.672 211.292 Q 2635.081 210.8 2635.197 210.476 C 2635.313 210.153 2635.295 210.05 2635.323 209.816 C 2635.351 209.581 2635.402 209.212 2635.345 208.889 C 2635.289 208.566 2635.244 208.43 2635.061 208.158 C 2634.878 207.885 2634.637 207.604 2634.393 207.423 C 2634.149 207.241 2633.849 206.999 2633.462 206.866 C 2633.075 206.733 2632.713 206.653 2632.348 206.687 C 2631.982 206.721 2632.169 206.661 2631.588 206.867 Q 2631.006 207.074 2630.686 207.332 L 2602.808 234.687 Q 2602.195 235.556 2602.084 236.115 Q 2601.974 236.674 2602.099 237.334 Q 2602.239 237.828 2602.383 238.065 C 2602.526 238.302 2602.884 238.636 2603.136 238.823 C 2603.389 239.011 2603.609 239.071 2603.881 239.166 C 2604.154 239.261 2604.522 239.38 2604.886 239.388 C 2605.249 239.396 2605.439 239.359 2605.725 239.272 C 2606.012 239.186 2606.433 238.864 2606.813 238.639 Z " fill="rgb(247,145,35)" vector-effect="non-scaling-stroke" stroke-width="1" stroke="rgb(247,145,35)" stroke-linejoin="miter" stroke-linecap="square" stroke-miterlimit="3"/><path d=" M 2648.91 264.733 Q 2649.167 264.373 2663.413 228.489 Q 2663.589 227.874 2663.565 227.531 C 2663.541 227.188 2663.483 227.102 2663.414 226.875 C 2663.345 226.649 2663.244 226.291 2663.062 226.018 C 2662.88 225.745 2662.785 225.638 2662.508 225.462 C 2662.23 225.287 2661.896 225.126 2661.6 225.058 C 2661.304 224.99 2660.931 224.89 2660.524 224.924 C 2660.116 224.958 2659.753 225.03 2659.432 225.208 C 2659.111 225.386 2659.258 225.255 2658.809 225.679 Q 2658.36 226.102 2658.17 226.467 L 2643.653 262.726 Q 2643.441 263.768 2643.565 264.325 Q 2643.688 264.881 2644.068 265.434 Q 2644.396 265.83 2644.622 265.99 C 2644.849 266.149 2645.311 266.311 2645.617 266.381 C 2645.924 266.451 2646.15 266.417 2646.437 266.395 C 2646.725 266.372 2647.11 266.332 2647.446 266.194 C 2647.782 266.055 2647.941 265.944 2648.168 265.75 C 2648.395 265.556 2648.652 265.092 2648.91 264.733 Z " fill="rgb(247,145,35)" vector-effect="non-scaling-stroke" stroke-width="1" stroke="rgb(247,145,35)" stroke-linejoin="miter" stroke-linecap="square" stroke-miterlimit="3"/><path d=" M 2742.753 261.488 Q 2742.681 261.052 2727.349 225.618 Q 2727.038 225.059 2726.779 224.833 C 2726.519 224.608 2726.417 224.588 2726.208 224.477 C 2725.999 224.366 2725.674 224.185 2725.352 224.12 C 2725.031 224.056 2724.888 224.048 2724.568 224.12 C 2724.248 224.192 2723.898 224.315 2723.641 224.477 C 2723.384 224.638 2723.049 224.831 2722.785 225.144 C 2722.521 225.456 2722.316 225.764 2722.215 226.117 C 2722.114 226.47 2722.126 226.274 2722.108 226.891 Q 2722.09 227.508 2722.215 227.9 L 2737.618 263.791 Q 2738.207 264.677 2738.688 264.983 Q 2739.169 265.288 2739.829 265.411 Q 2740.341 265.458 2740.613 265.411 C 2740.886 265.363 2741.327 265.15 2741.593 264.983 C 2741.859 264.815 2741.995 264.632 2742.182 264.412 C 2742.37 264.193 2742.613 263.892 2742.753 263.556 C 2742.892 263.221 2742.926 263.03 2742.949 262.732 C 2742.972 262.434 2742.825 261.925 2742.753 261.488 Z " fill="rgb(247,145,35)" vector-effect="non-scaling-stroke" stroke-width="1" stroke="rgb(247,145,35)" stroke-linejoin="miter" stroke-linecap="square" stroke-miterlimit="3"/><path d=" M 2781.362 234.256 Q 2781.131 233.879 2753.571 206.84 Q 2753.072 206.439 2752.747 206.328 C 2752.422 206.218 2752.319 206.238 2752.084 206.213 C 2751.849 206.189 2751.479 206.144 2751.157 206.206 C 2750.835 206.267 2750.7 206.314 2750.43 206.501 C 2750.161 206.689 2749.884 206.935 2749.706 207.181 C 2749.529 207.428 2749.292 207.732 2749.165 208.121 C 2749.039 208.51 2748.964 208.873 2749.004 209.238 C 2749.043 209.603 2748.98 209.417 2749.196 209.995 Q 2749.412 210.573 2749.676 210.889 L 2777.474 238.324 Q 2778.354 238.923 2778.915 239.025 Q 2779.475 239.126 2780.133 238.991 Q 2780.625 238.842 2780.859 238.695 C 2781.094 238.548 2781.422 238.185 2781.605 237.929 C 2781.789 237.674 2781.845 237.453 2781.936 237.179 C 2782.027 236.905 2782.139 236.535 2782.142 236.171 C 2782.144 235.807 2782.104 235.618 2782.012 235.333 C 2781.921 235.049 2781.593 234.633 2781.362 234.256 Z " fill="rgb(247,145,35)" vector-effect="non-scaling-stroke" stroke-width="1" stroke="rgb(247,145,35)" stroke-linejoin="miter" stroke-linecap="square" stroke-miterlimit="3"/><path d=" M 2807.384 192.531 Q 2807.027 192.27 2771.273 177.699 Q 2770.66 177.518 2770.317 177.539 C 2769.974 177.559 2769.887 177.617 2769.66 177.683 C 2769.433 177.75 2769.074 177.849 2768.799 178.028 C 2768.524 178.207 2768.417 178.301 2768.239 178.577 C 2768.061 178.853 2767.897 179.185 2767.827 179.481 C 2767.756 179.776 2767.652 180.148 2767.682 180.556 C 2767.713 180.964 2767.781 181.328 2767.956 181.65 C 2768.131 181.973 2768.002 181.825 2768.422 182.278 Q 2768.841 182.731 2769.204 182.923 L 2805.329 197.769 Q 2806.37 197.99 2806.928 197.872 Q 2807.485 197.753 2808.042 197.378 Q 2808.441 197.055 2808.602 196.829 C 2808.763 196.604 2808.929 196.144 2809.002 195.838 C 2809.075 195.532 2809.043 195.306 2809.024 195.018 C 2809.004 194.73 2808.967 194.345 2808.832 194.008 C 2808.696 193.67 2808.587 193.51 2808.395 193.281 C 2808.202 193.052 2807.741 192.792 2807.384 192.531 Z " fill="rgb(247,145,35)" vector-effect="non-scaling-stroke" stroke-width="1" stroke="rgb(247,145,35)" stroke-linejoin="miter" stroke-linecap="square" stroke-miterlimit="3"/><path d=" M 2815.366 146.485 Q 2814.936 146.381 2776.328 146.604 Q 2775.692 146.671 2775.383 146.821 C 2775.074 146.972 2775.015 147.058 2774.831 147.206 C 2774.647 147.355 2774.353 147.584 2774.168 147.854 C 2773.983 148.125 2773.92 148.253 2773.86 148.576 C 2773.801 148.899 2773.777 149.269 2773.825 149.569 C 2773.873 149.868 2773.919 150.252 2774.103 150.617 C 2774.288 150.982 2774.49 151.292 2774.776 151.523 C 2775.061 151.755 2774.885 151.667 2775.446 151.925 Q 2776.006 152.183 2776.416 152.222 L 2815.472 152.111 Q 2816.519 151.917 2816.988 151.594 Q 2817.458 151.271 2817.829 150.712 Q 2818.073 150.26 2818.136 149.99 C 2818.199 149.72 2818.176 149.231 2818.126 148.921 C 2818.077 148.611 2817.961 148.414 2817.832 148.156 C 2817.704 147.897 2817.523 147.555 2817.268 147.295 C 2817.014 147.036 2816.852 146.93 2816.587 146.792 C 2816.321 146.654 2815.795 146.59 2815.366 146.485 Z " fill="rgb(247,145,35)" vector-effect="non-scaling-stroke" stroke-width="1" stroke="rgb(247,145,35)" stroke-linejoin="miter" stroke-linecap="square" stroke-miterlimit="3"/><path d=" M 2804.125 99.193 Q 2803.688 99.26 2768.077 114.177 Q 2767.514 114.482 2767.286 114.738 C 2767.058 114.995 2767.037 115.097 2766.923 115.305 C 2766.809 115.512 2766.624 115.836 2766.556 116.156 C 2766.488 116.477 2766.479 116.619 2766.547 116.941 C 2766.615 117.262 2766.734 117.613 2766.893 117.872 C 2767.051 118.131 2767.24 118.468 2767.55 118.735 C 2767.859 119.003 2768.164 119.212 2768.516 119.317 C 2768.868 119.422 2768.672 119.408 2769.289 119.433 Q 2769.905 119.458 2770.299 119.338 L 2806.367 104.354 Q 2807.26 103.776 2807.571 103.298 Q 2807.882 102.821 2808.013 102.162 Q 2808.066 101.651 2808.022 101.378 C 2807.977 101.105 2807.769 100.661 2807.605 100.393 C 2807.441 100.126 2807.259 99.988 2807.042 99.798 C 2806.824 99.608 2806.527 99.36 2806.193 99.217 C 2805.858 99.074 2805.668 99.038 2805.37 99.011 C 2805.073 98.985 2804.562 99.126 2804.125 99.193 Z " fill="rgb(247,145,35)" vector-effect="non-scaling-stroke" stroke-width="1" stroke="rgb(247,145,35)" stroke-linejoin="miter" stroke-linecap="square" stroke-miterlimit="3"/><path d=" M 2777.361 60.256 Q 2776.98 60.482 2749.502 87.603 Q 2749.094 88.095 2748.977 88.419 C 2748.861 88.742 2748.88 88.845 2748.852 89.08 C 2748.823 89.315 2748.773 89.684 2748.829 90.007 C 2748.886 90.329 2748.93 90.465 2749.113 90.738 C 2749.296 91.01 2749.537 91.292 2749.781 91.473 C 2750.025 91.654 2750.326 91.896 2750.713 92.029 C 2751.099 92.162 2751.461 92.242 2751.826 92.208 C 2752.192 92.175 2752.005 92.235 2752.586 92.028 Q 2753.168 91.821 2753.488 91.563 L 2781.366 64.209 Q 2781.979 63.339 2782.09 62.78 Q 2782.2 62.221 2782.076 61.561 Q 2781.935 61.067 2781.792 60.83 C 2781.648 60.593 2781.29 60.259 2781.038 60.072 C 2780.786 59.885 2780.565 59.825 2780.293 59.729 C 2780.02 59.634 2779.652 59.516 2779.289 59.507 C 2778.925 59.499 2778.735 59.537 2778.449 59.623 C 2778.163 59.71 2777.741 60.031 2777.361 60.256 Z " fill="rgb(247,145,35)" vector-effect="non-scaling-stroke" stroke-width="1" stroke="rgb(247,145,35)" stroke-linejoin="miter" stroke-linecap="square" stroke-miterlimit="3"/><path d=" M 2735.265 34.163 Q 2735.007 34.522 2720.761 70.407 Q 2720.586 71.022 2720.609 71.364 C 2720.633 71.707 2720.691 71.794 2720.76 72.02 C 2720.829 72.247 2720.931 72.605 2721.112 72.878 C 2721.294 73.151 2721.389 73.257 2721.667 73.433 C 2721.944 73.609 2722.278 73.769 2722.574 73.837 C 2722.87 73.905 2723.243 74.006 2723.65 73.972 C 2724.058 73.937 2724.421 73.866 2724.742 73.688 C 2725.063 73.51 2724.916 73.64 2725.365 73.217 Q 2725.815 72.793 2726.004 72.428 L 2740.522 36.17 Q 2740.733 35.127 2740.609 34.571 Q 2740.486 34.014 2740.106 33.461 Q 2739.779 33.065 2739.552 32.906 C 2739.325 32.746 2738.863 32.585 2738.557 32.515 C 2738.251 32.445 2738.025 32.478 2737.737 32.501 C 2737.449 32.523 2737.064 32.563 2736.728 32.702 C 2736.392 32.84 2736.233 32.951 2736.006 33.145 C 2735.779 33.34 2735.522 33.803 2735.265 34.163 Z " fill="rgb(247,145,35)" vector-effect="non-scaling-stroke" stroke-width="1" stroke="rgb(247,145,35)" stroke-linejoin="miter" stroke-linecap="square" stroke-miterlimit="3"/><path d=" M 2689.705 27.79 Q 2689.598 28.219 2689.59 66.828 Q 2689.654 67.465 2689.802 67.775 C 2689.951 68.085 2690.037 68.143 2690.184 68.328 C 2690.332 68.514 2690.558 68.809 2690.828 68.996 C 2691.097 69.182 2691.225 69.246 2691.548 69.307 C 2691.87 69.368 2692.24 69.394 2692.54 69.348 C 2692.84 69.302 2693.224 69.258 2693.59 69.076 C 2693.957 68.894 2694.268 68.694 2694.501 68.41 C 2694.734 68.126 2694.645 68.301 2694.906 67.742 Q 2695.168 67.183 2695.209 66.774 L 2695.332 27.717 Q 2695.144 26.67 2694.824 26.198 Q 2694.503 25.727 2693.946 25.352 Q 2693.496 25.105 2693.227 25.041 C 2692.957 24.976 2692.468 24.996 2692.158 25.044 C 2691.847 25.092 2691.649 25.207 2691.39 25.334 C 2691.131 25.461 2690.788 25.64 2690.527 25.892 C 2690.265 26.145 2690.159 26.307 2690.019 26.571 C 2689.879 26.836 2689.812 27.361 2689.705 27.79 Z " fill="rgb(247,145,35)" vector-effect="non-scaling-stroke" stroke-width="1" stroke="rgb(247,145,35)" stroke-linejoin="miter" stroke-linecap="square" stroke-miterlimit="3"/><path d=" M 2689.705 233.418 Q 2689.598 233.848 2689.59 272.456 Q 2689.654 273.093 2689.802 273.403 C 2689.951 273.713 2690.037 273.772 2690.184 273.957 C 2690.332 274.142 2690.558 274.437 2690.828 274.624 C 2691.097 274.811 2691.225 274.874 2691.548 274.935 C 2691.87 274.997 2692.24 275.023 2692.54 274.977 C 2692.84 274.93 2693.224 274.887 2693.59 274.705 C 2693.957 274.523 2694.268 274.322 2694.501 274.038 C 2694.734 273.754 2694.645 273.929 2694.906 273.37 Q 2695.168 272.811 2695.209 272.402 L 2695.332 233.345 Q 2695.144 232.298 2694.824 231.827 Q 2694.503 231.355 2693.946 230.981 Q 2693.496 230.733 2693.227 230.669 C 2692.957 230.605 2692.468 230.625 2692.158 230.672 C 2691.847 230.72 2691.649 230.835 2691.39 230.962 C 2691.131 231.089 2690.788 231.268 2690.527 231.521 C 2690.265 231.773 2690.159 231.935 2690.019 232.199 C 2689.879 232.464 2689.812 232.989 2689.705 233.418 Z " fill="rgb(247,145,35)" vector-effect="non-scaling-stroke" stroke-width="1" stroke="rgb(247,145,35)" stroke-linejoin="miter" stroke-linecap="square" stroke-miterlimit="3"/></g><path d=" M 2752.789 155.967 C 2752.672 155.59 2752.605 155.164 2752.57 154.547 C 2752.534 153.931 2752.577 153.111 2752.57 152.265 C 2752.563 151.42 2752.638 150.783 2752.57 149.983 C 2752.502 149.183 2752.49 148.597 2752.372 147.844 C 2752.254 147.091 2752.22 146.436 2752.131 145.669 C 2752.043 144.901 2751.863 144.304 2751.714 143.565 C 2751.565 142.826 2751.467 142.315 2751.322 141.64 C 2751.176 140.965 2751.064 140.311 2750.858 139.607 C 2750.653 138.904 2750.554 138.434 2750.346 137.789 C 2750.138 137.144 2749.864 136.526 2749.646 135.828 C 2749.428 135.129 2749.388 134.833 2749.182 134.257 C 2748.976 133.681 2748.622 132.933 2748.469 132.547 C 2748.316 132.162 2748.071 131.505 2747.733 130.576 C 2747.709 130.511 2747.702 130.49 2747.685 130.444 C 2747.668 130.397 2747.168 129.131 2746.829 128.447 Q 2746.49 127.763 2745.688 126.45 L 2744.761 124.774 L 2744.012 123.419 L 2742.764 121.423 L 2741.837 120.032 Q 2741.094 118.908 2740.661 118.32 Q 2740.227 117.733 2739.662 117.037 Q 2738.819 116.008 2738.343 115.468 Q 2737.867 114.927 2737.016 114.027 L 2735.662 112.637 L 2734.235 111.21 Q 2733.331 110.287 2732.809 109.82 C 2732.287 109.353 2731.882 109.059 2731.383 108.643 C 2730.883 108.228 2730.367 107.785 2729.814 107.324 Q 2729.261 106.863 2728.174 105.969 Q 2726.968 105.038 2726.284 104.578 C 2725.599 104.118 2724.881 103.709 2724.109 103.259 C 2723.337 102.809 2722.793 102.515 2722.076 102.118 C 2721.36 101.721 2720.902 101.461 2720.258 101.12 C 2719.614 100.778 2718.851 100.396 2718.083 100.014 C 2717.315 99.633 2717.051 99.486 2716.478 99.23 C 2715.905 98.974 2715.128 98.628 2714.41 98.319 C 2713.692 98.011 2713.082 97.804 2712.423 97.554 C 2711.764 97.304 2711.141 97.106 2710.361 96.912 Q 2709.581 96.718 2708.034 96.438 Q 2706.991 96.227 2706.423 96.128 C 2705.855 96.028 2704.478 95.866 2703.428 95.7 Q 2702.378 95.534 2701.717 95.415 Q 2700.747 95.243 2700.219 95.165 C 2699.691 95.087 2698.902 94.988 2698.187 94.915 Q 2697.471 94.843 2686.612 95.165 Q 2685.13 95.238 2684.33 95.315 C 2683.531 95.392 2683.332 95.34 2682.797 95.415 C 2682.262 95.489 2681.38 95.579 2680.722 95.7 C 2680.063 95.82 2679.383 95.967 2678.661 96.128 C 2677.939 96.288 2677.293 96.436 2676.557 96.627 C 2675.822 96.818 2675.302 96.957 2674.632 97.169 C 2673.962 97.381 2673.567 97.536 2672.992 97.739 C 2672.417 97.943 2671.776 98.141 2671.138 98.41 C 2670.499 98.678 2670.034 98.955 2669.426 99.23 C 2668.818 99.504 2668.219 99.727 2667.572 100.014 C 2666.925 100.301 2666.402 100.524 2665.789 100.842 C 2665.176 101.16 2664.694 101.453 2664.113 101.804 C 2663.532 102.156 2663.168 102.28 2662.674 102.551 C 2662.18 102.822 2661.635 103.141 2661.047 103.445 C 2660.459 103.748 2659.801 104.185 2659.121 104.578 C 2658.442 104.971 2658.044 105.161 2657.481 105.513 C 2656.918 105.864 2656.497 106.191 2655.891 106.703 C 2655.284 107.215 2654.971 107.439 2654.45 107.854 C 2653.929 108.27 2653.364 108.702 2652.942 109.058 C 2652.521 109.414 2651.969 109.871 2651.455 110.326 C 2650.941 110.782 2650.582 111.154 2650.136 111.539 C 2649.69 111.923 2649.189 112.428 2648.695 112.929 C 2648.202 113.43 2647.943 113.749 2647.519 114.177 C 2647.094 114.605 2646.735 115.119 2646.304 115.616 Q 2645.872 116.114 2644.844 117.422 Q 2644.161 118.401 2643.775 118.919 C 2643.389 119.438 2643.033 119.826 2642.669 120.346 C 2642.306 120.866 2641.958 121.468 2641.57 122.129 Q 2641.183 122.789 2640.601 123.769 L 2639.888 124.981 L 2639.032 126.45 Q 2638.532 127.465 2638.245 128.047 C 2637.958 128.63 2637.668 129.271 2637.357 129.902 C 2637.045 130.532 2636.849 131.092 2636.565 131.698 C 2636.281 132.304 2635.956 132.922 2635.681 133.61 C 2635.406 134.297 2635.292 134.745 2635.075 135.357 C 2634.857 135.969 2634.626 136.556 2634.397 137.211 C 2634.168 137.866 2634.01 138.261 2633.848 138.844 C 2633.686 139.428 2633.607 139.915 2633.475 140.52 Q 2633.344 141.125 2633.099 142.41 L 2632.778 143.979 L 2632.457 146.225 L 2632.208 149.344 Q 2632.034 152.226 2632.037 154.358 C 2632.039 156.49 2632.276 158.217 2632.457 160.303 C 2632.638 162.389 2632.597 162.485 2632.778 163.654 Q 2632.96 164.824 2633.343 166.4 L 2634.065 169.003 L 2634.923 171.32 L 2635.681 173.353 L 2636.709 175.599 L 2637.706 177.738 L 2638.704 179.307 L 2639.653 180.947 L 2640.758 182.623 L 2641.935 184.192 L 2643.147 185.797 L 2644.502 187.473 L 2645.75 188.721 L 2647.212 190.289 L 2648.531 191.573 L 2650.136 192.892 L 2651.455 193.998 Q 2652.446 194.82 2653.024 195.21 Q 2653.602 195.6 2654.878 196.28 L 2656.554 197.242 L 2658.244 198.141 L 2659.813 198.997 Q 2660.992 199.67 2661.667 199.96 C 2662.343 200.249 2662.776 200.358 2663.379 200.566 C 2663.982 200.773 2664.702 200.989 2665.411 201.243 C 2666.12 201.497 2666.554 201.719 2667.194 201.921 C 2667.834 202.122 2668.514 202.239 2669.226 202.42 Q 2669.939 202.601 2671.138 202.919 L 2672.992 203.418 Q 2674.267 203.703 2674.967 203.81 C 2675.667 203.918 2676.213 203.976 2676.892 204.024 Q 2677.572 204.073 2680.387 204.024 L 2682.797 204.024 L 2684.987 204.024 Q 2686.516 203.917 2687.34 203.81 Q 2688.163 203.703 2689.658 203.418 Q 2691.026 203.26 2691.761 203.133 Q 2692.496 203.006 2694.222 202.598 Q 2695.717 202.225 2696.562 201.921 C 2697.406 201.617 2698.052 201.278 2698.814 200.979 C 2699.577 200.68 2700.146 200.442 2700.774 200.188 C 2701.402 199.934 2701.893 199.748 2702.487 199.482 Q 2703.081 199.215 2704.305 198.59 Q 2705.573 197.977 2706.231 197.592 Q 2706.888 197.207 2708.206 196.28 Q 2709.324 195.546 2709.939 195.113 Q 2710.554 194.681 2711.436 193.998 L 2712.898 192.892 L 2714.41 191.573 L 2715.822 190.289 L 2716.999 189.106 Q 2717.954 188.257 2718.425 187.751 Q 2718.896 187.244 2719.602 186.324 L 2720.707 184.863 Q 2721.405 184.074 2721.741 183.615 C 2722.078 183.155 2722.219 182.869 2722.49 182.474 C 2722.761 182.078 2723.146 181.509 2723.498 180.947 C 2723.85 180.386 2724.203 179.763 2724.558 179.136 Q 2724.914 178.509 2725.521 177.532 L 2726.484 175.749 L 2727.161 174.216 L 2727.838 172.718 L 2728.552 171.042 L 2729.265 169.003 L 2729.814 167.369 Q 2730.196 166.132 2730.334 165.444 C 2730.473 164.756 2730.634 164.283 2730.723 163.654 C 2730.812 163.025 2730.918 162.366 2730.991 161.664 C 2731.065 160.963 2731.17 160.3 2731.264 159.485 C 2731.358 158.669 2731.327 157.985 2731.383 157.243 Q 2731.438 156.501 2731.383 152.536 L 2731.155 149.983 L 2730.869 148.079 Q 2730.693 146.597 2730.474 145.77 C 2730.255 144.943 2730.058 144.426 2729.814 143.736 Q 2729.57 143.047 2729.072 141.276 L 2728.174 139.315 C 2727.689 138.674 2727.509 137.978 2727.161 137.211 C 2726.813 136.444 2726.256 135.765 2725.792 135.036 C 2725.328 134.307 2724.525 133.398 2723.795 132.547 C 2723.065 131.697 2722.783 131.265 2722.205 130.576 Q 2721.627 129.887 2720.707 128.903 Q 2719.74 127.872 2719.122 127.269 C 2718.503 126.667 2717.902 126.243 2717.297 125.805 C 2716.692 125.368 2716.008 124.767 2715.273 124.301 Q 2714.539 123.835 2713.618 123.198 Q 2712.588 122.454 2712.064 122.129 C 2711.54 121.803 2710.443 121.382 2709.532 121.059 Q 2708.622 120.736 2707.108 120.346 L 2704.826 119.561 L 2701.717 118.919 L 2698.443 118.492 L 2695.805 118.32 L 2693.273 118.32 L 2690.955 118.492 Q 2688.465 118.655 2687.14 118.919 C 2685.816 119.184 2685.107 119.405 2684.038 119.775 Q 2682.969 120.145 2681.506 120.809 L 2679.224 121.808 Q 2677.767 122.682 2677.187 123.013 C 2676.607 123.344 2675.9 123.907 2674.967 124.517 C 2674.035 125.128 2673.677 125.339 2672.992 125.805 C 2672.307 126.271 2671.857 126.764 2671.23 127.269 C 2670.604 127.775 2670.315 128.134 2669.826 128.609 Q 2669.337 129.084 2668.342 130.08 L 2666.809 131.863 L 2665.597 133.36 Q 2664.552 134.599 2664.113 135.357 C 2663.674 136.115 2663.525 136.468 2663.264 137.005 C 2663.002 137.542 2662.674 138.27 2662.316 139.03 C 2661.959 139.789 2661.622 140.467 2661.318 141.276 C 2661.013 142.085 2660.973 142.227 2660.817 142.774 C 2660.661 143.321 2660.568 143.646 2660.456 144.129 C 2660.344 144.612 2660.166 145.291 2660.034 145.911 Q 2659.902 146.532 2659.428 148.079 Q 2659.051 149.411 2658.964 150.155 C 2658.878 150.898 2658.733 151.246 2658.643 152.08 C 2658.554 152.913 2658.568 153.471 2658.538 154.077 C 2658.509 154.683 2658.594 154.829 2658.538 155.674 C 2658.483 156.52 2658.58 157.105 2658.643 157.664 C 2658.707 158.223 2658.876 158.831 2658.964 159.347 Q 2659.053 159.863 2659.256 160.628 Q 2659.427 161.304 2659.537 161.664 Q 2659.648 162.025 2660.034 163.062 Q 2660.328 164.141 2660.555 164.702 Q 2660.782 165.263 2661.318 166.236 L 2662.088 167.84 Q 2662.615 168.76 2662.944 169.231 C 2663.272 169.702 2663.928 170.559 2664.441 171.206 C 2664.955 171.853 2665.151 172.05 2665.597 172.547 C 2666.042 173.043 2666.369 173.531 2666.809 173.93 C 2667.249 174.329 2667.717 174.616 2668.23 175.097 C 2668.743 175.577 2669.004 175.767 2669.426 176.112 C 2669.848 176.458 2670.178 176.647 2670.61 176.897 C 2671.042 177.147 2671.776 177.594 2672.393 177.91 C 2673.01 178.225 2673.699 178.578 2674.375 178.924 C 2675.052 179.269 2675.44 179.391 2676.101 179.642 Q 2676.762 179.894 2678.205 180.249 L 2680.237 180.676 L 2682.448 180.947 L 2685.336 180.947 L 2688.367 180.947 Q 2690.056 180.85 2690.955 180.676 C 2691.855 180.503 2692.062 180.435 2692.646 180.249 C 2693.229 180.062 2694.03 179.72 2694.665 179.429 C 2695.299 179.138 2696.161 178.774 2696.96 178.394 C 2697.759 178.015 2698.472 177.714 2699.242 177.253 Q 2700.012 176.793 2700.918 176.112 L 2702.487 174.793 Q 2703.64 173.831 2704.224 173.26 Q 2704.807 172.689 2705.945 171.32 L 2707.407 169.231 L 2708.513 167.369 Q 2709.211 166.139 2709.532 165.444 C 2709.854 164.749 2710 164.281 2710.26 163.654 C 2710.52 163.027 2710.835 162.474 2711.044 161.795 C 2711.254 161.117 2711.377 160.736 2711.52 160.11 C 2711.664 159.484 2711.797 158.799 2711.864 158.213 C 2711.931 157.627 2712.011 156.79 2712.064 155.967 C 2712.117 155.143 2712.111 154.74 2712.064 154.077 C 2712.017 153.414 2711.977 152.776 2711.864 152.08 C 2711.752 151.383 2711.713 150.962 2711.436 150.155 Q 2711.16 149.347 2710.866 148.871 L 2709.939 147.159 L 2708.941 145.669 L 2707.907 144.414 Q 2707.009 143.287 2706.423 142.774 Q 2705.838 142.26 2705.232 141.882 Q 2704.089 141.119 2703.428 140.777 C 2702.767 140.435 2702.465 140.295 2701.916 140.099 C 2701.367 139.904 2700.649 139.759 2699.955 139.607 Q 2699.261 139.456 2698.443 139.315 L 2696.96 139.315 L 2694.856 139.607 Q 2693.597 139.888 2692.931 140.099 C 2692.265 140.311 2691.766 140.518 2691.148 140.777 C 2690.53 141.036 2690.154 141.161 2689.658 141.454 C 2689.161 141.747 2688.813 142.065 2688.367 142.41 Q 2687.92 142.755 2686.94 143.565 Q 2686.04 144.203 2685.621 144.628 Q 2685.202 145.052 2684.765 145.669 Q 2684.041 146.615 2683.696 147.159 C 2683.35 147.704 2683.235 147.909 2683.04 148.293 C 2682.844 148.677 2682.765 149.241 2682.59 149.727 C 2682.415 150.212 2682.352 150.466 2682.269 150.975 C 2682.187 151.483 2682.186 151.977 2682.137 152.536 C 2682.089 153.096 2682.017 153.305 2681.949 153.72 C 2681.88 154.136 2681.883 154.253 2681.808 154.547 C 2681.733 154.842 2681.619 155.178 2681.506 155.503 C 2681.394 155.827 2681.206 156.215 2680.943 156.537 C 2680.68 156.86 2680.612 156.919 2680.387 157.072 C 2680.161 157.225 2679.653 157.4 2679.224 157.464 C 2678.796 157.528 2678.558 157.536 2678.205 157.464 Q 2677.851 157.392 2677.278 157.072 Q 2676.775 156.768 2676.557 156.537 C 2676.34 156.306 2676.014 155.678 2675.887 155.146 C 2675.76 154.615 2675.857 154.059 2675.887 153.471 Q 2675.917 152.882 2676.101 151.545 L 2676.557 149.727 L 2677.278 147.373 L 2677.955 145.911 L 2678.661 144.414 L 2679.381 143.095 L 2680.237 141.882 Q 2680.861 140.96 2681.271 140.52 Q 2681.682 140.08 2682.269 139.607 L 2683.696 138.459 Q 2684.43 137.842 2684.865 137.514 C 2685.3 137.186 2685.677 136.886 2686.156 136.605 C 2686.635 136.324 2687.244 135.974 2687.839 135.709 C 2688.434 135.445 2688.761 135.21 2689.301 135.036 C 2689.841 134.863 2690.064 134.797 2690.478 134.666 C 2690.891 134.536 2691.296 134.35 2691.761 134.257 C 2692.227 134.165 2692.735 134.038 2693.273 133.988 C 2693.811 133.938 2694.435 133.767 2694.856 133.784 C 2695.277 133.8 2696.257 133.779 2696.96 133.784 C 2697.663 133.789 2698.167 133.893 2698.814 133.988 C 2699.462 134.082 2699.989 134.152 2700.633 134.257 C 2701.276 134.362 2702.053 134.57 2702.815 134.772 C 2703.576 134.975 2703.795 135.007 2704.305 135.2 C 2704.815 135.393 2705.465 135.64 2706.081 135.97 C 2706.697 136.3 2707.102 136.585 2707.609 136.89 C 2708.117 137.195 2708.372 137.337 2708.769 137.603 C 2709.167 137.87 2709.554 138.125 2709.939 138.459 C 2710.324 138.793 2710.766 139.209 2711.159 139.607 Q 2711.553 140.006 2712.228 140.777 L 2713.119 141.882 Q 2713.845 142.823 2714.189 143.366 C 2714.534 143.908 2714.734 144.307 2715.009 144.827 C 2715.285 145.348 2715.558 145.881 2715.822 146.468 C 2716.086 147.054 2716.26 147.508 2716.478 148.079 Q 2716.696 148.651 2717.149 149.983 Q 2717.361 150.979 2717.448 151.545 C 2717.535 152.111 2717.626 152.931 2717.618 153.592 C 2717.609 154.253 2717.643 155 2717.618 155.674 C 2717.592 156.348 2717.589 156.707 2717.618 157.072 C 2717.646 157.437 2717.483 157.946 2717.448 158.883 L 2717.149 160.737 L 2716.721 162.841 L 2716.15 164.553 L 2715.437 166.236 L 2714.688 167.84 Q 2714.156 168.922 2713.868 169.509 C 2713.581 170.096 2713.404 170.514 2713.119 171.042 C 2712.835 171.57 2712.537 172.016 2712.228 172.547 C 2711.919 173.078 2711.762 173.473 2711.436 173.93 C 2711.111 174.387 2710.754 174.768 2710.361 175.25 C 2709.968 175.731 2709.663 176.142 2709.269 176.569 Q 2708.874 176.995 2708.206 177.532 L 2706.858 178.787 L 2705.789 179.799 L 2704.305 180.947 L 2702.815 181.939 L 2701.296 182.866 L 2699.798 183.615 L 2698.187 184.399 L 2696.96 184.863 L 2695.377 185.469 Q 2694.357 185.809 2693.808 185.935 Q 2693.259 186.062 2691.761 186.324 L 2689.85 186.681 L 2687.839 186.895 L 2685.857 186.895 L 2683.232 186.895 L 2680.722 186.681 L 2677.727 186.039 Q 2676.209 185.722 2675.409 185.469 C 2674.609 185.215 2673.622 184.771 2672.771 184.399 C 2671.92 184.027 2670.604 183.56 2669.426 182.866 C 2668.248 182.172 2667.849 181.936 2667.194 181.491 C 2666.539 181.045 2665.932 180.735 2665.211 180.249 C 2664.491 179.762 2664.283 179.484 2663.821 179.136 Q 2663.359 178.789 2662.466 177.91 L 2661.318 176.701 Q 2660.309 175.596 2659.813 175.007 Q 2659.317 174.418 2658.643 173.353 L 2657.481 171.634 L 2656.333 169.509 L 2655.627 168.068 L 2654.878 166.4 L 2654.087 164.324 L 2653.452 162.392 Q 2653.131 161.329 2653.024 160.737 Q 2652.917 160.146 2652.846 158.398 L 2652.846 155.674 L 2652.846 152.872 L 2653.024 149.727 L 2653.238 147.373 L 2653.88 144.628 L 2654.629 142.139 L 2655.482 139.607 Q 2656.019 138.301 2656.333 137.603 Q 2656.647 136.906 2657.289 135.6 L 2658.244 133.61 Q 2658.957 132.235 2659.428 131.542 C 2659.899 130.849 2660.074 130.426 2660.456 129.902 C 2660.837 129.377 2661.249 129.001 2661.667 128.447 Q 2662.085 127.892 2662.758 127.12 Q 2663.409 126.165 2663.821 125.694 C 2664.232 125.223 2664.636 124.7 2665.211 124.189 C 2665.787 123.679 2666.159 123.349 2666.631 122.913 C 2667.102 122.477 2667.728 121.902 2668.342 121.423 C 2668.956 120.943 2669.449 120.612 2670.083 120.205 C 2670.717 119.799 2671.012 119.495 2671.547 119.142 C 2672.083 118.79 2672.834 118.357 2673.548 117.959 C 2674.261 117.561 2674.439 117.493 2674.967 117.201 C 2675.495 116.909 2676.113 116.734 2676.721 116.452 C 2677.329 116.17 2677.962 115.778 2678.661 115.468 Q 2679.36 115.158 2680.537 114.74 L 2682.448 114.177 L 2684.038 113.671 L 2685.621 113.279 L 2687.14 112.929 L 2688.809 112.637 Q 2689.983 112.425 2690.627 112.387 C 2691.272 112.349 2691.592 112.272 2692.117 112.247 C 2692.643 112.222 2693.117 112.229 2693.658 112.247 Q 2694.199 112.264 2695.584 112.387 Q 2696.758 112.47 2697.452 112.508 Q 2698.147 112.545 2699.007 112.637 L 2700.918 112.929 L 2702.487 113.279 L 2704.826 113.671 L 2707.108 114.384 L 2709.269 115.097 L 2711.044 115.739 L 2712.898 116.452 Q 2714.067 117.068 2714.688 117.422 C 2715.31 117.776 2715.883 118.134 2716.478 118.492 C 2717.073 118.849 2717.382 119.115 2717.919 119.447 C 2718.456 119.779 2718.949 120.006 2719.452 120.346 C 2719.955 120.685 2720.261 121.051 2720.707 121.423 C 2721.154 121.794 2721.697 122.182 2722.205 122.628 C 2722.712 123.074 2722.948 123.36 2723.41 123.769 C 2723.872 124.178 2724.571 124.589 2725.022 125.063 C 2725.472 125.537 2725.759 125.874 2726.378 126.45 C 2726.997 127.027 2727.534 127.642 2727.838 128.128 C 2728.143 128.613 2728.468 128.906 2728.845 129.315 C 2729.222 129.724 2729.431 130.188 2729.814 130.65 Q 2730.197 131.112 2730.869 132.547 Q 2731.414 133.658 2731.713 134.257 C 2732.013 134.856 2732.335 135.511 2732.716 136.234 Q 2733.097 136.957 2733.465 137.789 L 2734.235 139.885 L 2734.784 141.64 L 2735.448 143.736 L 2735.982 145.419 L 2736.375 147.523 L 2736.731 149.52 L 2737.016 151.545 L 2737.016 153.72 L 2737.016 155.674 Q 2737.068 157.107 2737.016 157.892 C 2736.965 158.677 2736.956 159.717 2736.92 160.531 Q 2736.885 161.345 2736.731 162.841 Q 2736.555 164.538 2736.375 165.444 C 2736.194 166.35 2736.132 166.826 2735.982 167.507 C 2735.833 168.188 2735.745 168.632 2735.576 169.231 C 2735.408 169.83 2735.228 170.088 2735.075 170.777 C 2734.922 171.465 2734.712 171.669 2734.59 172.204 C 2734.467 172.74 2734.242 173.304 2734.028 173.93 C 2733.814 174.556 2733.499 175.131 2733.265 175.749 C 2733.032 176.367 2732.737 176.899 2732.423 177.532 C 2732.11 178.164 2731.824 178.684 2731.575 179.136 Q 2731.327 179.589 2730.584 180.947 L 2729.586 182.474 L 2728.73 183.886 L 2727.838 185.469 L 2726.484 187.309 L 2725.521 188.721 L 2724.38 190.125 L 2723.096 191.573 L 2721.741 192.892 L 2720.422 194.262 L 2719.017 195.759 L 2717.448 197.242 L 2716.15 198.398 L 2714.688 199.482 Q 2713.554 200.366 2712.898 200.787 Q 2712.243 201.208 2710.866 201.921 Q 2709.848 202.599 2709.269 202.919 C 2708.689 203.239 2708.139 203.609 2707.493 203.938 C 2706.847 204.268 2706.107 204.662 2705.467 205.001 Q 2704.828 205.341 2703.899 205.722 Q 2702.581 206.202 2701.916 206.47 C 2701.252 206.739 2700.791 206.983 2700.112 207.216 Q 2699.433 207.448 2697.752 207.932 Q 2696.039 208.463 2695.113 208.692 C 2694.187 208.92 2693.986 209.037 2693.273 209.173 Q 2692.56 209.309 2691.333 209.466 L 2689.301 209.679 L 2687.14 209.858 Q 2685.465 209.923 2684.559 209.967 Q 2683.652 210.012 2682.269 210.072 L 2680.237 210.072 L 2677.278 210.072 Q 2675.556 209.986 2674.632 209.858 C 2673.708 209.729 2672.561 209.535 2671.437 209.306 C 2670.313 209.076 2669.423 208.818 2668.342 208.574 Q 2667.261 208.33 2665.789 207.932 Q 2664.326 207.509 2663.521 207.216 C 2662.717 206.923 2661.676 206.504 2660.712 206.114 Q 2659.747 205.723 2658.643 205.151 L 2656.333 204.024 Q 2655.127 203.494 2654.45 203.133 Q 2653.773 202.772 2652.368 201.921 L 2650.407 200.566 Q 2649.033 199.669 2648.333 199.169 C 2647.634 198.669 2646.896 198.185 2646.164 197.592 Q 2645.431 196.998 2644.502 196.28 Q 2643.658 195.492 2643.147 195.025 Q 2642.636 194.557 2641.421 193.332 L 2639.888 191.766 L 2638.391 190.125 Q 2637.456 189.135 2637 188.557 C 2636.544 187.978 2636.012 187.117 2635.495 186.324 Q 2634.979 185.532 2634.147 184.192 L 2633.099 182.131 L 2632.037 180.013 L 2631.145 177.91 L 2630.289 176.112 Q 2629.702 174.896 2629.434 174.216 C 2629.166 173.535 2628.857 173.007 2628.606 172.305 C 2628.354 171.603 2628.049 170.774 2627.743 169.918 C 2627.437 169.062 2627.136 168.263 2626.877 167.369 C 2626.618 166.476 2626.508 165.874 2626.332 165.036 C 2626.156 164.198 2625.929 163.12 2625.802 162.112 C 2625.674 161.104 2625.608 159.896 2625.481 158.682 C 2625.354 157.469 2625.293 156.391 2625.292 155.146 Q 2625.291 153.902 2625.481 151.545 Q 2625.607 149.62 2625.701 148.578 Q 2625.796 147.537 2626.332 143.979 Q 2626.618 141.613 2626.877 140.349 C 2627.135 139.085 2627.494 137.957 2627.829 136.704 C 2628.164 135.451 2628.511 134.351 2628.983 133.111 C 2629.454 131.871 2629.517 131.44 2629.885 130.576 C 2630.254 129.713 2630.596 128.874 2630.988 127.959 C 2631.381 127.044 2631.94 126.033 2632.457 124.981 C 2632.975 123.929 2633.293 123.306 2633.848 122.452 C 2634.403 121.598 2634.749 120.969 2635.297 120.205 C 2635.844 119.441 2636.576 118.428 2637.262 117.422 C 2637.948 116.416 2638.304 115.827 2638.927 115.011 C 2639.55 114.195 2639.768 113.907 2640.271 113.279 C 2640.773 112.65 2641.342 111.889 2641.935 111.21 C 2642.528 110.532 2642.973 109.924 2643.616 109.299 Q 2644.259 108.673 2645.201 107.754 Q 2646.442 106.685 2647.126 106.109 C 2647.81 105.534 2648.233 105.262 2648.831 104.735 C 2649.429 104.209 2650.114 103.637 2650.763 103.059 C 2651.412 102.482 2652.086 101.869 2652.846 101.277 C 2653.605 100.684 2654.366 100.161 2655.22 99.601 C 2656.075 99.041 2656.997 98.467 2658.002 97.925 C 2659.006 97.383 2659.324 97.277 2660.034 96.912 C 2660.744 96.548 2661.514 96.125 2662.316 95.7 C 2663.118 95.275 2663.46 95.081 2664.113 94.749 C 2664.767 94.418 2665.749 93.982 2666.631 93.61 C 2667.512 93.239 2667.86 93.067 2668.556 92.784 C 2669.252 92.5 2670.421 92.094 2671.437 91.792 C 2672.453 91.49 2673.461 91.196 2674.632 90.882 C 2675.803 90.569 2676.547 90.444 2677.513 90.202 C 2678.479 89.959 2679.167 89.844 2680.066 89.667 C 2680.965 89.49 2681.836 89.333 2682.797 89.168 C 2683.759 89.003 2684.621 88.816 2685.621 88.716 C 2686.622 88.616 2687.48 88.651 2688.367 88.597 C 2689.253 88.543 2689.999 88.596 2691.333 88.597 C 2692.667 88.598 2693.782 88.55 2695.113 88.597 C 2696.444 88.644 2697.277 88.759 2698.443 88.882 C 2699.609 89.006 2700.296 89.035 2701.171 89.168 C 2702.046 89.3 2702.889 89.387 2703.899 89.559 C 2704.908 89.73 2705.376 89.879 2706.231 90.04 C 2707.086 90.201 2707.886 90.406 2708.769 90.594 C 2709.653 90.782 2710.921 91.17 2712.064 91.557 Q 2713.207 91.944 2715.009 92.683 Q 2717.246 93.63 2718.425 94.124 C 2719.604 94.618 2720.578 95.143 2721.741 95.7 C 2722.905 96.257 2723.157 96.33 2723.891 96.735 C 2724.625 97.14 2725.48 97.733 2726.378 98.219 C 2727.276 98.705 2727.918 99.093 2728.73 99.601 C 2729.542 100.109 2730.233 100.54 2730.991 101.12 C 2731.75 101.7 2732.447 102.402 2733.265 103.059 C 2734.084 103.716 2734.689 104.271 2735.448 104.942 C 2736.206 105.613 2736.726 106.079 2737.39 106.703 C 2738.054 107.327 2738.365 107.723 2738.935 108.258 C 2739.504 108.794 2740.245 109.585 2740.932 110.326 C 2741.618 111.067 2742.15 111.638 2742.764 112.387 C 2743.379 113.137 2743.914 113.912 2744.533 114.74 C 2745.152 115.569 2745.487 116.013 2745.995 116.709 C 2746.503 117.404 2746.856 117.845 2747.278 118.492 C 2747.701 119.138 2748.047 119.812 2748.469 120.524 Q 2748.892 121.236 2750.217 123.419 L 2751.322 125.537 Q 2752.176 127.197 2752.57 128.047 C 2752.963 128.898 2753.095 129.469 2753.497 130.28 Q 2753.899 131.091 2754.46 132.547 Q 2754.942 133.995 2755.16 134.772 C 2755.378 135.549 2755.679 136.354 2755.942 137.211 C 2756.205 138.068 2756.387 138.925 2756.599 139.885 C 2756.811 140.846 2756.815 141.179 2756.92 141.882 Q 2757.025 142.585 2757.312 144.827 L 2757.633 147.523 Q 2757.93 149.66 2757.99 150.818 C 2758.049 151.976 2758.091 153.236 2757.99 154.547 C 2757.888 155.859 2757.954 155.482 2757.811 155.967 C 2757.668 156.451 2757.584 156.737 2757.312 157.072 C 2757.041 157.406 2756.89 157.512 2756.599 157.664 C 2756.308 157.816 2755.73 157.942 2755.244 157.892 C 2754.758 157.842 2754.465 157.765 2754.067 157.575 C 2753.67 157.385 2753.385 157.22 2753.14 156.922 C 2752.896 156.624 2752.907 156.343 2752.789 155.967 Z " fill="rgb(233,181,50)" vector-effect="non-scaling-stroke" stroke-width="1" stroke="rgb(233,181,50)" stroke-linejoin="miter" stroke-linecap="square" stroke-miterlimit="3"/></g></svg>