<?xml version="1.0" encoding="UTF-8" standalone="no"?><!-- Generator: Gravit.io --><svg xmlns="http://www.w3.org/2000/svg" xmlns:xlink="http://www.w3.org/1999/xlink" style="isolation:isolate" viewBox="0 0 3000 335" width="3000pt" height="335pt"><defs><clipPath id="_clipPath_5drQVogsNrzeLhQwsHYkeBXlxWEwS8ze"><rect width="3000" height="335"/></clipPath></defs><g clip-path="url(#_clipPath_5drQVogsNrzeLhQwsHYkeBXlxWEwS8ze)"><rect x="0" y="0" width="3000" height="335" transform="matrix(1,0,0,1,0,0)" fill="rgb(13,16,23)"/><g><path d=" M 2511.705 28.155 Q 2511.791 28.675 2530.03 70.829 Q 2530.4 71.494 2530.709 71.762 C 2531.017 72.03 2531.139 72.054 2531.387 72.186 C 2531.636 72.319 2532.023 72.534 2532.405 72.61 C 2532.788 72.687 2532.958 72.696 2533.339 72.61 C 2533.72 72.525 2534.136 72.378 2534.442 72.186 C 2534.748 71.994 2535.146 71.765 2535.46 71.393 C 2535.773 71.021 2536.018 70.655 2536.138 70.235 C 2536.258 69.815 2536.244 70.048 2536.266 69.314 Q 2536.287 68.581 2536.138 68.114 L 2517.813 25.416 Q 2517.113 24.362 2516.541 23.998 Q 2515.969 23.635 2515.183 23.489 Q 2514.575 23.432 2514.25 23.489 C 2513.926 23.546 2513.401 23.799 2513.085 23.998 C 2512.768 24.197 2512.607 24.416 2512.384 24.677 C 2512.161 24.938 2511.871 25.296 2511.705 25.695 C 2511.539 26.095 2511.499 26.321 2511.472 26.676 C 2511.444 27.031 2511.619 27.636 2511.705 28.155 Z " fill="rgb(247,145,35)" vector-effect="non-scaling-stroke" stroke-width="2" stroke="rgb(247,145,35)" stroke-linejoin="miter" stroke-linecap="square" stroke-miterlimit="3"/><path d=" M 2465.774 60.553 Q 2466.049 61.001 2498.835 93.168 Q 2499.429 93.645 2499.816 93.777 C 2500.203 93.909 2500.324 93.885 2500.604 93.914 C 2500.884 93.943 2501.324 93.996 2501.707 93.923 C 2502.09 93.849 2502.251 93.794 2502.571 93.571 C 2502.892 93.348 2503.222 93.055 2503.433 92.762 C 2503.644 92.469 2503.926 92.106 2504.077 91.644 C 2504.227 91.181 2504.316 90.749 2504.269 90.315 C 2504.222 89.881 2504.297 90.102 2504.04 89.415 Q 2503.783 88.727 2503.469 88.351 L 2470.398 55.713 Q 2469.352 55 2468.685 54.879 Q 2468.018 54.759 2467.236 54.92 Q 2466.651 55.096 2466.372 55.272 C 2466.093 55.447 2465.702 55.879 2465.484 56.182 C 2465.266 56.486 2465.199 56.749 2465.091 57.075 C 2464.983 57.401 2464.849 57.842 2464.846 58.274 C 2464.843 58.707 2464.891 58.932 2465 59.271 C 2465.108 59.609 2465.498 60.104 2465.774 60.553 Z " fill="rgb(247,145,35)" vector-effect="non-scaling-stroke" stroke-width="2" stroke="rgb(247,145,35)" stroke-linejoin="miter" stroke-linecap="square" stroke-miterlimit="3"/><path d=" M 2434.816 110.191 Q 2435.241 110.502 2477.776 127.835 Q 2478.505 128.051 2478.914 128.026 C 2479.322 128.002 2479.425 127.934 2479.695 127.854 C 2479.965 127.775 2480.392 127.658 2480.719 127.444 C 2481.046 127.231 2481.173 127.119 2481.385 126.791 C 2481.598 126.463 2481.792 126.067 2481.876 125.716 C 2481.96 125.365 2482.084 124.922 2482.048 124.437 C 2482.012 123.952 2481.93 123.519 2481.722 123.135 C 2481.513 122.751 2481.667 122.927 2481.168 122.389 Q 2480.67 121.85 2480.237 121.62 L 2437.261 103.959 Q 2436.022 103.696 2435.359 103.837 Q 2434.696 103.978 2434.034 104.424 Q 2433.559 104.809 2433.367 105.077 C 2433.175 105.345 2432.978 105.893 2432.891 106.257 C 2432.805 106.62 2432.842 106.889 2432.866 107.232 C 2432.889 107.575 2432.933 108.033 2433.094 108.434 C 2433.255 108.836 2433.385 109.025 2433.614 109.298 C 2433.843 109.57 2434.391 109.88 2434.816 110.191 Z " fill="rgb(247,145,35)" vector-effect="non-scaling-stroke" stroke-width="2" stroke="rgb(247,145,35)" stroke-linejoin="miter" stroke-linecap="square" stroke-miterlimit="3"/><path d=" M 2425.321 164.969 Q 2425.832 165.094 2471.762 164.828 Q 2472.519 164.748 2472.887 164.569 C 2473.255 164.39 2473.324 164.288 2473.543 164.111 C 2473.762 163.935 2474.112 163.663 2474.332 163.341 C 2474.552 163.019 2474.627 162.866 2474.698 162.482 C 2474.768 162.098 2474.797 161.658 2474.74 161.301 C 2474.683 160.944 2474.628 160.488 2474.409 160.054 C 2474.19 159.619 2473.949 159.251 2473.609 158.976 C 2473.27 158.701 2473.479 158.805 2472.812 158.498 Q 2472.145 158.191 2471.658 158.145 L 2425.194 158.276 Q 2423.949 158.507 2423.391 158.891 Q 2422.832 159.276 2422.391 159.941 Q 2422.1 160.479 2422.025 160.8 C 2421.95 161.121 2421.978 161.702 2422.037 162.071 C 2422.096 162.44 2422.234 162.675 2422.387 162.982 C 2422.539 163.29 2422.755 163.696 2423.057 164.005 C 2423.36 164.315 2423.553 164.44 2423.868 164.604 C 2424.184 164.769 2424.81 164.845 2425.321 164.969 Z " fill="rgb(247,145,35)" vector-effect="non-scaling-stroke" stroke-width="2" stroke="rgb(247,145,35)" stroke-linejoin="miter" stroke-linecap="square" stroke-miterlimit="3"/><path d=" M 2438.694 221.231 Q 2439.214 221.151 2481.578 203.405 Q 2482.247 203.043 2482.519 202.737 C 2482.791 202.431 2482.816 202.31 2482.951 202.063 C 2483.086 201.816 2483.306 201.432 2483.387 201.05 C 2483.468 200.669 2483.479 200.499 2483.398 200.117 C 2483.317 199.735 2483.175 199.317 2482.987 199.009 C 2482.798 198.701 2482.574 198.3 2482.206 197.982 C 2481.837 197.664 2481.474 197.415 2481.055 197.29 C 2480.637 197.165 2480.87 197.182 2480.137 197.152 Q 2479.403 197.122 2478.935 197.265 L 2436.026 215.091 Q 2434.963 215.779 2434.593 216.347 Q 2434.223 216.915 2434.069 217.698 Q 2434.005 218.306 2434.058 218.631 C 2434.111 218.956 2434.358 219.484 2434.553 219.803 C 2434.748 220.121 2434.965 220.285 2435.224 220.511 C 2435.482 220.737 2435.836 221.031 2436.234 221.202 C 2436.631 221.372 2436.857 221.415 2437.212 221.447 C 2437.566 221.478 2438.174 221.311 2438.694 221.231 Z " fill="rgb(247,145,35)" vector-effect="non-scaling-stroke" stroke-width="2" stroke="rgb(247,145,35)" stroke-linejoin="miter" stroke-linecap="square" stroke-miterlimit="3"/><path d=" M 2470.534 267.552 Q 2470.986 267.284 2503.676 235.019 Q 2504.162 234.433 2504.3 234.048 C 2504.438 233.663 2504.416 233.541 2504.45 233.262 C 2504.483 232.982 2504.544 232.544 2504.476 232.159 C 2504.409 231.775 2504.357 231.614 2504.139 231.289 C 2503.921 230.965 2503.634 230.631 2503.344 230.415 C 2503.054 230.199 2502.696 229.911 2502.236 229.753 C 2501.776 229.595 2501.346 229.5 2500.911 229.54 C 2500.476 229.58 2500.698 229.509 2500.006 229.755 Q 2499.315 230.001 2498.934 230.308 L 2465.768 262.85 Q 2465.039 263.885 2464.908 264.549 Q 2464.776 265.214 2464.925 265.999 Q 2465.092 266.587 2465.263 266.869 C 2465.433 267.151 2465.859 267.548 2466.159 267.771 C 2466.459 267.994 2466.721 268.065 2467.046 268.179 C 2467.37 268.292 2467.808 268.433 2468.24 268.443 C 2468.673 268.453 2468.899 268.408 2469.239 268.305 C 2469.58 268.202 2470.081 267.82 2470.534 267.552 Z " fill="rgb(247,145,35)" vector-effect="non-scaling-stroke" stroke-width="2" stroke="rgb(247,145,35)" stroke-linejoin="miter" stroke-linecap="square" stroke-miterlimit="3"/><path d=" M 2520.613 298.594 Q 2520.92 298.167 2537.867 255.477 Q 2538.076 254.745 2538.048 254.337 C 2538.02 253.929 2537.951 253.826 2537.869 253.557 C 2537.787 253.288 2537.666 252.861 2537.45 252.537 C 2537.234 252.212 2537.12 252.085 2536.79 251.876 C 2536.46 251.667 2536.063 251.476 2535.711 251.395 C 2535.359 251.315 2534.915 251.195 2534.43 251.235 C 2533.946 251.276 2533.513 251.361 2533.131 251.573 C 2532.749 251.785 2532.924 251.63 2532.39 252.133 Q 2531.856 252.637 2531.63 253.072 L 2514.359 296.207 Q 2514.108 297.447 2514.255 298.109 Q 2514.402 298.771 2514.854 299.429 Q 2515.243 299.9 2515.513 300.09 C 2515.783 300.279 2516.332 300.471 2516.697 300.555 C 2517.061 300.638 2517.33 300.598 2517.672 300.571 C 2518.015 300.545 2518.472 300.497 2518.872 300.332 C 2519.272 300.167 2519.461 300.036 2519.731 299.804 C 2520.002 299.573 2520.307 299.022 2520.613 298.594 Z " fill="rgb(247,145,35)" vector-effect="non-scaling-stroke" stroke-width="2" stroke="rgb(247,145,35)" stroke-linejoin="miter" stroke-linecap="square" stroke-miterlimit="3"/><path d=" M 2632.254 294.735 Q 2632.168 294.215 2613.929 252.061 Q 2613.559 251.396 2613.251 251.128 C 2612.942 250.86 2612.82 250.836 2612.572 250.704 C 2612.324 250.571 2611.936 250.356 2611.554 250.28 C 2611.171 250.203 2611.002 250.194 2610.621 250.28 C 2610.24 250.365 2609.824 250.512 2609.518 250.704 C 2609.212 250.896 2608.814 251.125 2608.5 251.497 C 2608.186 251.869 2607.941 252.235 2607.821 252.655 C 2607.701 253.075 2607.715 252.842 2607.694 253.576 Q 2607.673 254.309 2607.821 254.776 L 2626.146 297.474 Q 2626.846 298.528 2627.419 298.892 Q 2627.991 299.255 2628.776 299.401 Q 2629.385 299.458 2629.709 299.401 C 2630.034 299.344 2630.558 299.091 2630.875 298.892 C 2631.191 298.693 2631.353 298.474 2631.576 298.213 C 2631.799 297.952 2632.088 297.594 2632.254 297.195 C 2632.42 296.795 2632.46 296.569 2632.488 296.214 C 2632.515 295.859 2632.34 295.254 2632.254 294.735 Z " fill="rgb(247,145,35)" vector-effect="non-scaling-stroke" stroke-width="2" stroke="rgb(247,145,35)" stroke-linejoin="miter" stroke-linecap="square" stroke-miterlimit="3"/><path d=" M 2678.186 262.337 Q 2677.91 261.889 2645.124 229.722 Q 2644.531 229.245 2644.144 229.113 C 2643.757 228.981 2643.635 229.005 2643.355 228.976 C 2643.075 228.947 2642.636 228.894 2642.252 228.967 C 2641.869 229.041 2641.709 229.096 2641.388 229.319 C 2641.067 229.542 2640.737 229.835 2640.527 230.128 C 2640.316 230.421 2640.033 230.784 2639.883 231.246 C 2639.732 231.709 2639.643 232.141 2639.691 232.575 C 2639.738 233.009 2639.663 232.788 2639.92 233.475 Q 2640.177 234.163 2640.49 234.539 L 2673.561 267.177 Q 2674.607 267.89 2675.274 268.011 Q 2675.941 268.131 2676.723 267.97 Q 2677.309 267.794 2677.588 267.618 C 2677.867 267.443 2678.257 267.011 2678.475 266.708 C 2678.693 266.404 2678.761 266.141 2678.869 265.815 C 2678.977 265.489 2679.11 265.049 2679.113 264.616 C 2679.116 264.183 2679.068 263.958 2678.96 263.619 C 2678.851 263.281 2678.461 262.786 2678.186 262.337 Z " fill="rgb(247,145,35)" vector-effect="non-scaling-stroke" stroke-width="2" stroke="rgb(247,145,35)" stroke-linejoin="miter" stroke-linecap="square" stroke-miterlimit="3"/><path d=" M 2709.143 212.699 Q 2708.718 212.388 2666.184 195.055 Q 2665.454 194.839 2665.046 194.864 C 2664.638 194.888 2664.534 194.957 2664.264 195.036 C 2663.994 195.115 2663.567 195.232 2663.24 195.446 C 2662.914 195.659 2662.786 195.771 2662.574 196.099 C 2662.362 196.427 2662.167 196.823 2662.083 197.174 C 2661.999 197.525 2661.875 197.968 2661.912 198.453 C 2661.948 198.938 2662.029 199.371 2662.238 199.755 C 2662.446 200.139 2662.293 199.963 2662.791 200.502 Q 2663.29 201.04 2663.722 201.27 L 2706.699 218.931 Q 2707.937 219.194 2708.6 219.053 Q 2709.263 218.912 2709.926 218.466 Q 2710.4 218.081 2710.592 217.813 C 2710.784 217.545 2710.982 216.997 2711.068 216.633 C 2711.155 216.27 2711.117 216.001 2711.094 215.658 C 2711.07 215.315 2711.027 214.857 2710.866 214.456 C 2710.704 214.054 2710.574 213.865 2710.345 213.592 C 2710.117 213.32 2709.568 213.01 2709.143 212.699 Z " fill="rgb(247,145,35)" vector-effect="non-scaling-stroke" stroke-width="2" stroke="rgb(247,145,35)" stroke-linejoin="miter" stroke-linecap="square" stroke-miterlimit="3"/><path d=" M 2718.638 157.921 Q 2718.127 157.796 2672.197 158.062 Q 2671.44 158.142 2671.073 158.321 C 2670.705 158.5 2670.635 158.602 2670.416 158.779 C 2670.197 158.955 2669.847 159.227 2669.627 159.549 C 2669.407 159.871 2669.332 160.024 2669.262 160.408 C 2669.191 160.792 2669.163 161.232 2669.22 161.589 C 2669.277 161.946 2669.332 162.402 2669.551 162.836 C 2669.77 163.271 2670.011 163.639 2670.35 163.914 C 2670.69 164.189 2670.48 164.085 2671.147 164.392 Q 2671.814 164.699 2672.302 164.745 L 2718.765 164.614 Q 2720.01 164.383 2720.569 163.999 Q 2721.127 163.614 2721.569 162.949 Q 2721.86 162.411 2721.934 162.09 C 2722.009 161.77 2721.982 161.188 2721.923 160.819 C 2721.864 160.45 2721.726 160.215 2721.573 159.908 C 2721.42 159.6 2721.205 159.194 2720.902 158.885 C 2720.599 158.575 2720.407 158.45 2720.091 158.286 C 2719.775 158.121 2719.15 158.045 2718.638 157.921 Z " fill="rgb(247,145,35)" vector-effect="non-scaling-stroke" stroke-width="2" stroke="rgb(247,145,35)" stroke-linejoin="miter" stroke-linecap="square" stroke-miterlimit="3"/><path d=" M 2705.266 101.659 Q 2704.746 101.739 2662.381 119.485 Q 2661.712 119.847 2661.44 120.153 C 2661.169 120.459 2661.144 120.58 2661.008 120.827 C 2660.873 121.074 2660.653 121.458 2660.572 121.84 C 2660.491 122.221 2660.48 122.391 2660.561 122.773 C 2660.643 123.155 2660.784 123.573 2660.973 123.881 C 2661.161 124.189 2661.386 124.59 2661.754 124.908 C 2662.122 125.226 2662.485 125.475 2662.904 125.6 C 2663.323 125.725 2663.089 125.708 2663.823 125.738 Q 2664.556 125.768 2665.025 125.625 L 2707.933 107.799 Q 2708.996 107.111 2709.366 106.543 Q 2709.736 105.975 2709.891 105.192 Q 2709.955 104.584 2709.902 104.259 C 2709.848 103.934 2709.602 103.406 2709.406 103.087 C 2709.211 102.769 2708.994 102.605 2708.736 102.379 C 2708.477 102.153 2708.123 101.859 2707.726 101.688 C 2707.328 101.518 2707.102 101.475 2706.748 101.443 C 2706.393 101.412 2705.786 101.579 2705.266 101.659 Z " fill="rgb(247,145,35)" vector-effect="non-scaling-stroke" stroke-width="2" stroke="rgb(247,145,35)" stroke-linejoin="miter" stroke-linecap="square" stroke-miterlimit="3"/><path d=" M 2673.426 55.338 Q 2672.973 55.606 2640.284 87.871 Q 2639.798 88.457 2639.659 88.842 C 2639.521 89.227 2639.543 89.349 2639.51 89.628 C 2639.476 89.908 2639.416 90.346 2639.483 90.731 C 2639.55 91.115 2639.603 91.276 2639.821 91.601 C 2640.039 91.925 2640.326 92.259 2640.616 92.475 C 2640.905 92.691 2641.263 92.979 2641.724 93.137 C 2642.184 93.295 2642.614 93.39 2643.049 93.35 C 2643.484 93.31 2643.261 93.381 2643.953 93.135 Q 2644.645 92.889 2645.026 92.582 L 2678.191 60.04 Q 2678.92 59.005 2679.052 58.341 Q 2679.183 57.676 2679.035 56.891 Q 2678.868 56.303 2678.697 56.021 C 2678.526 55.739 2678.1 55.342 2677.8 55.119 C 2677.5 54.896 2677.238 54.825 2676.914 54.711 C 2676.59 54.598 2676.152 54.457 2675.719 54.447 C 2675.287 54.437 2675.061 54.482 2674.72 54.585 C 2674.38 54.688 2673.879 55.07 2673.426 55.338 Z " fill="rgb(247,145,35)" vector-effect="non-scaling-stroke" stroke-width="2" stroke="rgb(247,145,35)" stroke-linejoin="miter" stroke-linecap="square" stroke-miterlimit="3"/><path d=" M 2623.346 24.296 Q 2623.039 24.723 2606.092 67.413 Q 2605.883 68.145 2605.911 68.553 C 2605.94 68.961 2606.009 69.064 2606.091 69.333 C 2606.172 69.602 2606.294 70.029 2606.51 70.353 C 2606.726 70.678 2606.839 70.805 2607.169 71.014 C 2607.499 71.223 2607.896 71.414 2608.248 71.495 C 2608.6 71.575 2609.044 71.695 2609.529 71.655 C 2610.014 71.614 2610.446 71.529 2610.828 71.317 C 2611.21 71.105 2611.035 71.26 2611.569 70.757 Q 2612.104 70.253 2612.329 69.818 L 2629.6 26.683 Q 2629.852 25.443 2629.704 24.781 Q 2629.557 24.119 2629.106 23.461 Q 2628.716 22.99 2628.446 22.8 C 2628.177 22.611 2627.627 22.419 2627.263 22.335 C 2626.898 22.252 2626.629 22.292 2626.287 22.319 C 2625.945 22.345 2625.487 22.393 2625.087 22.558 C 2624.687 22.723 2624.498 22.854 2624.228 23.086 C 2623.958 23.317 2623.653 23.868 2623.346 24.296 Z " fill="rgb(247,145,35)" vector-effect="non-scaling-stroke" stroke-width="2" stroke="rgb(247,145,35)" stroke-linejoin="miter" stroke-linecap="square" stroke-miterlimit="3"/><path d=" M 2569.146 16.715 Q 2569.018 17.226 2569.01 63.156 Q 2569.085 63.914 2569.262 64.282 C 2569.438 64.651 2569.541 64.721 2569.716 64.941 C 2569.891 65.161 2570.161 65.513 2570.482 65.735 C 2570.802 65.957 2570.954 66.033 2571.338 66.106 C 2571.722 66.178 2572.162 66.209 2572.519 66.155 C 2572.876 66.1 2573.332 66.048 2573.768 65.831 C 2574.204 65.615 2574.574 65.376 2574.851 65.038 C 2575.128 64.7 2575.023 64.909 2575.334 64.244 Q 2575.645 63.579 2575.694 63.092 L 2575.84 16.628 Q 2575.616 15.382 2575.235 14.821 Q 2574.854 14.26 2574.192 13.815 Q 2573.656 13.521 2573.335 13.444 C 2573.015 13.367 2572.433 13.391 2572.063 13.448 C 2571.694 13.505 2571.459 13.641 2571.151 13.792 C 2570.842 13.943 2570.434 14.156 2570.123 14.457 C 2569.812 14.758 2569.685 14.95 2569.519 15.265 C 2569.353 15.579 2569.273 16.204 2569.146 16.715 Z " fill="rgb(247,145,35)" vector-effect="non-scaling-stroke" stroke-width="2" stroke="rgb(247,145,35)" stroke-linejoin="miter" stroke-linecap="square" stroke-miterlimit="3"/><path d=" M 2569.146 261.341 Q 2569.018 261.852 2569.01 307.783 Q 2569.085 308.54 2569.262 308.909 C 2569.438 309.277 2569.541 309.347 2569.716 309.568 C 2569.891 309.788 2570.161 310.139 2570.482 310.361 C 2570.802 310.583 2570.954 310.659 2571.338 310.732 C 2571.722 310.805 2572.162 310.836 2572.519 310.781 C 2572.876 310.726 2573.332 310.674 2573.768 310.457 C 2574.204 310.241 2574.574 310.002 2574.851 309.664 C 2575.128 309.326 2575.023 309.535 2575.334 308.87 Q 2575.645 308.205 2575.694 307.718 L 2575.84 261.254 Q 2575.616 260.008 2575.235 259.447 Q 2574.854 258.887 2574.192 258.441 Q 2573.656 258.147 2573.335 258.07 C 2573.015 257.994 2572.433 258.017 2572.063 258.074 C 2571.694 258.131 2571.459 258.268 2571.151 258.419 C 2570.842 258.57 2570.434 258.783 2570.123 259.083 C 2569.812 259.384 2569.685 259.576 2569.519 259.891 C 2569.353 260.206 2569.273 260.831 2569.146 261.341 Z " fill="rgb(247,145,35)" vector-effect="non-scaling-stroke" stroke-width="2" stroke="rgb(247,145,35)" stroke-linejoin="miter" stroke-linecap="square" stroke-miterlimit="3"/></g><path d=" M 2644.194 169.2 C 2644.054 168.752 2643.975 168.245 2643.933 167.512 C 2643.891 166.779 2643.941 165.803 2643.933 164.797 C 2643.925 163.792 2644.014 163.034 2643.933 162.082 C 2643.852 161.131 2643.838 160.433 2643.698 159.537 C 2643.557 158.642 2643.517 157.863 2643.411 156.95 C 2643.306 156.037 2643.092 155.326 2642.915 154.447 C 2642.738 153.568 2642.622 152.959 2642.449 152.156 C 2642.275 151.353 2642.141 150.575 2641.897 149.738 C 2641.653 148.901 2641.535 148.342 2641.288 147.575 C 2641.04 146.808 2640.715 146.073 2640.455 145.242 C 2640.195 144.411 2640.148 144.059 2639.903 143.374 C 2639.658 142.689 2639.237 141.798 2639.055 141.339 C 2638.873 140.881 2638.581 140.099 2638.179 138.994 C 2638.151 138.917 2638.142 138.892 2638.122 138.837 C 2638.101 138.781 2637.507 137.275 2637.104 136.461 Q 2636.7 135.647 2635.746 134.086 L 2634.643 132.092 L 2633.753 130.48 L 2632.268 128.105 L 2631.165 126.45 Q 2630.28 125.113 2629.765 124.414 Q 2629.25 123.715 2628.578 122.887 Q 2627.574 121.664 2627.008 121.021 Q 2626.442 120.378 2625.43 119.307 L 2623.818 117.653 L 2622.121 115.956 Q 2621.045 114.857 2620.425 114.302 C 2619.804 113.746 2619.322 113.396 2618.728 112.902 C 2618.134 112.407 2617.52 111.881 2616.861 111.332 Q 2616.203 110.784 2614.91 109.72 Q 2613.476 108.613 2612.662 108.066 C 2611.848 107.519 2610.993 107.032 2610.074 106.497 C 2609.156 105.961 2608.508 105.612 2607.657 105.139 C 2606.805 104.667 2606.259 104.358 2605.493 103.952 C 2604.727 103.545 2603.819 103.09 2602.906 102.637 C 2601.992 102.183 2601.678 102.008 2600.997 101.703 C 2600.315 101.399 2599.391 100.988 2598.536 100.62 C 2597.682 100.253 2596.956 100.007 2596.172 99.71 C 2595.388 99.413 2594.647 99.177 2593.719 98.946 Q 2592.791 98.715 2590.951 98.382 Q 2589.71 98.131 2589.035 98.013 C 2588.359 97.895 2586.721 97.701 2585.471 97.504 Q 2584.222 97.306 2583.435 97.164 Q 2582.282 96.96 2581.654 96.868 C 2581.026 96.775 2580.088 96.657 2579.236 96.571 Q 2578.384 96.485 2565.467 96.868 Q 2563.703 96.954 2562.752 97.046 C 2561.801 97.137 2561.565 97.076 2560.928 97.164 C 2560.291 97.253 2559.243 97.36 2558.459 97.504 C 2557.676 97.647 2556.866 97.822 2556.007 98.013 C 2555.148 98.204 2554.379 98.379 2553.505 98.607 C 2552.63 98.834 2552.011 98.999 2551.214 99.251 C 2550.417 99.504 2549.947 99.688 2549.263 99.93 C 2548.578 100.173 2547.817 100.408 2547.057 100.728 C 2546.297 101.047 2545.744 101.377 2545.021 101.703 C 2544.298 102.03 2543.584 102.295 2542.815 102.637 C 2542.046 102.978 2541.424 103.242 2540.694 103.621 C 2539.965 103.999 2539.392 104.348 2538.7 104.766 C 2538.009 105.184 2537.576 105.332 2536.988 105.655 C 2536.401 105.977 2535.752 106.356 2535.052 106.717 C 2534.353 107.078 2533.57 107.598 2532.762 108.066 C 2531.953 108.534 2531.48 108.76 2530.811 109.178 C 2530.141 109.595 2529.64 109.985 2528.919 110.594 C 2528.197 111.203 2527.825 111.469 2527.205 111.963 C 2526.585 112.458 2525.912 112.971 2525.411 113.395 C 2524.91 113.819 2524.253 114.362 2523.642 114.904 C 2523.03 115.446 2522.603 115.889 2522.072 116.346 C 2521.541 116.804 2520.946 117.404 2520.359 118.001 C 2519.771 118.597 2519.464 118.976 2518.959 119.485 C 2518.454 119.994 2518.026 120.606 2517.513 121.198 Q 2517 121.789 2515.777 123.345 Q 2514.964 124.51 2514.505 125.127 C 2514.045 125.744 2513.622 126.205 2513.19 126.824 C 2512.758 127.442 2512.343 128.159 2511.882 128.945 Q 2511.421 129.73 2510.729 130.896 L 2509.881 132.338 L 2508.863 134.086 Q 2508.267 135.293 2507.926 135.986 C 2507.585 136.679 2507.24 137.442 2506.869 138.192 C 2506.499 138.942 2506.266 139.608 2505.928 140.329 C 2505.59 141.05 2505.203 141.786 2504.876 142.604 C 2504.549 143.422 2504.414 143.954 2504.155 144.682 C 2503.895 145.41 2503.621 146.109 2503.349 146.888 C 2503.076 147.667 2502.889 148.137 2502.695 148.831 C 2502.502 149.525 2502.409 150.105 2502.252 150.824 Q 2502.095 151.544 2501.804 153.073 L 2501.423 154.939 L 2501.041 157.611 L 2500.744 161.322 Q 2500.538 164.75 2500.54 167.287 C 2500.543 169.823 2500.826 171.877 2501.041 174.359 C 2501.256 176.841 2501.207 176.954 2501.423 178.346 Q 2501.639 179.737 2502.095 181.612 L 2502.954 184.709 L 2503.975 187.466 L 2504.876 189.884 L 2506.098 192.556 L 2507.285 195.101 L 2508.473 196.968 L 2509.601 198.919 L 2510.916 200.913 L 2512.316 202.779 L 2513.758 204.688 L 2515.37 206.682 L 2516.855 208.166 L 2518.594 210.033 L 2520.163 211.56 L 2522.072 213.129 L 2523.642 214.444 Q 2524.82 215.423 2525.508 215.886 Q 2526.196 216.35 2527.714 217.159 L 2529.708 218.304 L 2531.718 219.373 L 2533.585 220.391 Q 2534.987 221.192 2535.79 221.537 C 2536.594 221.881 2537.109 222.01 2537.827 222.258 C 2538.544 222.505 2539.401 222.762 2540.244 223.064 C 2541.088 223.365 2541.605 223.63 2542.365 223.87 C 2543.126 224.109 2543.935 224.248 2544.783 224.464 Q 2545.631 224.679 2547.057 225.057 L 2549.263 225.651 Q 2550.78 225.99 2551.613 226.118 C 2552.445 226.246 2553.095 226.315 2553.903 226.372 Q 2554.711 226.43 2558.06 226.372 L 2560.928 226.372 L 2563.532 226.372 Q 2565.352 226.245 2566.332 226.118 Q 2567.312 225.991 2569.089 225.651 Q 2570.717 225.463 2571.592 225.312 Q 2572.467 225.161 2574.519 224.676 Q 2576.299 224.231 2577.303 223.87 C 2578.308 223.508 2579.075 223.106 2579.982 222.75 C 2580.89 222.394 2581.566 222.111 2582.314 221.808 C 2583.061 221.506 2583.645 221.285 2584.352 220.968 Q 2585.058 220.651 2586.515 219.908 Q 2588.023 219.178 2588.806 218.72 Q 2589.588 218.262 2591.156 217.159 Q 2592.486 216.286 2593.217 215.771 Q 2593.949 215.257 2594.999 214.444 L 2596.738 213.129 L 2598.536 211.56 L 2600.216 210.033 L 2601.616 208.624 Q 2602.753 207.615 2603.313 207.012 Q 2603.873 206.409 2604.713 205.316 L 2606.028 203.576 Q 2606.858 202.639 2607.258 202.092 C 2607.658 201.545 2607.826 201.205 2608.149 200.734 C 2608.471 200.264 2608.929 199.586 2609.348 198.919 C 2609.767 198.251 2610.186 197.51 2610.609 196.764 Q 2611.032 196.018 2611.754 194.855 L 2612.9 192.734 L 2613.705 190.91 L 2614.511 189.129 L 2615.36 187.135 L 2616.208 184.709 L 2616.861 182.766 Q 2617.316 181.293 2617.481 180.475 C 2617.645 179.657 2617.837 179.094 2617.943 178.346 C 2618.048 177.598 2618.175 176.813 2618.262 175.979 C 2618.35 175.144 2618.475 174.355 2618.587 173.385 C 2618.699 172.416 2618.662 171.601 2618.728 170.719 Q 2618.794 169.837 2618.728 165.12 L 2618.456 162.082 L 2618.117 159.817 Q 2617.907 158.054 2617.647 157.07 C 2617.386 156.086 2617.152 155.47 2616.861 154.651 Q 2616.571 153.831 2615.979 151.724 L 2614.91 149.391 C 2614.334 148.628 2614.12 147.8 2613.705 146.888 C 2613.291 145.976 2612.629 145.167 2612.077 144.3 C 2611.524 143.433 2610.57 142.352 2609.701 141.339 C 2608.832 140.327 2608.497 139.814 2607.809 138.994 Q 2607.122 138.174 2606.028 137.004 Q 2604.877 135.777 2604.142 135.061 C 2603.406 134.344 2602.69 133.839 2601.97 133.319 C 2601.251 132.798 2600.437 132.083 2599.563 131.529 Q 2598.689 130.975 2597.594 130.217 Q 2596.369 129.332 2595.745 128.945 C 2595.121 128.557 2593.817 128.056 2592.734 127.672 Q 2591.65 127.288 2589.849 126.824 L 2587.134 125.891 L 2583.435 125.127 L 2579.541 124.618 L 2576.402 124.414 L 2573.391 124.414 L 2570.633 124.618 Q 2567.67 124.812 2566.095 125.127 C 2564.519 125.442 2563.676 125.705 2562.404 126.145 Q 2561.132 126.585 2559.392 127.375 L 2556.678 128.563 Q 2554.943 129.603 2554.254 129.997 C 2553.564 130.39 2552.722 131.06 2551.613 131.787 C 2550.503 132.513 2550.078 132.764 2549.263 133.319 C 2548.448 133.873 2547.913 134.46 2547.167 135.061 C 2546.422 135.662 2546.079 136.089 2545.497 136.654 Q 2544.915 137.22 2543.731 138.404 L 2541.907 140.525 L 2540.465 142.307 Q 2539.222 143.78 2538.7 144.682 C 2538.178 145.584 2538.001 146.003 2537.69 146.642 C 2537.379 147.282 2536.988 148.148 2536.563 149.051 C 2536.137 149.955 2535.737 150.761 2535.375 151.724 C 2535.012 152.686 2534.964 152.855 2534.779 153.505 C 2534.593 154.156 2534.483 154.542 2534.349 155.117 C 2534.216 155.692 2534.005 156.5 2533.848 157.238 Q 2533.691 157.977 2533.127 159.817 Q 2532.678 161.402 2532.575 162.286 C 2532.472 163.17 2532.299 163.584 2532.193 164.576 C 2532.087 165.568 2532.104 166.231 2532.068 166.952 C 2532.033 167.673 2532.134 167.847 2532.068 168.852 C 2532.002 169.858 2532.118 170.554 2532.193 171.219 C 2532.268 171.884 2532.47 172.608 2532.575 173.222 Q 2532.68 173.836 2532.922 174.746 Q 2533.125 175.549 2533.256 175.979 Q 2533.388 176.408 2533.848 177.642 Q 2534.197 178.925 2534.467 179.593 Q 2534.737 180.26 2535.375 181.417 L 2536.291 183.326 Q 2536.919 184.42 2537.309 184.98 C 2537.7 185.54 2538.48 186.56 2539.091 187.33 C 2539.701 188.099 2539.935 188.334 2540.465 188.925 C 2540.995 189.516 2541.384 190.096 2541.907 190.571 C 2542.43 191.045 2542.987 191.387 2543.598 191.959 C 2544.208 192.53 2544.519 192.756 2545.021 193.167 C 2545.523 193.577 2545.915 193.802 2546.429 194.1 C 2546.943 194.398 2547.816 194.93 2548.55 195.305 C 2549.284 195.68 2550.104 196.1 2550.909 196.511 C 2551.713 196.922 2552.176 197.067 2552.962 197.366 Q 2553.748 197.665 2555.464 198.087 L 2557.882 198.596 L 2560.512 198.919 L 2563.948 198.919 L 2567.554 198.919 Q 2569.564 198.803 2570.633 198.596 C 2571.703 198.39 2571.949 198.309 2572.644 198.087 C 2573.339 197.866 2574.291 197.458 2575.046 197.112 C 2575.801 196.766 2576.826 196.333 2577.777 195.882 C 2578.727 195.43 2579.575 195.072 2580.491 194.524 Q 2581.408 193.977 2582.485 193.167 L 2584.352 191.597 Q 2585.723 190.452 2586.418 189.773 Q 2587.112 189.094 2588.466 187.466 L 2590.205 184.98 L 2591.52 182.766 Q 2592.351 181.302 2592.734 180.475 C 2593.116 179.648 2593.29 179.092 2593.599 178.346 C 2593.908 177.6 2594.283 176.941 2594.532 176.134 C 2594.781 175.327 2594.928 174.875 2595.098 174.13 C 2595.269 173.385 2595.428 172.57 2595.508 171.873 C 2595.587 171.175 2595.682 170.18 2595.745 169.2 C 2595.808 168.22 2595.801 167.741 2595.745 166.952 C 2595.689 166.163 2595.641 165.405 2595.508 164.576 C 2595.374 163.747 2595.328 163.247 2594.999 162.286 Q 2594.67 161.325 2594.32 160.759 L 2593.217 158.723 L 2592.029 156.95 L 2590.799 155.456 Q 2589.731 154.116 2589.035 153.505 Q 2588.338 152.894 2587.618 152.445 Q 2586.258 151.537 2585.471 151.13 C 2584.685 150.723 2584.326 150.556 2583.673 150.324 C 2583.02 150.091 2582.166 149.919 2581.34 149.738 Q 2580.514 149.558 2579.541 149.391 L 2577.777 149.391 L 2575.274 149.738 Q 2573.775 150.072 2572.983 150.324 C 2572.191 150.576 2571.598 150.821 2570.862 151.13 C 2570.127 151.438 2569.68 151.587 2569.089 151.936 C 2568.499 152.284 2568.085 152.662 2567.554 153.073 Q 2567.022 153.483 2565.857 154.447 Q 2564.786 155.206 2564.287 155.711 Q 2563.789 156.216 2563.269 156.95 Q 2562.408 158.075 2561.997 158.723 C 2561.586 159.371 2561.449 159.615 2561.216 160.072 C 2560.984 160.529 2560.89 161.2 2560.682 161.777 C 2560.474 162.354 2560.398 162.657 2560.3 163.262 C 2560.202 163.866 2560.2 164.454 2560.143 165.12 C 2560.085 165.785 2560 166.033 2559.918 166.528 C 2559.837 167.022 2559.84 167.162 2559.751 167.512 C 2559.662 167.862 2559.527 168.263 2559.392 168.649 C 2559.258 169.035 2559.035 169.495 2558.722 169.879 C 2558.409 170.263 2558.329 170.333 2558.06 170.515 C 2557.792 170.697 2557.187 170.906 2556.678 170.982 C 2556.168 171.058 2555.885 171.068 2555.464 170.982 Q 2555.044 170.896 2554.361 170.515 Q 2553.763 170.153 2553.505 169.879 C 2553.246 169.605 2552.858 168.857 2552.707 168.225 C 2552.556 167.592 2552.671 166.931 2552.707 166.231 Q 2552.743 165.531 2552.962 163.94 L 2553.505 161.777 L 2554.361 158.977 L 2555.167 157.238 L 2556.007 155.456 L 2556.864 153.887 L 2557.882 152.445 Q 2558.624 151.348 2559.112 150.824 Q 2559.601 150.301 2560.3 149.738 L 2561.997 148.373 Q 2562.871 147.639 2563.388 147.249 C 2563.905 146.858 2564.354 146.501 2564.924 146.167 C 2565.494 145.832 2566.218 145.416 2566.926 145.101 C 2567.634 144.787 2568.023 144.507 2568.665 144.3 C 2569.307 144.094 2569.573 144.016 2570.065 143.86 C 2570.556 143.705 2571.038 143.484 2571.592 143.374 C 2572.146 143.264 2572.751 143.113 2573.391 143.053 C 2574.03 142.994 2574.773 142.791 2575.274 142.81 C 2575.775 142.83 2576.94 142.804 2577.777 142.81 C 2578.613 142.817 2579.212 142.941 2579.982 143.053 C 2580.753 143.166 2581.38 143.249 2582.146 143.374 C 2582.912 143.498 2583.836 143.745 2584.742 143.986 C 2585.648 144.227 2585.908 144.266 2586.515 144.495 C 2587.122 144.725 2587.895 145.018 2588.627 145.411 C 2589.36 145.804 2589.842 146.143 2590.446 146.506 C 2591.05 146.869 2591.353 147.038 2591.826 147.354 C 2592.299 147.671 2592.759 147.975 2593.217 148.373 C 2593.676 148.77 2594.201 149.264 2594.669 149.738 Q 2595.137 150.213 2595.94 151.13 L 2597.001 152.445 Q 2597.864 153.564 2598.273 154.209 C 2598.683 154.855 2598.921 155.329 2599.249 155.949 C 2599.577 156.568 2599.902 157.202 2600.216 157.9 C 2600.53 158.598 2600.738 159.137 2600.997 159.817 Q 2601.256 160.497 2601.794 162.082 Q 2602.047 163.267 2602.151 163.94 C 2602.254 164.614 2602.363 165.589 2602.352 166.375 C 2602.341 167.161 2602.382 168.051 2602.352 168.852 C 2602.322 169.654 2602.318 170.081 2602.352 170.515 C 2602.386 170.949 2602.192 171.555 2602.151 172.67 L 2601.794 174.876 L 2601.285 177.379 L 2600.607 179.415 L 2599.758 181.417 L 2598.867 183.326 Q 2598.234 184.613 2597.892 185.311 C 2597.55 186.009 2597.339 186.507 2597.001 187.135 C 2596.663 187.763 2596.308 188.293 2595.94 188.925 C 2595.573 189.557 2595.386 190.027 2594.999 190.571 C 2594.612 191.115 2594.187 191.568 2593.719 192.14 C 2593.252 192.713 2592.889 193.202 2592.42 193.71 Q 2591.951 194.217 2591.156 194.855 L 2589.552 196.348 L 2588.28 197.553 L 2586.515 198.919 L 2584.742 200.098 L 2582.935 201.201 L 2581.153 202.092 L 2579.236 203.025 L 2577.777 203.576 L 2575.893 204.298 Q 2574.68 204.703 2574.027 204.853 Q 2573.374 205.003 2571.592 205.316 L 2569.318 205.74 L 2566.926 205.994 L 2564.567 205.994 L 2561.445 205.994 L 2558.459 205.74 L 2554.896 204.976 Q 2553.09 204.599 2552.139 204.298 C 2551.187 203.996 2550.012 203.468 2549 203.025 C 2547.987 202.582 2546.422 202.027 2545.021 201.201 C 2543.619 200.375 2543.145 200.095 2542.365 199.565 C 2541.586 199.035 2540.864 198.666 2540.007 198.087 C 2539.15 197.509 2538.903 197.177 2538.353 196.764 Q 2537.803 196.351 2536.741 195.305 L 2535.375 193.867 Q 2534.175 192.553 2533.585 191.852 Q 2532.994 191.151 2532.193 189.884 L 2530.811 187.839 L 2529.445 185.311 L 2528.605 183.597 L 2527.714 181.612 L 2526.772 179.143 L 2526.017 176.844 Q 2525.635 175.579 2525.508 174.876 Q 2525.381 174.172 2525.296 172.093 L 2525.296 168.852 L 2525.296 165.518 L 2525.508 161.777 L 2525.763 158.977 L 2526.526 155.711 L 2527.417 152.75 L 2528.432 149.738 Q 2529.071 148.184 2529.445 147.354 Q 2529.818 146.525 2530.581 144.971 L 2531.718 142.604 Q 2532.566 140.968 2533.127 140.143 C 2533.687 139.319 2533.896 138.816 2534.349 138.192 C 2534.803 137.568 2535.293 137.121 2535.79 136.461 Q 2536.288 135.802 2537.089 134.883 Q 2537.863 133.747 2538.353 133.187 C 2538.842 132.626 2539.323 132.004 2540.007 131.397 C 2540.691 130.789 2541.135 130.397 2541.695 129.878 C 2542.256 129.359 2543.001 128.675 2543.731 128.105 C 2544.462 127.535 2545.048 127.141 2545.802 126.657 C 2546.557 126.173 2546.907 125.811 2547.544 125.392 C 2548.181 124.973 2549.076 124.458 2549.924 123.984 C 2550.773 123.511 2550.984 123.43 2551.613 123.082 C 2552.241 122.735 2552.976 122.527 2553.7 122.192 C 2554.423 121.856 2555.176 121.39 2556.007 121.021 Q 2556.839 120.652 2558.239 120.156 L 2560.512 119.485 L 2562.404 118.883 L 2564.287 118.416 L 2566.095 118.001 L 2568.08 117.653 Q 2569.476 117.401 2570.243 117.356 C 2571.01 117.311 2571.391 117.219 2572.016 117.189 C 2572.641 117.159 2573.205 117.168 2573.849 117.189 Q 2574.493 117.21 2576.139 117.356 Q 2577.537 117.455 2578.363 117.499 Q 2579.188 117.544 2580.212 117.653 L 2582.485 118.001 L 2584.352 118.416 L 2587.134 118.883 L 2589.849 119.731 L 2592.42 120.58 L 2594.532 121.343 L 2596.738 122.192 Q 2598.128 122.925 2598.867 123.345 C 2599.607 123.766 2600.289 124.193 2600.997 124.618 C 2601.705 125.043 2602.072 125.36 2602.71 125.755 C 2603.349 126.15 2603.936 126.42 2604.535 126.824 C 2605.133 127.227 2605.497 127.662 2606.028 128.105 C 2606.559 128.547 2607.205 129.008 2607.809 129.539 C 2608.413 130.069 2608.694 130.41 2609.243 130.896 C 2609.792 131.382 2610.624 131.872 2611.16 132.436 C 2611.697 133 2612.038 133.4 2612.774 134.086 C 2613.511 134.772 2614.149 135.504 2614.511 136.082 C 2614.874 136.659 2615.261 137.008 2615.709 137.494 C 2616.158 137.981 2616.406 138.533 2616.861 139.083 Q 2617.317 139.632 2618.117 141.339 Q 2618.765 142.661 2619.121 143.374 C 2619.478 144.087 2619.861 144.866 2620.314 145.726 Q 2620.767 146.585 2621.205 147.575 L 2622.121 150.069 L 2622.775 152.156 L 2623.564 154.651 L 2624.2 156.653 L 2624.667 159.155 L 2625.091 161.531 L 2625.43 163.94 L 2625.43 166.528 L 2625.43 168.852 Q 2625.491 170.557 2625.43 171.491 C 2625.369 172.424 2625.358 173.661 2625.316 174.63 Q 2625.273 175.598 2625.091 177.379 Q 2624.882 179.398 2624.667 180.475 C 2624.451 181.553 2624.378 182.12 2624.2 182.93 C 2624.022 183.74 2623.917 184.267 2623.717 184.98 C 2623.516 185.693 2623.302 186 2623.12 186.819 C 2622.939 187.638 2622.688 187.88 2622.543 188.518 C 2622.398 189.155 2622.129 189.826 2621.875 190.571 C 2621.62 191.316 2621.245 191.999 2620.968 192.734 C 2620.69 193.47 2620.339 194.103 2619.966 194.855 C 2619.593 195.608 2619.252 196.226 2618.957 196.764 Q 2618.661 197.302 2617.778 198.919 L 2616.59 200.734 L 2615.572 202.414 L 2614.511 204.298 L 2612.9 206.486 L 2611.754 208.166 L 2610.397 209.837 L 2608.87 211.56 L 2607.258 213.129 L 2605.688 214.758 L 2604.017 216.54 L 2602.151 218.304 L 2600.607 219.679 L 2598.867 220.968 Q 2597.517 222.02 2596.738 222.521 Q 2595.958 223.021 2594.32 223.87 Q 2593.109 224.676 2592.42 225.057 C 2591.73 225.439 2591.076 225.878 2590.307 226.27 C 2589.539 226.663 2588.658 227.13 2587.897 227.535 Q 2587.136 227.939 2586.031 228.392 Q 2584.463 228.963 2583.673 229.282 C 2582.883 229.602 2582.334 229.892 2581.527 230.169 Q 2580.719 230.446 2578.718 231.021 Q 2576.681 231.653 2575.579 231.925 C 2574.477 232.197 2574.239 232.336 2573.391 232.498 Q 2572.542 232.66 2571.083 232.845 L 2568.665 233.1 L 2566.095 233.312 Q 2564.102 233.389 2563.023 233.443 Q 2561.945 233.496 2560.3 233.567 L 2557.882 233.567 L 2554.361 233.567 Q 2552.314 233.465 2551.214 233.312 C 2550.114 233.159 2548.751 232.928 2547.413 232.655 C 2546.076 232.383 2545.017 232.076 2543.731 231.785 Q 2542.445 231.494 2540.694 231.021 Q 2538.953 230.518 2537.996 230.169 C 2537.039 229.82 2535.801 229.323 2534.654 228.858 Q 2533.507 228.394 2532.193 227.713 L 2529.445 226.372 Q 2528.01 225.742 2527.205 225.312 Q 2526.4 224.882 2524.728 223.87 L 2522.395 222.258 Q 2520.76 221.191 2519.928 220.596 C 2519.096 220.001 2518.218 219.426 2517.347 218.72 Q 2516.475 218.014 2515.37 217.159 Q 2514.366 216.222 2513.758 215.666 Q 2513.15 215.109 2511.705 213.653 L 2509.881 211.789 L 2508.099 209.837 Q 2506.988 208.66 2506.445 207.971 C 2505.902 207.282 2505.27 206.258 2504.655 205.316 Q 2504.04 204.373 2503.052 202.779 L 2501.804 200.327 L 2500.54 197.807 L 2499.48 195.305 L 2498.462 193.167 Q 2497.762 191.72 2497.444 190.91 C 2497.125 190.1 2496.758 189.472 2496.459 188.637 C 2496.16 187.802 2495.797 186.816 2495.433 185.798 C 2495.069 184.78 2494.71 183.829 2494.402 182.766 C 2494.094 181.703 2493.963 180.987 2493.753 179.99 C 2493.544 178.993 2493.274 177.71 2493.123 176.511 C 2492.971 175.312 2492.892 173.875 2492.741 172.431 C 2492.59 170.987 2492.518 169.705 2492.517 168.225 Q 2492.515 166.744 2492.741 163.94 Q 2492.891 161.65 2493.004 160.411 Q 2493.116 159.172 2493.753 154.939 Q 2494.094 152.125 2494.402 150.621 C 2494.709 149.117 2495.136 147.775 2495.535 146.285 C 2495.934 144.794 2496.346 143.485 2496.907 142.01 C 2497.468 140.535 2497.542 140.022 2497.981 138.994 C 2498.42 137.967 2498.826 136.97 2499.293 135.881 C 2499.76 134.793 2500.425 133.59 2501.041 132.338 C 2501.657 131.087 2502.035 130.345 2502.695 129.329 C 2503.355 128.313 2503.768 127.566 2504.419 126.657 C 2505.07 125.748 2505.941 124.543 2506.757 123.345 C 2507.573 122.148 2507.996 121.448 2508.737 120.477 C 2509.478 119.506 2509.739 119.164 2510.336 118.416 C 2510.933 117.669 2511.61 116.763 2512.316 115.956 C 2513.022 115.149 2513.551 114.425 2514.316 113.681 Q 2515.081 112.938 2516.201 111.844 Q 2517.678 110.572 2518.492 109.888 C 2519.305 109.203 2519.808 108.879 2520.52 108.253 C 2521.231 107.627 2522.047 106.946 2522.819 106.259 C 2523.591 105.572 2524.392 104.843 2525.296 104.138 C 2526.2 103.433 2527.105 102.811 2528.121 102.144 C 2529.137 101.478 2530.235 100.796 2531.43 100.151 C 2532.625 99.506 2533.003 99.38 2533.848 98.946 C 2534.692 98.512 2535.608 98.01 2536.563 97.504 C 2537.517 96.998 2537.923 96.768 2538.7 96.373 C 2539.478 95.978 2540.647 95.46 2541.695 95.018 C 2542.744 94.576 2543.158 94.372 2543.986 94.035 C 2544.814 93.697 2546.205 93.214 2547.413 92.855 C 2548.622 92.495 2549.821 92.146 2551.214 91.773 C 2552.607 91.399 2553.492 91.251 2554.641 90.963 C 2555.791 90.675 2556.609 90.537 2557.679 90.327 C 2558.749 90.116 2559.784 89.929 2560.928 89.733 C 2562.072 89.537 2563.097 89.315 2564.287 89.196 C 2565.478 89.077 2566.499 89.119 2567.554 89.054 C 2568.608 88.989 2569.496 89.053 2571.083 89.054 C 2572.67 89.055 2573.996 88.998 2575.579 89.054 C 2577.163 89.11 2578.154 89.246 2579.541 89.393 C 2580.928 89.54 2581.746 89.575 2582.786 89.733 C 2583.827 89.891 2584.83 89.994 2586.031 90.198 C 2587.232 90.402 2587.788 90.579 2588.806 90.77 C 2589.823 90.962 2590.775 91.206 2591.826 91.429 C 2592.877 91.653 2594.386 92.114 2595.745 92.575 Q 2597.105 93.035 2599.249 93.915 Q 2601.91 95.041 2603.313 95.629 C 2604.715 96.217 2605.874 96.841 2607.258 97.504 C 2608.642 98.167 2608.943 98.254 2609.816 98.735 C 2610.689 99.217 2611.706 99.923 2612.774 100.501 C 2613.843 101.079 2614.606 101.54 2615.572 102.144 C 2616.538 102.749 2617.36 103.262 2618.262 103.952 C 2619.165 104.641 2619.994 105.477 2620.968 106.259 C 2621.941 107.041 2622.662 107.7 2623.564 108.499 C 2624.466 109.298 2625.084 109.852 2625.874 110.594 C 2626.664 111.336 2627.035 111.807 2627.712 112.444 C 2628.39 113.081 2629.271 114.022 2630.088 114.904 C 2630.904 115.786 2631.537 116.464 2632.268 117.356 C 2632.999 118.247 2633.636 119.17 2634.372 120.156 C 2635.108 121.141 2635.506 121.67 2636.111 122.497 C 2636.716 123.325 2637.136 123.849 2637.638 124.618 C 2638.141 125.387 2638.553 126.189 2639.055 127.036 Q 2639.557 127.883 2641.134 130.48 L 2642.449 133 Q 2643.465 134.974 2643.933 135.986 C 2644.401 136.998 2644.558 137.677 2645.036 138.642 Q 2645.515 139.607 2646.181 141.339 Q 2646.755 143.062 2647.014 143.986 C 2647.273 144.911 2647.632 145.868 2647.945 146.888 C 2648.258 147.907 2648.474 148.926 2648.726 150.069 C 2648.979 151.212 2648.983 151.609 2649.108 152.445 Q 2649.233 153.281 2649.575 155.949 L 2649.957 159.155 Q 2650.31 161.698 2650.381 163.075 C 2650.451 164.452 2650.502 165.952 2650.381 167.512 C 2650.26 169.072 2650.339 168.624 2650.169 169.2 C 2649.999 169.776 2649.898 170.117 2649.575 170.515 C 2649.252 170.913 2649.072 171.038 2648.726 171.219 C 2648.381 171.4 2647.693 171.551 2647.115 171.491 C 2646.536 171.431 2646.188 171.34 2645.715 171.114 C 2645.242 170.888 2644.903 170.691 2644.612 170.337 C 2644.321 169.983 2644.334 169.648 2644.194 169.2 Z " fill="rgb(233,181,50)" vector-effect="non-scaling-stroke" stroke-width="2" stroke="rgb(233,181,50)" stroke-linejoin="miter" stroke-linecap="square" stroke-miterlimit="3"/></g></svg>