<?xml version="1.0" encoding="UTF-8" standalone="no"?><!-- Generator: Gravit.io --><svg xmlns="http://www.w3.org/2000/svg" xmlns:xlink="http://www.w3.org/1999/xlink" style="isolation:isolate" viewBox="0 0 3000 465" width="3000pt" height="465pt"><defs><clipPath id="_clipPath_qXAhfpk47LdTkfZ9jiiDw9Jz4UvcPyg6"><rect width="3000" height="465"/></clipPath></defs><g clip-path="url(#_clipPath_qXAhfpk47LdTkfZ9jiiDw9Jz4UvcPyg6)"><rect x="0" y="0" width="3000" height="465" transform="matrix(1,0,0,1,0,0)" fill="rgb(13,16,23)"/><g><path d=" M 2554.181 35.143 Q 2554.308 35.908 2581.181 98.018 Q 2581.726 98.998 2582.181 99.393 C 2582.636 99.788 2582.815 99.823 2583.181 100.018 C 2583.547 100.213 2584.118 100.53 2584.681 100.643 C 2585.245 100.756 2585.495 100.769 2586.056 100.643 C 2586.618 100.517 2587.23 100.301 2587.681 100.018 C 2588.132 99.735 2588.719 99.397 2589.181 98.849 C 2589.644 98.301 2590.004 97.762 2590.181 97.143 C 2590.358 96.524 2590.337 96.868 2590.369 95.787 Q 2590.4 94.705 2590.181 94.018 L 2563.181 31.107 Q 2562.149 29.553 2561.306 29.018 Q 2560.463 28.482 2559.306 28.268 Q 2558.409 28.184 2557.931 28.268 C 2557.453 28.352 2556.68 28.725 2556.214 29.018 C 2555.748 29.311 2555.51 29.633 2555.181 30.018 C 2554.853 30.403 2554.426 30.929 2554.181 31.518 C 2553.937 32.107 2553.878 32.441 2553.837 32.963 C 2553.797 33.486 2554.054 34.378 2554.181 35.143 Z " fill="rgb(247,145,35)" vector-effect="non-scaling-stroke" stroke-width="5" stroke="rgb(247,145,35)" stroke-linejoin="miter" stroke-linecap="square" stroke-miterlimit="3"/><path d=" M 2486.506 82.877 Q 2486.911 83.538 2535.219 130.933 Q 2536.093 131.635 2536.663 131.829 C 2537.233 132.024 2537.413 131.988 2537.825 132.031 C 2538.238 132.074 2538.886 132.152 2539.45 132.044 C 2540.014 131.936 2540.251 131.855 2540.724 131.526 C 2541.196 131.197 2541.682 130.766 2541.993 130.334 C 2542.304 129.902 2542.72 129.368 2542.942 128.686 C 2543.163 128.005 2543.294 127.369 2543.225 126.729 C 2543.155 126.089 2543.266 126.415 2542.887 125.402 Q 2542.508 124.389 2542.046 123.835 L 2493.32 75.746 Q 2491.778 74.696 2490.796 74.518 Q 2489.813 74.34 2488.66 74.577 Q 2487.798 74.838 2487.387 75.096 C 2486.976 75.354 2486.4 75.991 2486.079 76.438 C 2485.758 76.885 2485.659 77.273 2485.5 77.753 C 2485.34 78.234 2485.143 78.882 2485.139 79.52 C 2485.135 80.157 2485.206 80.489 2485.365 80.988 C 2485.525 81.487 2486.1 82.217 2486.506 82.877 Z " fill="rgb(247,145,35)" vector-effect="non-scaling-stroke" stroke-width="5" stroke="rgb(247,145,35)" stroke-linejoin="miter" stroke-linecap="square" stroke-miterlimit="3"/><path d=" M 2440.893 156.014 Q 2441.519 156.472 2504.189 182.011 Q 2505.265 182.329 2505.866 182.293 C 2506.468 182.257 2506.62 182.156 2507.018 182.039 C 2507.416 181.922 2508.045 181.749 2508.526 181.435 C 2509.008 181.121 2509.196 180.956 2509.508 180.473 C 2509.821 179.989 2510.107 179.407 2510.231 178.889 C 2510.355 178.371 2510.537 177.719 2510.484 177.004 C 2510.431 176.289 2510.311 175.651 2510.004 175.086 C 2509.697 174.52 2509.923 174.78 2509.188 173.986 Q 2508.454 173.192 2507.816 172.854 L 2444.495 146.832 Q 2442.67 146.445 2441.693 146.652 Q 2440.716 146.86 2439.74 147.517 Q 2439.041 148.085 2438.758 148.48 C 2438.475 148.874 2438.184 149.682 2438.057 150.217 C 2437.929 150.753 2437.985 151.15 2438.019 151.654 C 2438.054 152.159 2438.118 152.834 2438.355 153.426 C 2438.593 154.017 2438.785 154.297 2439.122 154.698 C 2439.459 155.1 2440.267 155.557 2440.893 156.014 Z " fill="rgb(247,145,35)" vector-effect="non-scaling-stroke" stroke-width="5" stroke="rgb(247,145,35)" stroke-linejoin="miter" stroke-linecap="square" stroke-miterlimit="3"/><path d=" M 2426.903 236.725 Q 2427.656 236.908 2495.33 236.517 Q 2496.445 236.399 2496.986 236.135 C 2497.528 235.872 2497.63 235.72 2497.953 235.46 C 2498.276 235.2 2498.791 234.799 2499.116 234.325 C 2499.44 233.851 2499.551 233.626 2499.655 233.06 C 2499.758 232.494 2499.8 231.846 2499.716 231.32 C 2499.632 230.794 2499.551 230.122 2499.229 229.482 C 2498.906 228.842 2498.551 228.299 2498.051 227.893 C 2497.55 227.488 2497.859 227.642 2496.876 227.19 Q 2495.894 226.737 2495.175 226.669 L 2426.716 226.863 Q 2424.882 227.204 2424.059 227.769 Q 2423.236 228.335 2422.585 229.316 Q 2422.157 230.108 2422.047 230.581 C 2421.936 231.054 2421.977 231.911 2422.064 232.455 C 2422.151 232.998 2422.354 233.344 2422.579 233.797 C 2422.804 234.25 2423.122 234.849 2423.568 235.304 C 2424.013 235.76 2424.298 235.945 2424.763 236.187 C 2425.228 236.429 2426.149 236.541 2426.903 236.725 Z " fill="rgb(247,145,35)" vector-effect="non-scaling-stroke" stroke-width="5" stroke="rgb(247,145,35)" stroke-linejoin="miter" stroke-linecap="square" stroke-miterlimit="3"/><path d=" M 2446.606 319.62 Q 2447.373 319.502 2509.792 293.355 Q 2510.778 292.822 2511.179 292.371 C 2511.579 291.921 2511.616 291.742 2511.815 291.379 C 2512.014 291.015 2512.338 290.448 2512.458 289.886 C 2512.577 289.324 2512.593 289.074 2512.474 288.511 C 2512.354 287.948 2512.145 287.333 2511.868 286.879 C 2511.59 286.425 2511.259 285.834 2510.716 285.366 C 2510.174 284.897 2509.639 284.53 2509.022 284.346 C 2508.405 284.162 2508.749 284.186 2507.668 284.142 Q 2506.587 284.099 2505.897 284.309 L 2442.676 310.574 Q 2441.11 311.587 2440.565 312.424 Q 2440.02 313.261 2439.792 314.415 Q 2439.697 315.311 2439.775 315.79 C 2439.854 316.269 2440.218 317.046 2440.505 317.516 C 2440.793 317.985 2441.112 318.227 2441.493 318.56 C 2441.874 318.893 2442.396 319.326 2442.982 319.578 C 2443.567 319.829 2443.901 319.892 2444.423 319.938 C 2444.945 319.985 2445.84 319.738 2446.606 319.62 Z " fill="rgb(247,145,35)" vector-effect="non-scaling-stroke" stroke-width="5" stroke="rgb(247,145,35)" stroke-linejoin="miter" stroke-linecap="square" stroke-miterlimit="3"/><path d=" M 2493.519 387.87 Q 2494.186 387.475 2542.351 339.935 Q 2543.067 339.072 2543.271 338.505 C 2543.474 337.938 2543.442 337.759 2543.491 337.347 C 2543.54 336.935 2543.63 336.288 2543.531 335.722 C 2543.432 335.156 2543.354 334.918 2543.033 334.441 C 2542.712 333.963 2542.289 333.47 2541.862 333.152 C 2541.435 332.835 2540.907 332.41 2540.229 332.177 C 2539.551 331.945 2538.917 331.804 2538.277 331.863 C 2537.636 331.922 2537.964 331.817 2536.944 332.179 Q 2535.925 332.542 2535.364 332.994 L 2486.498 380.942 Q 2485.424 382.466 2485.23 383.446 Q 2485.036 384.426 2485.255 385.582 Q 2485.501 386.448 2485.753 386.864 C 2486.004 387.279 2486.632 387.864 2487.074 388.193 C 2487.516 388.521 2487.902 388.626 2488.38 388.793 C 2488.857 388.96 2489.503 389.168 2490.14 389.182 C 2490.777 389.197 2491.11 389.131 2491.612 388.979 C 2492.113 388.828 2492.852 388.265 2493.519 387.87 Z " fill="rgb(247,145,35)" vector-effect="non-scaling-stroke" stroke-width="5" stroke="rgb(247,145,35)" stroke-linejoin="miter" stroke-linecap="square" stroke-miterlimit="3"/><path d=" M 2567.307 433.608 Q 2567.759 432.977 2592.728 370.078 Q 2593.037 369 2592.995 368.399 C 2592.953 367.798 2592.851 367.646 2592.731 367.25 C 2592.61 366.853 2592.432 366.225 2592.113 365.746 C 2591.795 365.268 2591.628 365.082 2591.142 364.773 C 2590.656 364.465 2590.07 364.184 2589.552 364.065 C 2589.033 363.946 2588.379 363.769 2587.665 363.829 C 2586.95 363.889 2586.314 364.015 2585.751 364.327 C 2585.188 364.639 2585.446 364.411 2584.658 365.152 Q 2583.871 365.894 2583.539 366.535 L 2558.092 430.09 Q 2557.721 431.918 2557.938 432.892 Q 2558.155 433.867 2558.82 434.838 Q 2559.395 435.532 2559.792 435.811 C 2560.189 436.09 2560.999 436.373 2561.536 436.496 C 2562.073 436.619 2562.469 436.56 2562.973 436.521 C 2563.478 436.481 2564.152 436.412 2564.741 436.169 C 2565.331 435.926 2565.609 435.731 2566.007 435.391 C 2566.405 435.05 2566.855 434.238 2567.307 433.608 Z " fill="rgb(247,145,35)" vector-effect="non-scaling-stroke" stroke-width="5" stroke="rgb(247,145,35)" stroke-linejoin="miter" stroke-linecap="square" stroke-miterlimit="3"/><path d=" M 2731.799 427.921 Q 2731.672 427.156 2704.799 365.046 Q 2704.253 364.066 2703.799 363.671 C 2703.344 363.276 2703.165 363.241 2702.799 363.046 C 2702.433 362.851 2701.862 362.533 2701.299 362.421 C 2700.735 362.308 2700.485 362.294 2699.924 362.421 C 2699.362 362.547 2698.749 362.763 2698.299 363.046 C 2697.848 363.329 2697.261 363.667 2696.799 364.215 C 2696.336 364.762 2695.975 365.302 2695.799 365.921 C 2695.622 366.54 2695.642 366.196 2695.611 367.277 Q 2695.58 368.358 2695.799 369.046 L 2722.799 431.957 Q 2723.831 433.51 2724.674 434.046 Q 2725.517 434.581 2726.674 434.796 Q 2727.57 434.88 2728.049 434.796 C 2728.527 434.712 2729.3 434.339 2729.766 434.046 C 2730.232 433.753 2730.47 433.43 2730.799 433.046 C 2731.127 432.661 2731.554 432.134 2731.799 431.546 C 2732.043 430.957 2732.102 430.623 2732.142 430.1 C 2732.183 429.578 2731.925 428.686 2731.799 427.921 Z " fill="rgb(247,145,35)" vector-effect="non-scaling-stroke" stroke-width="5" stroke="rgb(247,145,35)" stroke-linejoin="miter" stroke-linecap="square" stroke-miterlimit="3"/><path d=" M 2799.474 380.186 Q 2799.068 379.526 2750.761 332.131 Q 2749.887 331.429 2749.317 331.235 C 2748.746 331.04 2748.567 331.075 2748.155 331.033 C 2747.742 330.99 2747.094 330.911 2746.53 331.019 C 2745.965 331.127 2745.729 331.209 2745.256 331.538 C 2744.784 331.867 2744.298 332.297 2743.987 332.729 C 2743.676 333.161 2743.26 333.696 2743.038 334.377 C 2742.816 335.059 2742.686 335.695 2742.755 336.335 C 2742.825 336.975 2742.714 336.648 2743.093 337.662 Q 2743.472 338.675 2743.933 339.229 L 2792.66 387.318 Q 2794.201 388.368 2795.184 388.546 Q 2796.167 388.724 2797.319 388.486 Q 2798.182 388.226 2798.593 387.968 C 2799.004 387.71 2799.579 387.073 2799.901 386.626 C 2800.222 386.179 2800.321 385.79 2800.48 385.31 C 2800.639 384.83 2800.836 384.181 2800.841 383.544 C 2800.845 382.906 2800.774 382.575 2800.614 382.076 C 2800.455 381.576 2799.88 380.847 2799.474 380.186 Z " fill="rgb(247,145,35)" vector-effect="non-scaling-stroke" stroke-width="5" stroke="rgb(247,145,35)" stroke-linejoin="miter" stroke-linecap="square" stroke-miterlimit="3"/><path d=" M 2845.087 307.05 Q 2844.461 306.592 2781.79 281.053 Q 2780.715 280.735 2780.114 280.771 C 2779.512 280.807 2779.36 280.908 2778.962 281.025 C 2778.564 281.141 2777.935 281.314 2777.453 281.628 C 2776.972 281.942 2776.784 282.108 2776.471 282.591 C 2776.159 283.074 2775.872 283.657 2775.749 284.175 C 2775.625 284.693 2775.442 285.345 2775.496 286.059 C 2775.549 286.774 2775.669 287.412 2775.976 287.978 C 2776.283 288.544 2776.057 288.284 2776.792 289.078 Q 2777.526 289.872 2778.164 290.209 L 2841.485 316.232 Q 2843.31 316.619 2844.287 316.411 Q 2845.263 316.203 2846.24 315.547 Q 2846.939 314.979 2847.222 314.584 C 2847.504 314.189 2847.795 313.382 2847.923 312.846 C 2848.05 312.311 2847.995 311.914 2847.96 311.409 C 2847.926 310.905 2847.862 310.23 2847.624 309.638 C 2847.387 309.047 2847.195 308.767 2846.858 308.365 C 2846.521 307.964 2845.713 307.507 2845.087 307.05 Z " fill="rgb(247,145,35)" vector-effect="non-scaling-stroke" stroke-width="5" stroke="rgb(247,145,35)" stroke-linejoin="miter" stroke-linecap="square" stroke-miterlimit="3"/><path d=" M 2859.077 226.339 Q 2858.324 226.156 2790.65 226.547 Q 2789.535 226.665 2788.993 226.928 C 2788.452 227.192 2788.349 227.343 2788.027 227.603 C 2787.704 227.864 2787.188 228.264 2786.864 228.739 C 2786.539 229.213 2786.429 229.438 2786.325 230.004 C 2786.221 230.57 2786.18 231.218 2786.263 231.744 C 2786.347 232.269 2786.428 232.942 2786.751 233.582 C 2787.074 234.222 2787.429 234.765 2787.929 235.17 C 2788.429 235.575 2788.121 235.422 2789.104 235.874 Q 2790.086 236.326 2790.804 236.395 L 2859.264 236.201 Q 2861.098 235.86 2861.921 235.294 Q 2862.744 234.728 2863.394 233.748 Q 2863.823 232.956 2863.933 232.483 C 2864.043 232.01 2864.003 231.153 2863.916 230.609 C 2863.829 230.065 2863.626 229.72 2863.4 229.267 C 2863.175 228.814 2862.858 228.215 2862.412 227.759 C 2861.966 227.304 2861.682 227.119 2861.217 226.877 C 2860.752 226.635 2859.83 226.522 2859.077 226.339 Z " fill="rgb(247,145,35)" vector-effect="non-scaling-stroke" stroke-width="5" stroke="rgb(247,145,35)" stroke-linejoin="miter" stroke-linecap="square" stroke-miterlimit="3"/><path d=" M 2839.373 143.444 Q 2838.607 143.561 2776.188 169.708 Q 2775.202 170.242 2774.801 170.692 C 2774.401 171.143 2774.364 171.321 2774.165 171.685 C 2773.965 172.049 2773.641 172.615 2773.522 173.177 C 2773.403 173.74 2773.386 173.989 2773.506 174.552 C 2773.626 175.115 2773.834 175.731 2774.112 176.185 C 2774.39 176.639 2774.721 177.229 2775.263 177.698 C 2775.806 178.167 2776.341 178.534 2776.958 178.718 C 2777.575 178.902 2777.231 178.877 2778.312 178.921 Q 2779.393 178.965 2780.083 178.754 L 2843.304 152.49 Q 2844.87 151.476 2845.415 150.64 Q 2845.96 149.803 2846.188 148.648 Q 2846.283 147.753 2846.204 147.274 C 2846.126 146.794 2845.762 146.017 2845.474 145.548 C 2845.187 145.078 2844.867 144.836 2844.486 144.503 C 2844.106 144.17 2843.584 143.737 2842.998 143.486 C 2842.412 143.235 2842.079 143.172 2841.557 143.125 C 2841.035 143.079 2840.14 143.326 2839.373 143.444 Z " fill="rgb(247,145,35)" vector-effect="non-scaling-stroke" stroke-width="5" stroke="rgb(247,145,35)" stroke-linejoin="miter" stroke-linecap="square" stroke-miterlimit="3"/><path d=" M 2792.461 75.194 Q 2791.794 75.589 2743.629 123.128 Q 2742.913 123.991 2742.709 124.558 C 2742.506 125.125 2742.538 125.305 2742.489 125.717 C 2742.439 126.128 2742.35 126.775 2742.449 127.341 C 2742.548 127.907 2742.626 128.145 2742.947 128.623 C 2743.268 129.101 2743.691 129.594 2744.118 129.911 C 2744.545 130.229 2745.073 130.654 2745.751 130.886 C 2746.429 131.119 2747.062 131.26 2747.703 131.201 C 2748.344 131.141 2748.016 131.247 2749.035 130.884 Q 2750.054 130.522 2750.616 130.069 L 2799.482 82.122 Q 2800.556 80.597 2800.75 79.618 Q 2800.944 78.638 2800.725 77.482 Q 2800.478 76.615 2800.227 76.2 C 2799.976 75.785 2799.348 75.199 2798.906 74.871 C 2798.464 74.543 2798.078 74.437 2797.6 74.27 C 2797.122 74.103 2796.477 73.896 2795.84 73.881 C 2795.202 73.867 2794.87 73.933 2794.368 74.084 C 2793.866 74.236 2793.128 74.799 2792.461 75.194 Z " fill="rgb(247,145,35)" vector-effect="non-scaling-stroke" stroke-width="5" stroke="rgb(247,145,35)" stroke-linejoin="miter" stroke-linecap="square" stroke-miterlimit="3"/><path d=" M 2718.673 29.456 Q 2718.221 30.086 2693.251 92.986 Q 2692.943 94.064 2692.985 94.665 C 2693.026 95.266 2693.128 95.417 2693.249 95.814 C 2693.369 96.211 2693.548 96.839 2693.866 97.317 C 2694.185 97.796 2694.352 97.982 2694.838 98.29 C 2695.324 98.598 2695.909 98.88 2696.428 98.999 C 2696.947 99.118 2697.601 99.294 2698.315 99.235 C 2699.029 99.175 2699.666 99.049 2700.229 98.737 C 2700.792 98.425 2700.534 98.653 2701.321 97.911 Q 2702.109 97.17 2702.441 96.529 L 2727.888 32.974 Q 2728.258 31.146 2728.042 30.171 Q 2727.825 29.196 2727.159 28.226 Q 2726.585 27.532 2726.188 27.253 C 2725.791 26.974 2724.981 26.69 2724.444 26.567 C 2723.907 26.445 2723.511 26.504 2723.006 26.543 C 2722.502 26.582 2721.828 26.652 2721.238 26.895 C 2720.649 27.138 2720.371 27.332 2719.973 27.673 C 2719.574 28.013 2719.125 28.826 2718.673 29.456 Z " fill="rgb(247,145,35)" vector-effect="non-scaling-stroke" stroke-width="5" stroke="rgb(247,145,35)" stroke-linejoin="miter" stroke-linecap="square" stroke-miterlimit="3"/><path d=" M 2638.814 18.286 Q 2638.627 19.039 2638.614 86.713 Q 2638.725 87.829 2638.985 88.372 C 2639.246 88.916 2639.396 89.019 2639.654 89.343 C 2639.913 89.667 2640.31 90.185 2640.783 90.513 C 2641.255 90.84 2641.479 90.952 2642.045 91.059 C 2642.61 91.166 2643.258 91.212 2643.784 91.131 C 2644.31 91.05 2644.983 90.973 2645.625 90.654 C 2646.267 90.335 2646.812 89.983 2647.221 89.486 C 2647.629 88.988 2647.473 89.295 2647.931 88.316 Q 2648.39 87.336 2648.462 86.618 L 2648.677 18.158 Q 2648.347 16.322 2647.786 15.496 Q 2647.225 14.67 2646.249 14.013 Q 2645.459 13.58 2644.987 13.467 C 2644.515 13.354 2643.657 13.389 2643.113 13.473 C 2642.569 13.557 2642.222 13.758 2641.768 13.98 C 2641.314 14.203 2640.713 14.517 2640.255 14.96 C 2639.796 15.403 2639.61 15.686 2639.365 16.15 C 2639.12 16.613 2639.002 17.534 2638.814 18.286 Z " fill="rgb(247,145,35)" vector-effect="non-scaling-stroke" stroke-width="5" stroke="rgb(247,145,35)" stroke-linejoin="miter" stroke-linecap="square" stroke-miterlimit="3"/><path d=" M 2638.814 378.719 Q 2638.627 379.471 2638.614 447.146 Q 2638.725 448.262 2638.985 448.805 C 2639.246 449.348 2639.396 449.451 2639.654 449.776 C 2639.913 450.1 2640.31 450.618 2640.783 450.945 C 2641.255 451.272 2641.479 451.384 2642.045 451.491 C 2642.61 451.599 2643.258 451.644 2643.784 451.563 C 2644.31 451.483 2644.983 451.406 2645.625 451.087 C 2646.267 450.768 2646.812 450.416 2647.221 449.918 C 2647.629 449.421 2647.473 449.728 2647.931 448.748 Q 2648.39 447.768 2648.462 447.05 L 2648.677 378.591 Q 2648.347 376.755 2647.786 375.929 Q 2647.225 375.102 2646.249 374.446 Q 2645.459 374.012 2644.987 373.9 C 2644.515 373.787 2643.657 373.822 2643.113 373.906 C 2642.569 373.99 2642.222 374.191 2641.768 374.413 C 2641.314 374.636 2640.713 374.949 2640.255 375.392 C 2639.796 375.835 2639.61 376.119 2639.365 376.582 C 2639.12 377.046 2639.002 377.967 2638.814 378.719 Z " fill="rgb(247,145,35)" vector-effect="non-scaling-stroke" stroke-width="5" stroke="rgb(247,145,35)" stroke-linejoin="miter" stroke-linecap="square" stroke-miterlimit="3"/></g><path d=" M 2749.391 242.958 C 2749.184 242.298 2749.068 241.551 2749.006 240.471 C 2748.944 239.391 2749.018 237.952 2749.006 236.471 C 2748.994 234.989 2749.125 233.873 2749.006 232.471 C 2748.887 231.069 2748.867 230.04 2748.659 228.721 C 2748.452 227.401 2748.393 226.254 2748.237 224.908 C 2748.082 223.563 2747.767 222.516 2747.506 221.221 C 2747.246 219.926 2747.074 219.029 2746.819 217.846 C 2746.564 216.663 2746.366 215.517 2746.006 214.283 C 2745.646 213.05 2745.473 212.226 2745.108 211.096 C 2744.744 209.965 2744.264 208.883 2743.881 207.658 C 2743.498 206.434 2743.43 205.915 2743.069 204.905 C 2742.707 203.896 2742.087 202.584 2741.819 201.908 C 2741.551 201.233 2741.12 200.081 2740.528 198.453 C 2740.486 198.339 2740.474 198.302 2740.444 198.221 C 2740.414 198.139 2739.538 195.92 2738.944 194.721 Q 2738.349 193.522 2736.944 191.221 L 2735.319 188.283 L 2734.006 185.908 L 2731.819 182.408 L 2730.194 179.971 Q 2728.89 178.001 2728.131 176.971 Q 2727.372 175.941 2726.381 174.721 Q 2724.903 172.918 2724.069 171.971 Q 2723.234 171.023 2721.744 169.446 L 2719.369 167.008 L 2716.869 164.508 Q 2715.283 162.889 2714.369 162.071 C 2713.454 161.253 2712.744 160.737 2711.869 160.008 C 2710.993 159.28 2710.088 158.504 2709.119 157.696 Q 2708.149 156.887 2706.244 155.321 Q 2704.131 153.689 2702.931 152.883 C 2701.731 152.077 2700.472 151.36 2699.119 150.571 C 2697.765 149.782 2696.811 149.267 2695.556 148.571 C 2694.301 147.874 2693.498 147.419 2692.369 146.821 C 2691.24 146.222 2689.902 145.552 2688.556 144.883 C 2687.211 144.215 2686.748 143.957 2685.744 143.508 C 2684.739 143.059 2683.378 142.454 2682.119 141.912 C 2680.86 141.371 2679.79 141.008 2678.635 140.571 C 2677.48 140.133 2676.388 139.786 2675.021 139.446 Q 2673.654 139.106 2670.943 138.615 Q 2669.114 138.245 2668.119 138.071 C 2667.123 137.897 2664.709 137.612 2662.869 137.321 Q 2661.028 137.03 2659.869 136.821 Q 2658.169 136.52 2657.244 136.383 C 2656.319 136.246 2654.936 136.073 2653.681 135.946 Q 2652.426 135.819 2633.394 136.383 Q 2630.795 136.511 2629.394 136.646 C 2627.993 136.781 2627.644 136.69 2626.706 136.821 C 2625.768 136.952 2624.223 137.11 2623.069 137.321 C 2621.914 137.532 2620.722 137.79 2619.456 138.071 C 2618.191 138.352 2617.057 138.611 2615.769 138.946 C 2614.48 139.281 2613.568 139.524 2612.394 139.896 C 2611.219 140.268 2610.527 140.539 2609.519 140.896 C 2608.51 141.253 2607.389 141.6 2606.269 142.071 C 2605.149 142.541 2604.334 143.027 2603.269 143.508 C 2602.203 143.989 2601.152 144.381 2600.019 144.883 C 2598.885 145.386 2597.969 145.776 2596.894 146.333 C 2595.819 146.891 2594.974 147.404 2593.956 148.021 C 2592.938 148.637 2592.299 148.855 2591.433 149.33 C 2590.568 149.806 2589.612 150.364 2588.581 150.896 C 2587.55 151.428 2586.397 152.194 2585.206 152.883 C 2584.015 153.572 2583.318 153.905 2582.331 154.521 C 2581.345 155.136 2580.607 155.711 2579.544 156.608 C 2578.48 157.505 2577.932 157.897 2577.019 158.626 C 2576.105 159.355 2575.114 160.11 2574.376 160.735 C 2573.637 161.36 2572.669 162.16 2571.769 162.958 C 2570.868 163.757 2570.238 164.409 2569.456 165.083 C 2568.674 165.758 2567.796 166.642 2566.931 167.521 C 2566.066 168.4 2565.613 168.959 2564.869 169.708 C 2564.124 170.458 2563.495 171.359 2562.739 172.231 Q 2561.983 173.103 2560.181 175.396 Q 2558.983 177.112 2558.306 178.021 C 2557.629 178.93 2557.005 179.609 2556.369 180.521 C 2555.732 181.432 2555.121 182.489 2554.442 183.646 Q 2553.763 184.803 2552.744 186.521 L 2551.494 188.646 L 2549.994 191.221 Q 2549.116 193 2548.613 194.021 C 2548.11 195.042 2547.602 196.166 2547.056 197.271 C 2546.51 198.376 2546.167 199.357 2545.669 200.419 C 2545.171 201.481 2544.6 202.566 2544.119 203.771 C 2543.637 204.976 2543.438 205.76 2543.056 206.833 C 2542.674 207.906 2542.27 208.936 2541.869 210.083 C 2541.467 211.231 2541.191 211.923 2540.906 212.946 C 2540.621 213.969 2540.484 214.823 2540.253 215.883 Q 2540.022 216.943 2539.594 219.196 L 2539.031 221.946 L 2538.469 225.883 L 2538.031 231.35 Q 2537.727 236.402 2537.731 240.139 C 2537.735 243.876 2538.151 246.902 2538.469 250.559 C 2538.786 254.216 2538.713 254.383 2539.031 256.433 Q 2539.349 258.483 2540.021 261.246 L 2541.287 265.808 L 2542.791 269.871 L 2544.119 273.433 L 2545.92 277.371 L 2547.669 281.121 L 2549.419 283.871 L 2551.081 286.746 L 2553.019 289.683 L 2555.081 292.433 L 2557.206 295.246 L 2559.581 298.183 L 2561.769 300.371 L 2564.331 303.121 L 2566.644 305.371 L 2569.456 307.683 L 2571.769 309.621 Q 2573.505 311.063 2574.519 311.746 Q 2575.532 312.429 2577.769 313.621 L 2580.706 315.308 L 2583.669 316.883 L 2586.419 318.383 Q 2588.485 319.564 2589.669 320.071 C 2590.852 320.578 2591.611 320.769 2592.669 321.133 C 2593.726 321.498 2594.989 321.876 2596.231 322.321 C 2597.474 322.765 2598.235 323.156 2599.356 323.508 C 2600.477 323.861 2601.669 324.066 2602.919 324.383 Q 2604.168 324.7 2606.269 325.258 L 2609.519 326.133 Q 2611.755 326.632 2612.981 326.821 C 2614.207 327.009 2615.166 327.111 2616.356 327.196 Q 2617.547 327.281 2622.481 327.196 L 2626.706 327.196 L 2630.544 327.196 Q 2633.225 327.008 2634.669 326.821 Q 2636.112 326.633 2638.731 326.133 Q 2641.13 325.856 2642.419 325.633 Q 2643.707 325.411 2646.731 324.696 Q 2649.353 324.041 2650.833 323.508 C 2652.314 322.975 2653.444 322.383 2654.781 321.858 C 2656.118 321.334 2657.115 320.917 2658.216 320.471 C 2659.318 320.025 2660.178 319.701 2661.219 319.233 Q 2662.26 318.766 2664.406 317.671 Q 2666.628 316.596 2667.781 315.921 Q 2668.934 315.245 2671.244 313.621 Q 2673.203 312.335 2674.281 311.576 Q 2675.359 310.818 2676.906 309.621 L 2679.469 307.683 L 2682.119 305.371 L 2684.594 303.121 L 2686.656 301.046 Q 2688.331 299.559 2689.156 298.671 Q 2689.981 297.783 2691.219 296.171 L 2693.156 293.608 Q 2694.379 292.227 2694.969 291.421 C 2695.558 290.615 2695.806 290.115 2696.281 289.421 C 2696.756 288.727 2697.431 287.729 2698.048 286.746 C 2698.666 285.762 2699.283 284.67 2699.906 283.571 Q 2700.529 282.472 2701.594 280.758 L 2703.281 277.633 L 2704.469 274.946 L 2705.656 272.321 L 2706.906 269.383 L 2708.156 265.808 L 2709.119 262.946 Q 2709.789 260.776 2710.031 259.571 C 2710.273 258.366 2710.556 257.535 2710.712 256.433 C 2710.867 255.331 2711.054 254.176 2711.183 252.946 C 2711.312 251.716 2711.496 250.554 2711.661 249.125 C 2711.826 247.696 2711.772 246.496 2711.869 245.196 Q 2711.966 243.896 2711.869 236.946 L 2711.469 232.471 L 2710.969 229.133 Q 2710.659 226.535 2710.276 225.085 C 2709.892 223.635 2709.547 222.729 2709.119 221.521 Q 2708.691 220.313 2707.819 217.208 L 2706.244 213.771 C 2705.394 212.647 2705.079 211.427 2704.469 210.083 C 2703.858 208.739 2702.882 207.548 2702.069 206.271 C 2701.255 204.993 2699.849 203.4 2698.569 201.908 C 2697.288 200.417 2696.794 199.661 2695.781 198.453 Q 2694.768 197.245 2693.156 195.521 Q 2691.461 193.713 2690.377 192.657 C 2689.293 191.601 2688.238 190.857 2687.178 190.091 C 2686.118 189.324 2684.919 188.27 2683.631 187.454 Q 2682.344 186.638 2680.73 185.521 Q 2678.925 184.217 2678.006 183.646 C 2677.087 183.074 2675.165 182.336 2673.569 181.771 Q 2671.972 181.205 2669.319 180.521 L 2665.319 179.146 L 2659.869 178.021 L 2654.131 177.271 L 2649.506 176.971 L 2645.069 176.971 L 2641.006 177.271 Q 2636.64 177.557 2634.319 178.021 C 2631.997 178.485 2630.755 178.872 2628.881 179.521 Q 2627.007 180.17 2624.444 181.333 L 2620.444 183.083 Q 2617.889 184.616 2616.873 185.196 C 2615.856 185.776 2614.616 186.763 2612.981 187.833 C 2611.347 188.904 2610.719 189.273 2609.519 190.091 C 2608.318 190.908 2607.529 191.771 2606.431 192.657 C 2605.333 193.542 2604.827 194.172 2603.97 195.005 Q 2603.113 195.838 2601.369 197.583 L 2598.681 200.708 L 2596.556 203.333 Q 2594.725 205.505 2593.956 206.833 C 2593.187 208.162 2592.925 208.78 2592.467 209.722 C 2592.009 210.663 2591.433 211.94 2590.806 213.271 C 2590.18 214.602 2589.59 215.791 2589.056 217.208 C 2588.522 218.626 2588.451 218.875 2588.178 219.833 C 2587.905 220.792 2587.741 221.362 2587.545 222.208 C 2587.349 223.055 2587.037 224.245 2586.806 225.333 Q 2586.575 226.421 2585.744 229.133 Q 2585.083 231.468 2584.931 232.771 C 2584.779 234.074 2584.525 234.684 2584.369 236.145 C 2584.212 237.607 2584.236 238.584 2584.184 239.646 C 2584.132 240.708 2584.281 240.964 2584.184 242.446 C 2584.087 243.928 2584.258 244.954 2584.369 245.933 C 2584.479 246.913 2584.776 247.979 2584.931 248.883 Q 2585.086 249.788 2585.443 251.129 Q 2585.742 252.313 2585.935 252.946 Q 2586.129 253.578 2586.806 255.396 Q 2587.32 257.288 2587.719 258.271 Q 2588.117 259.254 2589.056 260.958 L 2590.406 263.771 Q 2591.331 265.383 2591.906 266.208 C 2592.481 267.034 2593.631 268.536 2594.531 269.67 C 2595.431 270.804 2595.775 271.151 2596.556 272.021 C 2597.338 272.891 2597.91 273.747 2598.681 274.446 C 2599.452 275.145 2600.272 275.649 2601.172 276.491 C 2602.071 277.333 2602.529 277.666 2603.269 278.271 C 2604.008 278.876 2604.586 279.207 2605.344 279.646 C 2606.101 280.084 2607.387 280.868 2608.469 281.421 C 2609.55 281.973 2610.758 282.593 2611.944 283.198 C 2613.129 283.804 2613.811 284.018 2614.969 284.458 Q 2616.127 284.899 2618.656 285.521 L 2622.219 286.271 L 2626.094 286.746 L 2631.156 286.746 L 2636.469 286.746 Q 2639.43 286.575 2641.006 286.271 C 2642.582 285.967 2642.945 285.848 2643.969 285.521 C 2644.992 285.194 2646.396 284.594 2647.508 284.084 C 2648.62 283.575 2650.13 282.936 2651.531 282.271 C 2652.932 281.606 2654.181 281.077 2655.531 280.271 Q 2656.881 279.464 2658.469 278.271 L 2661.219 275.958 Q 2663.24 274.271 2664.263 273.27 Q 2665.286 272.269 2667.281 269.871 L 2669.844 266.208 L 2671.781 262.946 Q 2673.005 260.789 2673.569 259.571 C 2674.133 258.352 2674.388 257.533 2674.844 256.433 C 2675.299 255.334 2675.852 254.364 2676.219 253.175 C 2676.586 251.986 2676.802 251.319 2677.053 250.222 C 2677.304 249.125 2677.539 247.924 2677.656 246.896 C 2677.774 245.868 2677.913 244.402 2678.006 242.958 C 2678.099 241.514 2678.089 240.808 2678.006 239.646 C 2677.924 238.484 2677.853 237.366 2677.656 236.145 C 2677.459 234.924 2677.391 234.186 2676.906 232.771 Q 2676.421 231.355 2675.906 230.521 L 2674.281 227.521 L 2672.531 224.908 L 2670.719 222.708 Q 2669.145 220.734 2668.119 219.833 Q 2667.093 218.933 2666.031 218.271 Q 2664.027 216.933 2662.869 216.333 C 2661.71 215.734 2661.181 215.489 2660.219 215.146 C 2659.256 214.803 2657.998 214.549 2656.781 214.283 Q 2655.564 214.018 2654.131 213.771 L 2651.531 213.771 L 2647.844 214.283 Q 2645.636 214.775 2644.469 215.146 C 2643.302 215.517 2642.427 215.879 2641.344 216.333 C 2640.26 216.788 2639.601 217.008 2638.731 217.521 C 2637.861 218.034 2637.252 218.591 2636.469 219.196 Q 2635.686 219.8 2633.969 221.221 Q 2632.39 222.339 2631.656 223.083 Q 2630.922 223.828 2630.156 224.908 Q 2628.887 226.566 2628.281 227.521 C 2627.676 228.475 2627.474 228.835 2627.131 229.508 C 2626.789 230.181 2626.65 231.17 2626.344 232.021 C 2626.037 232.871 2625.926 233.317 2625.781 234.208 C 2625.637 235.1 2625.634 235.965 2625.549 236.946 C 2625.464 237.926 2625.339 238.292 2625.219 239.021 C 2625.098 239.749 2625.104 239.955 2624.973 240.471 C 2624.841 240.987 2624.641 241.577 2624.444 242.146 C 2624.246 242.715 2623.917 243.393 2623.456 243.958 C 2622.995 244.524 2622.876 244.628 2622.481 244.896 C 2622.086 245.164 2621.195 245.472 2620.444 245.583 C 2619.692 245.695 2619.276 245.71 2618.656 245.583 Q 2618.037 245.457 2617.031 244.896 Q 2616.15 244.363 2615.769 243.958 C 2615.388 243.554 2614.816 242.453 2614.594 241.521 C 2614.371 240.589 2614.541 239.615 2614.594 238.583 Q 2614.647 237.552 2614.969 235.208 L 2615.769 232.021 L 2617.031 227.896 L 2618.219 225.333 L 2619.456 222.708 L 2620.719 220.396 L 2622.219 218.271 Q 2623.312 216.655 2624.031 215.883 Q 2624.751 215.112 2625.781 214.283 L 2628.281 212.271 Q 2629.568 211.189 2630.33 210.615 C 2631.092 210.04 2631.754 209.513 2632.594 209.021 C 2633.434 208.528 2634.5 207.914 2635.544 207.451 C 2636.587 206.987 2637.16 206.575 2638.106 206.271 C 2639.052 205.967 2639.444 205.852 2640.169 205.623 C 2640.893 205.393 2641.603 205.067 2642.419 204.905 C 2643.234 204.743 2644.126 204.521 2645.069 204.433 C 2646.011 204.346 2647.105 204.047 2647.844 204.076 C 2648.582 204.105 2650.299 204.067 2651.531 204.076 C 2652.763 204.085 2653.646 204.268 2654.781 204.433 C 2655.916 204.599 2656.84 204.722 2657.969 204.905 C 2659.097 205.089 2660.459 205.453 2661.794 205.808 C 2663.128 206.163 2663.512 206.22 2664.406 206.558 C 2665.3 206.896 2666.439 207.329 2667.519 207.908 C 2668.598 208.486 2669.308 208.986 2670.198 209.521 C 2671.087 210.056 2671.534 210.304 2672.231 210.771 C 2672.928 211.238 2673.606 211.686 2674.281 212.271 C 2674.956 212.856 2675.731 213.585 2676.42 214.283 Q 2677.11 214.982 2678.294 216.333 L 2679.856 218.271 Q 2681.127 219.919 2681.731 220.871 C 2682.335 221.822 2682.686 222.521 2683.169 223.433 C 2683.652 224.346 2684.131 225.28 2684.594 226.308 C 2685.056 227.337 2685.362 228.132 2685.744 229.133 Q 2686.126 230.135 2686.919 232.471 Q 2687.292 234.216 2687.444 235.208 C 2687.596 236.2 2687.756 237.638 2687.741 238.796 C 2687.725 239.954 2687.785 241.265 2687.741 242.446 C 2687.696 243.627 2687.69 244.256 2687.741 244.896 C 2687.791 245.535 2687.504 246.429 2687.444 248.071 L 2686.919 251.321 L 2686.169 255.008 L 2685.169 258.008 L 2683.919 260.958 L 2682.606 263.771 Q 2681.672 265.667 2681.169 266.696 C 2680.665 267.724 2680.355 268.458 2679.856 269.383 C 2679.358 270.309 2678.835 271.09 2678.294 272.021 C 2677.752 272.952 2677.476 273.645 2676.906 274.446 C 2676.336 275.247 2675.71 275.915 2675.021 276.758 C 2674.332 277.602 2673.797 278.323 2673.106 279.071 Q 2672.415 279.818 2671.244 280.758 L 2668.881 282.958 L 2667.006 284.733 L 2664.406 286.746 L 2661.794 288.483 L 2659.131 290.108 L 2656.506 291.421 L 2653.681 292.796 L 2651.531 293.608 L 2648.756 294.671 Q 2646.968 295.268 2646.006 295.489 Q 2645.044 295.71 2642.419 296.171 L 2639.069 296.796 L 2635.544 297.171 L 2632.069 297.171 L 2627.469 297.171 L 2623.069 296.796 L 2617.819 295.671 Q 2615.158 295.115 2613.756 294.671 C 2612.354 294.226 2610.623 293.448 2609.131 292.796 C 2607.639 292.143 2605.334 291.325 2603.269 290.108 C 2601.204 288.892 2600.505 288.479 2599.356 287.698 C 2598.208 286.917 2597.144 286.373 2595.881 285.521 C 2594.619 284.668 2594.254 284.18 2593.444 283.571 Q 2592.633 282.962 2591.069 281.421 L 2589.056 279.303 Q 2587.289 277.366 2586.419 276.333 Q 2585.548 275.3 2584.369 273.433 L 2582.331 270.421 L 2580.319 266.696 L 2579.081 264.171 L 2577.769 261.246 L 2576.381 257.608 L 2575.269 254.221 Q 2574.706 252.358 2574.519 251.321 Q 2574.332 250.284 2574.206 247.221 L 2574.206 242.446 L 2574.206 237.533 L 2574.519 232.021 L 2574.894 227.896 L 2576.019 223.083 L 2577.331 218.721 L 2578.826 214.283 Q 2579.768 211.994 2580.319 210.771 Q 2580.869 209.548 2581.994 207.258 L 2583.669 203.771 Q 2584.918 201.361 2585.744 200.146 C 2586.569 198.931 2586.877 198.191 2587.545 197.271 C 2588.213 196.351 2588.935 195.693 2589.669 194.721 Q 2590.402 193.749 2591.581 192.396 Q 2592.723 190.722 2593.444 189.896 C 2594.165 189.07 2594.873 188.154 2595.881 187.258 C 2596.89 186.363 2597.543 185.786 2598.369 185.021 C 2599.195 184.256 2600.293 183.248 2601.369 182.408 C 2602.445 181.568 2603.308 180.988 2604.42 180.275 C 2605.532 179.562 2606.048 179.029 2606.987 178.412 C 2607.925 177.794 2609.243 177.034 2610.494 176.337 C 2611.744 175.64 2612.055 175.52 2612.981 175.008 C 2613.907 174.497 2614.99 174.19 2616.056 173.696 C 2617.122 173.201 2618.231 172.515 2619.456 171.971 Q 2620.681 171.427 2622.744 170.696 L 2626.094 169.708 L 2628.881 168.821 L 2631.656 168.133 L 2634.319 167.521 L 2637.244 167.008 Q 2639.301 166.637 2640.431 166.571 C 2641.561 166.504 2642.122 166.369 2643.043 166.325 C 2643.964 166.281 2644.795 166.294 2645.744 166.325 Q 2646.692 166.356 2649.119 166.571 Q 2651.178 166.716 2652.394 166.782 Q 2653.611 166.847 2655.119 167.008 L 2658.469 167.521 L 2661.219 168.133 L 2665.319 168.821 L 2669.319 170.071 L 2673.106 171.321 L 2676.219 172.446 L 2679.469 173.696 Q 2681.516 174.776 2682.606 175.396 C 2683.696 176.016 2684.7 176.645 2685.744 177.271 C 2686.787 177.897 2687.328 178.364 2688.269 178.946 C 2689.209 179.528 2690.075 179.926 2690.956 180.521 C 2691.838 181.115 2692.374 181.756 2693.156 182.408 C 2693.939 183.06 2694.891 183.739 2695.781 184.521 C 2696.671 185.302 2697.084 185.804 2697.894 186.521 C 2698.703 187.237 2699.928 187.959 2700.719 188.79 C 2701.509 189.62 2702.012 190.21 2703.097 191.221 C 2704.182 192.231 2705.122 193.311 2705.656 194.162 C 2706.19 195.013 2706.76 195.526 2707.421 196.243 C 2708.082 196.959 2708.448 197.774 2709.119 198.583 Q 2709.789 199.393 2710.969 201.908 Q 2711.923 203.855 2712.448 204.905 C 2712.973 205.956 2713.539 207.104 2714.206 208.371 Q 2714.874 209.638 2715.519 211.096 L 2716.869 214.771 L 2717.831 217.846 L 2718.994 221.521 L 2719.931 224.471 L 2720.619 228.158 L 2721.244 231.658 L 2721.744 235.208 L 2721.744 239.021 L 2721.744 242.446 Q 2721.833 244.958 2721.744 246.333 C 2721.654 247.708 2721.637 249.532 2721.575 250.958 Q 2721.513 252.385 2721.244 255.008 Q 2720.936 257.983 2720.619 259.571 C 2720.302 261.159 2720.193 261.994 2719.931 263.187 C 2719.669 264.381 2719.515 265.158 2719.219 266.208 C 2718.924 267.258 2718.608 267.711 2718.341 268.918 C 2718.073 270.125 2717.704 270.482 2717.49 271.421 C 2717.276 272.36 2716.88 273.348 2716.505 274.446 C 2716.13 275.543 2715.577 276.55 2715.169 277.633 C 2714.76 278.717 2714.243 279.65 2713.693 280.758 C 2713.143 281.867 2712.641 282.778 2712.206 283.571 Q 2711.771 284.364 2710.469 286.746 L 2708.719 289.421 L 2707.219 291.896 L 2705.656 294.671 L 2703.281 297.896 L 2701.594 300.371 L 2699.594 302.833 L 2697.344 305.371 L 2694.969 307.683 L 2692.656 310.083 L 2690.194 312.708 L 2687.444 315.308 L 2685.169 317.333 L 2682.606 319.233 Q 2680.617 320.783 2679.469 321.521 Q 2678.32 322.259 2675.906 323.508 Q 2674.122 324.697 2673.106 325.258 C 2672.09 325.82 2671.126 326.467 2669.994 327.045 C 2668.862 327.623 2667.564 328.313 2666.443 328.908 Q 2665.322 329.504 2663.694 330.171 Q 2661.383 331.013 2660.219 331.483 C 2659.054 331.954 2658.247 332.382 2657.056 332.79 Q 2655.866 333.197 2652.919 334.046 Q 2649.917 334.977 2648.294 335.377 C 2646.67 335.778 2646.319 335.983 2645.069 336.221 Q 2643.818 336.459 2641.669 336.733 L 2638.106 337.108 L 2634.319 337.421 Q 2631.382 337.535 2629.794 337.613 Q 2628.205 337.692 2625.781 337.796 L 2622.219 337.796 L 2617.031 337.796 Q 2614.014 337.646 2612.394 337.421 C 2610.774 337.196 2608.765 336.855 2606.794 336.453 C 2604.823 336.051 2603.263 335.599 2601.369 335.171 Q 2599.474 334.743 2596.894 334.046 Q 2594.329 333.303 2592.919 332.79 C 2591.508 332.276 2589.684 331.543 2587.994 330.858 Q 2586.303 330.174 2584.369 329.171 L 2580.319 327.196 Q 2578.205 326.266 2577.019 325.633 Q 2575.832 325 2573.369 323.508 L 2569.931 321.133 Q 2567.523 319.562 2566.297 318.685 C 2565.071 317.808 2563.778 316.961 2562.494 315.921 Q 2561.209 314.881 2559.581 313.621 Q 2558.102 312.241 2557.206 311.421 Q 2556.311 310.601 2554.181 308.455 L 2551.494 305.708 L 2548.869 302.833 Q 2547.231 301.098 2546.431 300.083 C 2545.632 299.069 2544.699 297.56 2543.794 296.171 Q 2542.888 294.782 2541.431 292.433 L 2539.594 288.821 L 2537.731 285.108 L 2536.169 281.421 L 2534.669 278.271 Q 2533.638 276.139 2533.169 274.946 C 2532.699 273.753 2532.157 272.827 2531.717 271.597 C 2531.277 270.366 2530.742 268.913 2530.205 267.413 C 2529.669 265.913 2529.141 264.512 2528.687 262.946 C 2528.233 261.38 2528.04 260.325 2527.731 258.856 C 2527.423 257.387 2527.025 255.497 2526.802 253.73 C 2526.579 251.964 2526.462 249.846 2526.24 247.719 C 2526.017 245.592 2525.911 243.703 2525.909 241.521 Q 2525.907 239.339 2526.24 235.208 Q 2526.461 231.834 2526.626 230.008 Q 2526.792 228.182 2527.731 221.946 Q 2528.234 217.799 2528.687 215.583 C 2529.14 213.368 2529.769 211.391 2530.356 209.194 C 2530.944 206.998 2531.551 205.069 2532.378 202.896 C 2533.205 200.722 2533.314 199.967 2533.96 198.453 C 2534.606 196.939 2535.205 195.47 2535.894 193.866 C 2536.582 192.263 2537.562 190.49 2538.469 188.646 C 2539.376 186.802 2539.934 185.709 2540.906 184.212 C 2541.879 182.716 2542.486 181.614 2543.445 180.275 C 2544.404 178.936 2545.688 177.16 2546.891 175.396 C 2548.093 173.632 2548.717 172.6 2549.808 171.169 C 2550.9 169.739 2551.284 169.235 2552.164 168.133 C 2553.044 167.032 2554.041 165.698 2555.081 164.508 C 2556.121 163.319 2556.901 162.253 2558.028 161.157 Q 2559.155 160.061 2560.805 158.45 Q 2562.981 156.576 2564.18 155.567 C 2565.379 154.558 2566.12 154.081 2567.169 153.158 C 2568.217 152.236 2569.418 151.233 2570.556 150.221 C 2571.694 149.208 2572.875 148.135 2574.206 147.096 C 2575.538 146.057 2576.871 145.14 2578.369 144.158 C 2579.866 143.177 2581.483 142.171 2583.244 141.221 C 2585.004 140.27 2585.562 140.085 2586.806 139.446 C 2588.05 138.807 2589.4 138.066 2590.806 137.321 C 2592.212 136.576 2592.811 136.236 2593.956 135.655 C 2595.101 135.073 2596.824 134.309 2598.369 133.658 C 2599.913 133.008 2600.524 132.706 2601.744 132.209 C 2602.963 131.712 2605.013 131.001 2606.794 130.471 C 2608.574 129.941 2610.341 129.426 2612.394 128.876 C 2614.446 128.327 2615.75 128.108 2617.444 127.683 C 2619.137 127.259 2620.342 127.056 2621.919 126.746 C 2623.495 126.436 2625.021 126.16 2626.706 125.871 C 2628.392 125.582 2629.903 125.255 2631.656 125.08 C 2633.41 124.904 2634.915 124.966 2636.469 124.871 C 2638.022 124.776 2639.33 124.869 2641.669 124.871 C 2644.007 124.873 2645.96 124.789 2648.294 124.871 C 2650.627 124.953 2652.088 125.154 2654.131 125.371 C 2656.175 125.587 2657.379 125.638 2658.912 125.871 C 2660.446 126.103 2661.924 126.255 2663.694 126.556 C 2665.463 126.857 2666.282 127.118 2667.781 127.4 C 2669.28 127.682 2670.683 128.042 2672.231 128.371 C 2673.78 128.7 2676.003 129.38 2678.006 130.058 Q 2680.009 130.737 2683.169 132.033 Q 2687.09 133.693 2689.156 134.558 C 2691.223 135.424 2692.929 136.344 2694.969 137.321 C 2697.008 138.298 2697.451 138.426 2698.737 139.135 C 2700.024 139.844 2701.523 140.885 2703.097 141.737 C 2704.671 142.588 2705.795 143.268 2707.219 144.158 C 2708.642 145.048 2709.853 145.804 2711.183 146.821 C 2712.512 147.837 2713.734 149.069 2715.169 150.221 C 2716.603 151.373 2717.665 152.344 2718.994 153.521 C 2720.322 154.698 2721.234 155.514 2722.398 156.608 C 2723.561 157.701 2724.108 158.395 2725.106 159.333 C 2726.104 160.272 2727.403 161.659 2728.606 162.958 C 2729.809 164.258 2730.741 165.257 2731.819 166.571 C 2732.896 167.884 2733.834 169.243 2734.919 170.696 C 2736.003 172.149 2736.59 172.927 2737.481 174.146 C 2738.372 175.365 2738.991 176.138 2739.731 177.271 C 2740.471 178.404 2741.079 179.586 2741.819 180.833 Q 2742.559 182.081 2744.881 185.908 L 2746.819 189.621 Q 2748.317 192.53 2749.006 194.021 C 2749.696 195.512 2749.926 196.512 2750.631 197.933 Q 2751.336 199.355 2752.319 201.908 Q 2753.164 204.446 2753.546 205.808 C 2753.928 207.171 2754.456 208.581 2754.917 210.083 C 2755.378 211.585 2755.697 213.087 2756.069 214.771 C 2756.44 216.455 2756.447 217.039 2756.631 218.271 Q 2756.815 219.503 2757.319 223.433 L 2757.881 228.158 Q 2758.402 231.904 2758.506 233.933 C 2758.61 235.963 2758.684 238.172 2758.506 240.471 C 2758.328 242.77 2758.444 242.11 2758.194 242.958 C 2757.943 243.807 2757.795 244.309 2757.319 244.896 C 2756.843 245.482 2756.578 245.667 2756.069 245.933 C 2755.559 246.2 2754.546 246.422 2753.694 246.333 C 2752.842 246.245 2752.328 246.111 2751.631 245.778 C 2750.934 245.445 2750.435 245.155 2750.006 244.633 C 2749.578 244.111 2749.597 243.619 2749.391 242.958 Z " fill="rgb(233,181,50)" vector-effect="non-scaling-stroke" stroke-width="5" stroke="rgb(233,181,50)" stroke-linejoin="miter" stroke-linecap="square" stroke-miterlimit="3"/></g></svg>