<?xml version="1.0" encoding="UTF-8" standalone="no"?><!-- Generator: Gravit.io --><svg xmlns="http://www.w3.org/2000/svg" xmlns:xlink="http://www.w3.org/1999/xlink" style="isolation:isolate" viewBox="0 0 481.89 445.039" width="481.89pt" height="445.039pt"><defs><clipPath id="_clipPath_gkTkzbEyczQ0jupLRnAAVmZlq2RPuxiF"><rect width="481.89" height="445.039"/></clipPath></defs><g clip-path="url(#_clipPath_gkTkzbEyczQ0jupLRnAAVmZlq2RPuxiF)"><rect width="481.89" height="445.039" style="fill:rgb(13,16,23)"/><g><path d=" M 162.4 24.75 Q 162.527 25.515 189.4 87.625 Q 189.945 88.605 190.4 89 C 190.855 89.395 191.034 89.43 191.4 89.625 C 191.766 89.82 192.336 90.137 192.9 90.25 C 193.464 90.363 193.713 90.376 194.275 90.25 C 194.837 90.124 195.449 89.908 195.9 89.625 C 196.351 89.342 196.938 89.004 197.4 88.456 C 197.862 87.908 198.223 87.369 198.4 86.75 C 198.577 86.131 198.556 86.475 198.587 85.394 Q 198.619 84.313 198.4 83.625 L 171.4 20.714 Q 170.368 19.16 169.525 18.625 Q 168.682 18.09 167.525 17.875 Q 166.628 17.791 166.15 17.875 C 165.672 17.959 164.899 18.332 164.433 18.625 C 163.967 18.918 163.729 19.24 163.4 19.625 C 163.071 20.01 162.644 20.536 162.4 21.125 C 162.156 21.714 162.097 22.048 162.056 22.57 C 162.016 23.093 162.273 23.985 162.4 24.75 Z " fill="rgb(247,145,35)" vector-effect="non-scaling-stroke" stroke-width="5" stroke="rgb(0,0,0)" stroke-linejoin="miter" stroke-linecap="square" stroke-miterlimit="3"/><path d=" M 94.725 72.484 Q 95.13 73.145 143.437 120.54 Q 144.312 121.242 144.882 121.436 C 145.452 121.631 145.631 121.595 146.044 121.638 C 146.456 121.681 147.104 121.759 147.669 121.651 C 148.233 121.543 148.47 121.462 148.942 121.133 C 149.415 120.804 149.901 120.374 150.212 119.941 C 150.523 119.509 150.939 118.975 151.16 118.293 C 151.382 117.612 151.513 116.976 151.443 116.336 C 151.374 115.696 151.484 116.022 151.106 115.009 Q 150.727 113.996 150.265 113.442 L 101.539 65.353 Q 99.997 64.303 99.014 64.125 Q 98.032 63.947 96.879 64.184 Q 96.017 64.445 95.606 64.703 C 95.194 64.961 94.619 65.598 94.298 66.045 C 93.977 66.492 93.878 66.88 93.718 67.361 C 93.559 67.841 93.362 68.489 93.358 69.127 C 93.353 69.764 93.425 70.096 93.584 70.595 C 93.744 71.094 94.319 71.824 94.725 72.484 Z " fill="rgb(247,145,35)" vector-effect="non-scaling-stroke" stroke-width="5" stroke="rgb(0,0,0)" stroke-linejoin="miter" stroke-linecap="square" stroke-miterlimit="3"/><path d=" M 49.112 145.621 Q 49.738 146.079 112.408 171.618 Q 113.484 171.936 114.085 171.9 C 114.686 171.864 114.839 171.763 115.237 171.646 C 115.634 171.529 116.264 171.356 116.745 171.042 C 117.227 170.728 117.415 170.563 117.727 170.08 C 118.04 169.596 118.326 169.014 118.45 168.496 C 118.574 167.978 118.756 167.326 118.703 166.611 C 118.65 165.896 118.53 165.259 118.223 164.693 C 117.916 164.127 118.142 164.387 117.407 163.593 Q 116.672 162.799 116.035 162.461 L 52.713 136.439 Q 50.889 136.052 49.912 136.26 Q 48.935 136.467 47.959 137.124 Q 47.26 137.692 46.977 138.087 C 46.694 138.481 46.403 139.289 46.276 139.824 C 46.148 140.36 46.204 140.757 46.238 141.261 C 46.273 141.766 46.337 142.441 46.574 143.033 C 46.812 143.624 47.004 143.904 47.341 144.305 C 47.678 144.707 48.486 145.164 49.112 145.621 Z " fill="rgb(247,145,35)" vector-effect="non-scaling-stroke" stroke-width="5" stroke="rgb(0,0,0)" stroke-linejoin="miter" stroke-linecap="square" stroke-miterlimit="3"/><path d=" M 35.122 226.332 Q 35.875 226.515 103.548 226.124 Q 104.663 226.006 105.205 225.743 C 105.747 225.479 105.849 225.328 106.172 225.067 C 106.495 224.807 107.01 224.406 107.335 223.932 C 107.659 223.458 107.77 223.233 107.873 222.667 C 107.977 222.101 108.019 221.453 107.935 220.927 C 107.851 220.401 107.77 219.729 107.447 219.089 C 107.125 218.449 106.77 217.906 106.269 217.501 C 105.769 217.095 106.078 217.249 105.095 216.797 Q 104.112 216.344 103.394 216.276 L 34.934 216.47 Q 33.101 216.811 32.278 217.377 Q 31.455 217.942 30.804 218.923 Q 30.376 219.715 30.265 220.188 C 30.155 220.661 30.196 221.518 30.283 222.062 C 30.37 222.605 30.573 222.951 30.798 223.404 C 31.023 223.857 31.341 224.456 31.786 224.911 C 32.232 225.367 32.517 225.552 32.982 225.794 C 33.446 226.036 34.368 226.149 35.122 226.332 Z " fill="rgb(247,145,35)" vector-effect="non-scaling-stroke" stroke-width="5" stroke="rgb(0,0,0)" stroke-linejoin="miter" stroke-linecap="square" stroke-miterlimit="3"/><path d=" M 54.825 309.227 Q 55.591 309.109 118.011 282.962 Q 118.997 282.429 119.397 281.979 C 119.798 281.528 119.835 281.35 120.034 280.986 C 120.233 280.622 120.557 280.055 120.676 279.493 C 120.796 278.931 120.812 278.681 120.693 278.118 C 120.573 277.555 120.364 276.94 120.087 276.486 C 119.809 276.032 119.478 275.441 118.935 274.973 C 118.393 274.504 117.858 274.137 117.241 273.953 C 116.624 273.769 116.968 273.793 115.887 273.75 Q 114.806 273.706 114.116 273.916 L 50.894 300.181 Q 49.329 301.194 48.784 302.031 Q 48.238 302.868 48.01 304.022 Q 47.916 304.918 47.994 305.397 C 48.073 305.876 48.437 306.653 48.724 307.123 C 49.012 307.593 49.331 307.834 49.712 308.167 C 50.093 308.5 50.615 308.934 51.2 309.185 C 51.786 309.436 52.12 309.499 52.642 309.545 C 53.164 309.592 54.059 309.345 54.825 309.227 Z " fill="rgb(247,145,35)" vector-effect="non-scaling-stroke" stroke-width="5" stroke="rgb(0,0,0)" stroke-linejoin="miter" stroke-linecap="square" stroke-miterlimit="3"/><path d=" M 101.738 377.477 Q 102.405 377.082 150.57 329.543 Q 151.286 328.68 151.489 328.112 C 151.693 327.545 151.661 327.366 151.71 326.954 C 151.759 326.542 151.848 325.896 151.749 325.33 C 151.65 324.763 151.573 324.526 151.252 324.048 C 150.93 323.57 150.508 323.077 150.081 322.759 C 149.653 322.442 149.126 322.017 148.448 321.784 C 147.77 321.552 147.136 321.411 146.495 321.47 C 145.854 321.529 146.182 321.424 145.163 321.786 Q 144.144 322.149 143.582 322.602 L 94.717 370.549 Q 93.642 372.073 93.449 373.053 Q 93.255 374.033 93.474 375.189 Q 93.72 376.055 93.972 376.471 C 94.223 376.886 94.85 377.471 95.292 377.8 C 95.735 378.128 96.121 378.234 96.599 378.4 C 97.076 378.567 97.722 378.775 98.359 378.789 C 98.996 378.804 99.329 378.738 99.831 378.587 C 100.332 378.435 101.071 377.872 101.738 377.477 Z " fill="rgb(247,145,35)" vector-effect="non-scaling-stroke" stroke-width="5" stroke="rgb(0,0,0)" stroke-linejoin="miter" stroke-linecap="square" stroke-miterlimit="3"/><path d=" M 175.526 423.215 Q 175.977 422.585 200.947 359.685 Q 201.256 358.607 201.214 358.006 C 201.172 357.405 201.07 357.254 200.95 356.857 C 200.829 356.46 200.651 355.832 200.332 355.354 C 200.014 354.875 199.847 354.689 199.361 354.38 C 198.875 354.072 198.289 353.791 197.77 353.672 C 197.252 353.553 196.598 353.376 195.884 353.436 C 195.169 353.496 194.532 353.622 193.97 353.934 C 193.407 354.246 193.665 354.018 192.877 354.759 Q 192.09 355.501 191.758 356.142 L 166.311 419.697 Q 165.94 421.525 166.157 422.5 Q 166.374 423.475 167.039 424.445 Q 167.613 425.139 168.011 425.418 C 168.408 425.697 169.218 425.981 169.755 426.103 C 170.292 426.226 170.688 426.167 171.192 426.128 C 171.696 426.089 172.371 426.019 172.96 425.776 C 173.549 425.533 173.828 425.339 174.226 424.998 C 174.624 424.657 175.074 423.845 175.526 423.215 Z " fill="rgb(247,145,35)" vector-effect="non-scaling-stroke" stroke-width="5" stroke="rgb(0,0,0)" stroke-linejoin="miter" stroke-linecap="square" stroke-miterlimit="3"/><path d=" M 340.017 417.528 Q 339.891 416.763 313.017 354.653 Q 312.472 353.673 312.017 353.278 C 311.563 352.883 311.383 352.848 311.017 352.653 C 310.652 352.458 310.081 352.141 309.517 352.028 C 308.954 351.915 308.704 351.902 308.142 352.028 C 307.581 352.154 306.968 352.37 306.517 352.653 C 306.067 352.936 305.48 353.274 305.017 353.822 C 304.555 354.369 304.194 354.909 304.017 355.528 C 303.841 356.147 303.861 355.803 303.83 356.884 Q 303.799 357.965 304.017 358.653 L 331.017 421.564 Q 332.049 423.117 332.892 423.653 Q 333.736 424.188 334.892 424.403 Q 335.789 424.487 336.267 424.403 C 336.746 424.319 337.519 423.946 337.985 423.653 C 338.451 423.36 338.689 423.038 339.017 422.653 C 339.346 422.268 339.773 421.742 340.017 421.153 C 340.262 420.564 340.321 420.23 340.361 419.708 C 340.402 419.185 340.144 418.293 340.017 417.528 Z " fill="rgb(247,145,35)" vector-effect="non-scaling-stroke" stroke-width="5" stroke="rgb(0,0,0)" stroke-linejoin="miter" stroke-linecap="square" stroke-miterlimit="3"/><path d=" M 407.693 369.794 Q 407.287 369.133 358.98 321.738 Q 358.106 321.036 357.535 320.842 C 356.965 320.647 356.786 320.683 356.374 320.64 C 355.961 320.597 355.313 320.518 354.749 320.626 C 354.184 320.735 353.948 320.816 353.475 321.145 C 353.003 321.474 352.516 321.904 352.206 322.336 C 351.895 322.769 351.479 323.303 351.257 323.984 C 351.035 324.666 350.905 325.302 350.974 325.942 C 351.044 326.582 350.933 326.255 351.312 327.269 Q 351.69 328.282 352.152 328.836 L 400.879 376.925 Q 402.42 377.975 403.403 378.153 Q 404.386 378.331 405.538 378.093 Q 406.4 377.833 406.812 377.575 C 407.223 377.317 407.798 376.68 408.119 376.233 C 408.441 375.786 408.54 375.398 408.699 374.917 C 408.858 374.437 409.055 373.788 409.06 373.151 C 409.064 372.514 408.993 372.182 408.833 371.683 C 408.673 371.184 408.099 370.454 407.693 369.794 Z " fill="rgb(247,145,35)" vector-effect="non-scaling-stroke" stroke-width="5" stroke="rgb(0,0,0)" stroke-linejoin="miter" stroke-linecap="square" stroke-miterlimit="3"/><path d=" M 453.306 296.657 Q 452.68 296.199 390.009 270.66 Q 388.934 270.342 388.332 270.378 C 387.731 270.414 387.579 270.515 387.181 270.632 C 386.783 270.749 386.154 270.921 385.672 271.235 C 385.191 271.55 385.003 271.715 384.69 272.198 C 384.378 272.681 384.091 273.264 383.967 273.782 C 383.844 274.3 383.661 274.952 383.715 275.667 C 383.768 276.382 383.888 277.019 384.195 277.585 C 384.502 278.151 384.276 277.891 385.01 278.685 Q 385.745 279.479 386.383 279.817 L 449.704 305.839 Q 451.529 306.226 452.505 306.018 Q 453.482 305.81 454.459 305.154 Q 455.158 304.586 455.441 304.191 C 455.723 303.796 456.014 302.989 456.142 302.454 C 456.269 301.918 456.214 301.521 456.179 301.016 C 456.145 300.512 456.081 299.837 455.843 299.245 C 455.606 298.654 455.414 298.374 455.077 297.972 C 454.74 297.571 453.931 297.114 453.306 296.657 Z " fill="rgb(247,145,35)" vector-effect="non-scaling-stroke" stroke-width="5" stroke="rgb(0,0,0)" stroke-linejoin="miter" stroke-linecap="square" stroke-miterlimit="3"/><path d=" M 467.296 215.946 Q 466.542 215.763 398.869 216.154 Q 397.754 216.272 397.212 216.535 C 396.67 216.799 396.568 216.95 396.245 217.211 C 395.923 217.471 395.407 217.871 395.083 218.346 C 394.758 218.82 394.648 219.045 394.544 219.611 C 394.44 220.177 394.398 220.825 394.482 221.351 C 394.566 221.876 394.647 222.549 394.97 223.189 C 395.293 223.829 395.648 224.372 396.148 224.777 C 396.648 225.183 396.34 225.029 397.322 225.481 Q 398.305 225.934 399.023 226.002 L 467.483 225.808 Q 469.317 225.467 470.14 224.901 Q 470.963 224.335 471.613 223.355 Q 472.042 222.563 472.152 222.09 C 472.262 221.617 472.222 220.76 472.135 220.216 C 472.048 219.673 471.845 219.327 471.619 218.874 C 471.394 218.421 471.077 217.822 470.631 217.366 C 470.185 216.911 469.901 216.726 469.436 216.484 C 468.971 216.242 468.049 216.129 467.296 215.946 Z " fill="rgb(247,145,35)" vector-effect="non-scaling-stroke" stroke-width="5" stroke="rgb(0,0,0)" stroke-linejoin="miter" stroke-linecap="square" stroke-miterlimit="3"/><path d=" M 447.592 133.051 Q 446.826 133.169 384.407 159.315 Q 383.42 159.849 383.02 160.299 C 382.62 160.75 382.583 160.928 382.383 161.292 C 382.184 161.656 381.86 162.222 381.741 162.785 C 381.622 163.347 381.605 163.596 381.725 164.16 C 381.845 164.723 382.053 165.338 382.331 165.792 C 382.609 166.246 382.94 166.836 383.482 167.305 C 384.025 167.774 384.56 168.141 385.177 168.325 C 385.793 168.509 385.45 168.485 386.531 168.528 Q 387.611 168.572 388.301 168.362 L 451.523 142.097 Q 453.089 141.084 453.634 140.247 Q 454.179 139.41 454.407 138.256 Q 454.502 137.36 454.423 136.881 C 454.345 136.402 453.981 135.624 453.693 135.155 C 453.405 134.685 453.086 134.443 452.705 134.11 C 452.325 133.778 451.803 133.344 451.217 133.093 C 450.631 132.842 450.298 132.779 449.776 132.732 C 449.254 132.686 448.359 132.933 447.592 133.051 Z " fill="rgb(247,145,35)" vector-effect="non-scaling-stroke" stroke-width="5" stroke="rgb(0,0,0)" stroke-linejoin="miter" stroke-linecap="square" stroke-miterlimit="3"/><path d=" M 400.68 64.801 Q 400.012 65.196 351.848 112.735 Q 351.132 113.598 350.928 114.165 C 350.724 114.733 350.757 114.912 350.707 115.324 C 350.658 115.736 350.569 116.382 350.668 116.948 C 350.767 117.514 350.845 117.752 351.166 118.23 C 351.487 118.708 351.91 119.201 352.337 119.519 C 352.764 119.836 353.291 120.261 353.969 120.494 C 354.648 120.726 355.281 120.867 355.922 120.808 C 356.563 120.749 356.235 120.854 357.254 120.492 Q 358.273 120.129 358.835 119.676 L 407.7 71.729 Q 408.775 70.204 408.969 69.225 Q 409.163 68.245 408.944 67.089 Q 408.697 66.223 408.446 65.807 C 408.194 65.392 407.567 64.806 407.125 64.478 C 406.683 64.15 406.296 64.044 405.819 63.877 C 405.341 63.71 404.696 63.503 404.059 63.488 C 403.421 63.474 403.089 63.54 402.587 63.691 C 402.085 63.843 401.347 64.406 400.68 64.801 Z " fill="rgb(247,145,35)" vector-effect="non-scaling-stroke" stroke-width="5" stroke="rgb(0,0,0)" stroke-linejoin="miter" stroke-linecap="square" stroke-miterlimit="3"/><path d=" M 326.892 19.063 Q 326.44 19.693 301.47 82.593 Q 301.162 83.671 301.204 84.272 C 301.245 84.873 301.347 85.024 301.468 85.421 C 301.588 85.818 301.767 86.446 302.085 86.924 C 302.404 87.403 302.57 87.589 303.057 87.897 C 303.543 88.206 304.128 88.487 304.647 88.606 C 305.166 88.725 305.819 88.901 306.534 88.842 C 307.248 88.782 307.885 88.656 308.448 88.344 C 309.011 88.032 308.753 88.26 309.54 87.518 Q 310.328 86.777 310.66 86.136 L 336.107 22.581 Q 336.477 20.753 336.26 19.778 Q 336.044 18.803 335.378 17.833 Q 334.804 17.139 334.407 16.86 C 334.009 16.581 333.2 16.297 332.663 16.175 C 332.126 16.052 331.73 16.111 331.225 16.15 C 330.721 16.189 330.047 16.259 329.457 16.502 C 328.868 16.745 328.59 16.939 328.192 17.28 C 327.793 17.621 327.344 18.433 326.892 19.063 Z " fill="rgb(247,145,35)" vector-effect="non-scaling-stroke" stroke-width="5" stroke="rgb(0,0,0)" stroke-linejoin="miter" stroke-linecap="square" stroke-miterlimit="3"/><path d=" M 247.033 7.894 Q 246.846 8.646 246.832 76.32 Q 246.943 77.436 247.204 77.979 C 247.464 78.523 247.615 78.626 247.873 78.95 C 248.132 79.275 248.529 79.792 249.002 80.12 C 249.474 80.447 249.698 80.559 250.263 80.666 C 250.829 80.773 251.477 80.819 252.003 80.738 C 252.529 80.657 253.202 80.58 253.844 80.261 C 254.486 79.942 255.031 79.59 255.439 79.093 C 255.848 78.595 255.692 78.902 256.15 77.923 Q 256.609 76.943 256.681 76.225 L 256.896 7.765 Q 256.566 5.929 256.005 5.103 Q 255.444 4.277 254.468 3.62 Q 253.678 3.187 253.206 3.074 C 252.734 2.961 251.876 2.996 251.332 3.08 C 250.788 3.164 250.441 3.365 249.987 3.588 C 249.533 3.81 248.932 4.124 248.473 4.567 C 248.015 5.01 247.828 5.293 247.584 5.757 C 247.339 6.22 247.221 7.141 247.033 7.894 Z " fill="rgb(247,145,35)" vector-effect="non-scaling-stroke" stroke-width="5" stroke="rgb(0,0,0)" stroke-linejoin="miter" stroke-linecap="square" stroke-miterlimit="3"/><path d=" M 247.033 368.326 Q 246.846 369.078 246.832 436.753 Q 246.943 437.869 247.204 438.412 C 247.464 438.955 247.615 439.058 247.873 439.383 C 248.132 439.707 248.529 440.225 249.002 440.552 C 249.474 440.88 249.698 440.991 250.263 441.099 C 250.829 441.206 251.477 441.251 252.003 441.171 C 252.529 441.09 253.202 441.013 253.844 440.694 C 254.486 440.375 255.031 440.023 255.439 439.525 C 255.848 439.028 255.692 439.335 256.15 438.355 Q 256.609 437.375 256.681 436.658 L 256.896 368.198 Q 256.566 366.362 256.005 365.536 Q 255.444 364.71 254.468 364.053 Q 253.678 363.62 253.206 363.507 C 252.734 363.394 251.876 363.429 251.332 363.513 C 250.788 363.597 250.441 363.798 249.987 364.02 C 249.533 364.243 248.932 364.556 248.473 364.999 C 248.015 365.443 247.828 365.726 247.584 366.189 C 247.339 366.653 247.221 367.574 247.033 368.326 Z " fill="rgb(247,145,35)" vector-effect="non-scaling-stroke" stroke-width="5" stroke="rgb(0,0,0)" stroke-linejoin="miter" stroke-linecap="square" stroke-miterlimit="3"/></g><path d=" M 357.609 232.565 C 357.403 231.905 357.287 231.158 357.225 230.078 C 357.163 228.998 357.237 227.559 357.225 226.078 C 357.213 224.597 357.344 223.48 357.225 222.078 C 357.106 220.676 357.086 219.648 356.878 218.328 C 356.671 217.008 356.611 215.861 356.456 214.515 C 356.301 213.17 355.985 212.123 355.725 210.828 C 355.465 209.533 355.292 208.636 355.038 207.453 C 354.783 206.27 354.585 205.124 354.225 203.89 C 353.865 202.657 353.692 201.833 353.327 200.703 C 352.963 199.572 352.483 198.49 352.1 197.265 C 351.717 196.041 351.649 195.522 351.288 194.513 C 350.926 193.503 350.306 192.191 350.038 191.515 C 349.769 190.84 349.339 189.688 348.747 188.06 C 348.705 187.946 348.692 187.909 348.663 187.828 C 348.633 187.746 347.757 185.527 347.163 184.328 Q 346.568 183.129 345.163 180.828 L 343.538 177.89 L 342.225 175.515 L 340.038 172.015 L 338.413 169.578 Q 337.109 167.608 336.35 166.578 Q 335.591 165.548 334.6 164.328 Q 333.122 162.525 332.288 161.578 Q 331.453 160.631 329.963 159.053 L 327.588 156.615 L 325.088 154.115 Q 323.502 152.496 322.588 151.678 C 321.673 150.86 320.963 150.344 320.088 149.615 C 319.212 148.887 318.307 148.111 317.338 147.303 Q 316.368 146.495 314.463 144.928 Q 312.35 143.297 311.15 142.49 C 309.95 141.684 308.691 140.967 307.338 140.178 C 305.984 139.389 305.03 138.874 303.775 138.178 C 302.52 137.482 301.716 137.026 300.588 136.428 C 299.459 135.83 298.121 135.159 296.775 134.49 C 295.429 133.822 294.967 133.564 293.963 133.115 C 292.958 132.666 291.596 132.061 290.338 131.52 C 289.079 130.978 288.009 130.616 286.854 130.178 C 285.698 129.74 284.607 129.393 283.24 129.053 Q 281.873 128.713 279.162 128.222 Q 277.333 127.852 276.338 127.678 C 275.342 127.504 272.928 127.219 271.088 126.928 Q 269.247 126.637 268.088 126.428 Q 266.388 126.127 265.463 125.99 C 264.537 125.854 263.155 125.68 261.9 125.553 Q 260.645 125.426 241.613 125.99 Q 239.014 126.118 237.613 126.253 C 236.211 126.388 235.863 126.297 234.925 126.428 C 233.987 126.559 232.442 126.717 231.288 126.928 C 230.133 127.139 228.941 127.397 227.675 127.678 C 226.409 127.959 225.276 128.218 223.988 128.553 C 222.699 128.888 221.787 129.131 220.613 129.503 C 219.438 129.875 218.746 130.146 217.738 130.503 C 216.729 130.86 215.607 131.207 214.488 131.678 C 213.368 132.149 212.553 132.634 211.488 133.115 C 210.422 133.597 209.371 133.988 208.238 134.49 C 207.104 134.993 206.187 135.383 205.113 135.94 C 204.038 136.498 203.193 137.012 202.175 137.628 C 201.157 138.244 200.518 138.462 199.652 138.938 C 198.787 139.413 197.831 139.971 196.8 140.503 C 195.769 141.035 194.616 141.801 193.425 142.49 C 192.234 143.179 191.537 143.513 190.55 144.128 C 189.563 144.743 188.826 145.318 187.763 146.215 C 186.699 147.112 186.151 147.504 185.238 148.233 C 184.324 148.962 183.333 149.718 182.595 150.342 C 181.856 150.967 180.888 151.767 179.988 152.565 C 179.087 153.364 178.457 154.016 177.675 154.69 C 176.893 155.365 176.015 156.249 175.15 157.128 C 174.285 158.007 173.832 158.566 173.088 159.315 C 172.343 160.065 171.714 160.966 170.958 161.838 Q 170.202 162.71 168.4 165.003 Q 167.202 166.719 166.525 167.628 C 165.848 168.537 165.224 169.217 164.588 170.128 C 163.951 171.039 163.34 172.096 162.661 173.253 Q 161.982 174.41 160.963 176.128 L 159.713 178.253 L 158.213 180.828 Q 157.335 182.607 156.832 183.628 C 156.329 184.649 155.821 185.773 155.275 186.878 C 154.729 187.983 154.385 188.964 153.888 190.027 C 153.39 191.089 152.819 192.173 152.338 193.378 C 151.856 194.583 151.657 195.367 151.275 196.44 C 150.893 197.514 150.489 198.543 150.088 199.69 C 149.686 200.838 149.41 201.53 149.125 202.553 C 148.84 203.576 148.703 204.43 148.472 205.49 Q 148.241 206.551 147.813 208.803 L 147.25 211.553 L 146.688 215.49 L 146.25 220.957 Q 145.946 226.009 145.95 229.746 C 145.954 233.483 146.37 236.51 146.688 240.166 C 147.005 243.823 146.932 243.99 147.25 246.04 Q 147.568 248.09 148.24 250.853 L 149.505 255.415 L 151.01 259.478 L 152.338 263.04 L 154.139 266.978 L 155.888 270.728 L 157.638 273.478 L 159.3 276.353 L 161.238 279.29 L 163.3 282.04 L 165.425 284.853 L 167.8 287.79 L 169.988 289.978 L 172.55 292.728 L 174.863 294.978 L 177.675 297.29 L 179.988 299.228 Q 181.724 300.67 182.738 301.353 Q 183.751 302.036 185.988 303.228 L 188.925 304.915 L 191.888 306.49 L 194.638 307.99 Q 196.704 309.171 197.888 309.678 C 199.071 310.185 199.83 310.376 200.888 310.74 C 201.945 311.105 203.208 311.483 204.45 311.928 C 205.692 312.373 206.454 312.763 207.575 313.115 C 208.696 313.468 209.888 313.674 211.138 313.99 Q 212.387 314.307 214.488 314.865 L 217.738 315.74 Q 219.974 316.239 221.2 316.428 C 222.426 316.616 223.385 316.718 224.575 316.803 Q 225.765 316.888 230.7 316.803 L 234.925 316.803 L 238.763 316.803 Q 241.444 316.616 242.888 316.428 Q 244.331 316.24 246.95 315.74 Q 249.349 315.463 250.638 315.24 Q 251.926 315.018 254.95 314.303 Q 257.572 313.648 259.052 313.115 C 260.533 312.583 261.663 311.99 263 311.465 C 264.337 310.941 265.334 310.524 266.435 310.078 C 267.536 309.632 268.396 309.308 269.438 308.84 Q 270.479 308.373 272.625 307.278 Q 274.847 306.203 276 305.528 Q 277.153 304.852 279.463 303.228 Q 281.422 301.942 282.5 301.184 Q 283.578 300.426 285.125 299.228 L 287.688 297.29 L 290.338 294.978 L 292.813 292.728 L 294.875 290.653 Q 296.55 289.166 297.375 288.278 Q 298.2 287.39 299.438 285.778 L 301.375 283.215 Q 302.598 281.834 303.188 281.028 C 303.777 280.222 304.025 279.722 304.5 279.028 C 304.975 278.334 305.65 277.337 306.267 276.353 C 306.885 275.369 307.502 274.277 308.125 273.178 Q 308.748 272.079 309.813 270.365 L 311.5 267.24 L 312.688 264.553 L 313.875 261.928 L 315.125 258.99 L 316.375 255.415 L 317.338 252.553 Q 318.008 250.383 318.25 249.178 C 318.492 247.973 318.775 247.143 318.93 246.04 C 319.086 244.938 319.272 243.783 319.402 242.553 C 319.531 241.323 319.715 240.161 319.88 238.732 C 320.045 237.303 319.99 236.103 320.088 234.803 Q 320.185 233.503 320.088 226.553 L 319.688 222.078 L 319.188 218.74 Q 318.878 216.142 318.495 214.692 C 318.111 213.242 317.766 212.336 317.338 211.128 Q 316.909 209.92 316.038 206.815 L 314.463 203.378 C 313.613 202.254 313.298 201.034 312.688 199.69 C 312.077 198.346 311.101 197.155 310.288 195.878 C 309.474 194.601 308.068 193.007 306.788 191.515 C 305.507 190.024 305.013 189.268 304 188.06 Q 302.987 186.852 301.375 185.128 Q 299.68 183.32 298.596 182.264 C 297.512 181.208 296.457 180.465 295.397 179.698 C 294.337 178.931 293.137 177.877 291.85 177.061 Q 290.563 176.245 288.949 175.128 Q 287.144 173.824 286.225 173.253 C 285.306 172.682 283.384 171.944 281.788 171.378 Q 280.191 170.812 277.538 170.128 L 273.538 168.753 L 268.088 167.628 L 262.35 166.878 L 257.725 166.578 L 253.288 166.578 L 249.225 166.878 Q 244.859 167.164 242.538 167.628 C 240.216 168.092 238.974 168.479 237.1 169.128 Q 235.226 169.777 232.663 170.94 L 228.663 172.69 Q 226.107 174.223 225.091 174.803 C 224.075 175.383 222.835 176.37 221.2 177.44 C 219.565 178.511 218.938 178.88 217.738 179.698 C 216.537 180.515 215.748 181.379 214.65 182.264 C 213.552 183.15 213.046 183.78 212.189 184.613 Q 211.332 185.445 209.588 187.19 L 206.9 190.315 L 204.775 192.94 Q 202.944 195.112 202.175 196.44 C 201.406 197.769 201.144 198.387 200.686 199.329 C 200.228 200.271 199.652 201.547 199.025 202.878 C 198.398 204.209 197.809 205.398 197.275 206.815 C 196.741 208.233 196.67 208.482 196.397 209.44 C 196.124 210.399 195.96 210.969 195.764 211.815 C 195.568 212.662 195.256 213.852 195.025 214.94 Q 194.794 216.029 193.963 218.74 Q 193.302 221.075 193.15 222.378 C 192.998 223.681 192.744 224.291 192.588 225.752 C 192.431 227.214 192.455 228.191 192.403 229.253 C 192.351 230.315 192.5 230.571 192.403 232.053 C 192.306 233.535 192.477 234.561 192.588 235.54 C 192.698 236.52 192.995 237.586 193.15 238.49 Q 193.305 239.395 193.662 240.736 Q 193.96 241.92 194.154 242.553 Q 194.347 243.186 195.025 245.003 Q 195.539 246.895 195.938 247.878 Q 196.336 248.861 197.275 250.565 L 198.625 253.378 Q 199.55 254.99 200.125 255.815 C 200.7 256.641 201.85 258.144 202.75 259.277 C 203.65 260.411 203.994 260.758 204.775 261.628 C 205.556 262.498 206.129 263.354 206.9 264.053 C 207.671 264.752 208.491 265.256 209.391 266.098 C 210.29 266.94 210.748 267.273 211.488 267.878 C 212.227 268.483 212.805 268.814 213.563 269.253 C 214.32 269.691 215.606 270.476 216.688 271.028 C 217.769 271.58 218.977 272.2 220.163 272.805 C 221.348 273.411 222.03 273.625 223.188 274.065 Q 224.345 274.506 226.875 275.128 L 230.438 275.878 L 234.313 276.353 L 239.375 276.353 L 244.688 276.353 Q 247.649 276.182 249.225 275.878 C 250.801 275.574 251.164 275.455 252.188 275.128 C 253.211 274.801 254.615 274.201 255.727 273.691 C 256.838 273.182 258.349 272.543 259.75 271.878 C 261.151 271.213 262.4 270.684 263.75 269.878 Q 265.1 269.072 266.688 267.878 L 269.438 265.565 Q 271.459 263.878 272.482 262.877 Q 273.505 261.877 275.5 259.478 L 278.063 255.815 L 280 252.553 Q 281.224 250.396 281.788 249.178 C 282.351 247.96 282.607 247.14 283.063 246.04 C 283.518 244.941 284.07 243.971 284.438 242.782 C 284.805 241.593 285.021 240.926 285.272 239.829 C 285.523 238.732 285.758 237.531 285.875 236.503 C 285.992 235.475 286.132 234.009 286.225 232.565 C 286.318 231.122 286.307 230.415 286.225 229.253 C 286.143 228.091 286.072 226.973 285.875 225.752 C 285.678 224.531 285.61 223.793 285.125 222.378 Q 284.64 220.963 284.125 220.128 L 282.5 217.128 L 280.75 214.515 L 278.938 212.315 Q 277.364 210.341 276.338 209.44 Q 275.311 208.54 274.25 207.878 Q 272.246 206.54 271.088 205.94 C 269.929 205.341 269.4 205.096 268.438 204.753 C 267.475 204.41 266.217 204.156 265 203.89 Q 263.783 203.625 262.35 203.378 L 259.75 203.378 L 256.063 203.89 Q 253.855 204.382 252.688 204.753 C 251.52 205.124 250.646 205.486 249.563 205.94 C 248.479 206.395 247.82 206.615 246.95 207.128 C 246.08 207.641 245.47 208.198 244.688 208.803 Q 243.905 209.408 242.188 210.828 Q 240.609 211.946 239.875 212.69 Q 239.141 213.435 238.375 214.515 Q 237.106 216.173 236.5 217.128 C 235.894 218.083 235.693 218.442 235.35 219.115 C 235.007 219.789 234.869 220.777 234.563 221.628 C 234.256 222.478 234.144 222.924 234 223.815 C 233.856 224.707 233.853 225.572 233.768 226.553 C 233.683 227.533 233.558 227.9 233.438 228.628 C 233.317 229.356 233.322 229.562 233.191 230.078 C 233.06 230.594 232.86 231.184 232.663 231.753 C 232.465 232.322 232.136 233 231.675 233.565 C 231.214 234.131 231.095 234.235 230.7 234.503 C 230.305 234.771 229.414 235.079 228.663 235.19 C 227.911 235.302 227.495 235.317 226.875 235.19 Q 226.255 235.064 225.25 234.503 Q 224.368 233.97 223.988 233.565 C 223.607 233.161 223.035 232.06 222.813 231.128 C 222.59 230.196 222.76 229.222 222.813 228.19 Q 222.865 227.159 223.188 224.815 L 223.988 221.628 L 225.25 217.503 L 226.438 214.94 L 227.675 212.315 L 228.938 210.003 L 230.438 207.878 Q 231.531 206.262 232.25 205.49 Q 232.969 204.719 234 203.89 L 236.5 201.878 Q 237.787 200.797 238.549 200.222 C 239.311 199.647 239.973 199.121 240.813 198.628 C 241.652 198.135 242.719 197.521 243.763 197.058 C 244.806 196.594 245.379 196.182 246.325 195.878 C 247.271 195.574 247.663 195.459 248.388 195.23 C 249.112 195.001 249.822 194.675 250.638 194.513 C 251.453 194.35 252.345 194.128 253.288 194.04 C 254.23 193.953 255.324 193.654 256.063 193.683 C 256.801 193.712 258.518 193.674 259.75 193.683 C 260.982 193.692 261.865 193.875 263 194.04 C 264.135 194.206 265.059 194.329 266.188 194.513 C 267.316 194.696 268.678 195.06 270.013 195.415 C 271.347 195.771 271.731 195.827 272.625 196.165 C 273.519 196.504 274.658 196.936 275.738 197.515 C 276.817 198.094 277.526 198.593 278.416 199.128 C 279.306 199.663 279.753 199.911 280.45 200.378 C 281.147 200.845 281.825 201.293 282.5 201.878 C 283.175 202.463 283.95 203.192 284.639 203.89 Q 285.328 204.589 286.513 205.94 L 288.075 207.878 Q 289.346 209.526 289.95 210.478 C 290.554 211.429 290.904 212.128 291.388 213.04 C 291.871 213.953 292.35 214.887 292.813 215.915 C 293.275 216.944 293.581 217.739 293.963 218.74 Q 294.344 219.742 295.138 222.078 Q 295.511 223.823 295.663 224.815 C 295.814 225.807 295.975 227.245 295.959 228.403 C 295.944 229.562 296.004 230.872 295.959 232.053 C 295.915 233.234 295.909 233.864 295.959 234.503 C 296.01 235.142 295.723 236.036 295.663 237.678 L 295.138 240.928 L 294.388 244.615 L 293.388 247.615 L 292.138 250.565 L 290.825 253.378 Q 289.891 255.275 289.388 256.303 C 288.884 257.331 288.573 258.065 288.075 258.99 C 287.577 259.916 287.054 260.697 286.513 261.628 C 285.971 262.559 285.695 263.252 285.125 264.053 C 284.555 264.854 283.929 265.522 283.24 266.365 C 282.551 267.209 282.016 267.93 281.325 268.678 Q 280.634 269.425 279.463 270.365 L 277.1 272.565 L 275.225 274.34 L 272.625 276.353 L 270.013 278.09 L 267.35 279.715 L 264.725 281.028 L 261.9 282.403 L 259.75 283.215 L 256.975 284.278 Q 255.187 284.875 254.225 285.096 Q 253.263 285.317 250.638 285.778 L 247.288 286.403 L 243.763 286.778 L 240.288 286.778 L 235.688 286.778 L 231.288 286.403 L 226.038 285.278 Q 223.377 284.722 221.975 284.278 C 220.573 283.834 218.842 283.055 217.35 282.403 C 215.858 281.75 213.553 280.932 211.488 279.715 C 209.422 278.499 208.724 278.086 207.575 277.305 C 206.426 276.525 205.363 275.98 204.1 275.128 C 202.837 274.276 202.473 273.787 201.663 273.178 Q 200.852 272.569 199.288 271.028 L 197.275 268.91 Q 195.508 266.973 194.638 265.94 Q 193.767 264.907 192.588 263.04 L 190.55 260.028 L 188.538 256.303 L 187.3 253.778 L 185.988 250.853 L 184.6 247.215 L 183.488 243.828 Q 182.925 241.965 182.738 240.928 Q 182.55 239.891 182.425 236.828 L 182.425 232.053 L 182.425 227.14 L 182.738 221.628 L 183.113 217.503 L 184.238 212.69 L 185.55 208.328 L 187.045 203.89 Q 187.987 201.601 188.538 200.378 Q 189.088 199.155 190.213 196.865 L 191.888 193.378 Q 193.137 190.968 193.963 189.753 C 194.788 188.538 195.096 187.798 195.764 186.878 C 196.432 185.958 197.154 185.3 197.888 184.328 Q 198.621 183.356 199.8 182.003 Q 200.941 180.329 201.663 179.503 C 202.384 178.677 203.092 177.761 204.1 176.865 C 205.108 175.97 205.761 175.393 206.588 174.628 C 207.414 173.863 208.512 172.855 209.588 172.015 C 210.663 171.176 211.527 170.595 212.639 169.882 C 213.751 169.169 214.267 168.636 215.205 168.019 C 216.144 167.401 217.462 166.642 218.713 165.945 C 219.963 165.247 220.274 165.127 221.2 164.615 C 222.126 164.104 223.209 163.797 224.275 163.303 C 225.341 162.809 226.45 162.122 227.675 161.578 Q 228.9 161.034 230.963 160.303 L 234.313 159.315 L 237.1 158.428 L 239.875 157.74 L 242.538 157.128 L 245.463 156.615 Q 247.52 156.244 248.65 156.178 C 249.78 156.111 250.341 155.976 251.262 155.932 C 252.183 155.888 253.014 155.901 253.963 155.932 Q 254.911 155.963 257.337 156.178 Q 259.396 156.324 260.613 156.389 Q 261.83 156.455 263.338 156.615 L 266.688 157.128 L 269.438 157.74 L 273.538 158.428 L 277.538 159.678 L 281.325 160.928 L 284.438 162.053 L 287.688 163.303 Q 289.735 164.383 290.825 165.003 C 291.915 165.623 292.919 166.252 293.963 166.878 C 295.006 167.504 295.547 167.971 296.488 168.553 C 297.428 169.135 298.294 169.533 299.175 170.128 C 300.056 170.723 300.592 171.364 301.375 172.015 C 302.158 172.667 303.11 173.346 304 174.128 C 304.89 174.91 305.303 175.411 306.113 176.128 C 306.922 176.845 308.147 177.566 308.938 178.397 C 309.728 179.228 310.231 179.818 311.316 180.828 C 312.401 181.838 313.341 182.918 313.875 183.769 C 314.409 184.62 314.979 185.134 315.64 185.85 C 316.301 186.566 316.667 187.381 317.338 188.19 Q 318.008 189 319.188 191.515 Q 320.142 193.462 320.667 194.513 C 321.192 195.563 321.758 196.711 322.425 197.978 Q 323.092 199.245 323.738 200.703 L 325.088 204.378 L 326.05 207.453 L 327.213 211.128 L 328.15 214.078 L 328.838 217.765 L 329.463 221.265 L 329.963 224.815 L 329.963 228.628 L 329.963 232.053 Q 330.052 234.565 329.963 235.94 C 329.873 237.316 329.856 239.139 329.794 240.565 Q 329.732 241.992 329.463 244.615 Q 329.154 247.59 328.838 249.178 C 328.521 250.766 328.412 251.601 328.15 252.795 C 327.888 253.988 327.734 254.765 327.438 255.815 C 327.143 256.866 326.827 257.318 326.559 258.525 C 326.292 259.732 325.923 260.089 325.709 261.028 C 325.494 261.967 325.099 262.955 324.724 264.053 C 324.349 265.15 323.796 266.157 323.388 267.24 C 322.979 268.324 322.462 269.257 321.912 270.365 C 321.362 271.474 320.86 272.385 320.425 273.178 Q 319.99 273.971 318.688 276.353 L 316.938 279.028 L 315.438 281.503 L 313.875 284.278 L 311.5 287.503 L 309.813 289.978 L 307.813 292.44 L 305.563 294.978 L 303.188 297.29 L 300.875 299.69 L 298.413 302.315 L 295.663 304.915 L 293.388 306.94 L 290.825 308.84 Q 288.836 310.39 287.688 311.128 Q 286.539 311.866 284.125 313.115 Q 282.341 314.304 281.325 314.865 C 280.309 315.427 279.345 316.074 278.213 316.652 C 277.08 317.23 275.783 317.92 274.662 318.516 Q 273.541 319.111 271.913 319.778 Q 269.602 320.62 268.438 321.09 C 267.273 321.561 266.465 321.989 265.275 322.397 Q 264.085 322.805 261.138 323.653 Q 258.136 324.584 256.513 324.984 C 254.889 325.385 254.538 325.59 253.288 325.828 Q 252.037 326.066 249.888 326.34 L 246.325 326.715 L 242.538 327.028 Q 239.601 327.142 238.013 327.22 Q 236.424 327.299 234 327.403 L 230.438 327.403 L 225.25 327.403 Q 222.233 327.253 220.613 327.028 C 218.992 326.803 216.983 326.462 215.013 326.06 C 213.042 325.658 211.482 325.206 209.588 324.778 Q 207.693 324.35 205.113 323.653 Q 202.548 322.911 201.138 322.397 C 199.727 321.883 197.903 321.15 196.213 320.465 Q 194.522 319.781 192.588 318.778 L 188.538 316.803 Q 186.424 315.874 185.238 315.24 Q 184.051 314.607 181.588 313.115 L 178.15 310.74 Q 175.742 309.169 174.516 308.292 C 173.29 307.415 171.997 306.568 170.713 305.528 Q 169.428 304.488 167.8 303.228 Q 166.32 301.848 165.425 301.028 Q 164.53 300.208 162.4 298.062 L 159.713 295.315 L 157.088 292.44 Q 155.45 290.705 154.65 289.69 C 153.85 288.676 152.918 287.167 152.013 285.778 Q 151.107 284.389 149.65 282.04 L 147.813 278.428 L 145.95 274.715 L 144.388 271.028 L 142.888 267.878 Q 141.857 265.746 141.388 264.553 C 140.918 263.36 140.376 262.434 139.936 261.204 C 139.496 259.973 138.961 258.52 138.424 257.02 C 137.888 255.52 137.359 254.119 136.905 252.553 C 136.452 250.987 136.259 249.932 135.95 248.463 C 135.641 246.995 135.244 245.104 135.021 243.338 C 134.798 241.571 134.681 239.453 134.459 237.326 C 134.236 235.199 134.13 233.31 134.128 231.128 Q 134.126 228.946 134.459 224.815 Q 134.68 221.442 134.845 219.615 Q 135.011 217.789 135.95 211.553 Q 136.453 207.406 136.905 205.19 C 137.358 202.975 137.987 200.998 138.575 198.802 C 139.163 196.605 139.77 194.676 140.597 192.503 C 141.424 190.33 141.533 189.574 142.179 188.06 C 142.825 186.547 143.424 185.077 144.113 183.473 C 144.801 181.87 145.781 180.097 146.688 178.253 C 147.594 176.409 148.152 175.316 149.125 173.82 C 150.098 172.323 150.705 171.221 151.664 169.882 C 152.623 168.543 153.907 166.767 155.109 165.003 C 156.312 163.239 156.935 162.207 158.027 160.777 C 159.119 159.346 159.503 158.842 160.383 157.74 C 161.263 156.639 162.26 155.305 163.3 154.115 C 164.34 152.926 165.12 151.86 166.247 150.764 Q 167.374 149.668 169.024 148.057 Q 171.2 146.183 172.399 145.174 C 173.598 144.165 174.339 143.688 175.388 142.765 C 176.436 141.843 177.637 140.841 178.775 139.828 C 179.913 138.815 181.094 137.742 182.425 136.703 C 183.756 135.664 185.09 134.747 186.588 133.765 C 188.085 132.784 189.702 131.779 191.463 130.828 C 193.223 129.877 193.781 129.692 195.025 129.053 C 196.269 128.414 197.619 127.673 199.025 126.928 C 200.431 126.183 201.03 125.843 202.175 125.262 C 203.32 124.68 205.043 123.916 206.588 123.265 C 208.132 122.615 208.743 122.314 209.963 121.816 C 211.182 121.319 213.232 120.608 215.013 120.078 C 216.793 119.548 218.56 119.033 220.613 118.484 C 222.665 117.934 223.969 117.715 225.663 117.29 C 227.356 116.866 228.561 116.663 230.138 116.353 C 231.714 116.043 233.24 115.767 234.925 115.478 C 236.61 115.189 238.121 114.862 239.875 114.687 C 241.629 114.511 243.134 114.573 244.688 114.478 C 246.241 114.383 247.549 114.476 249.888 114.478 C 252.226 114.48 254.179 114.396 256.513 114.478 C 258.846 114.56 260.307 114.762 262.35 114.978 C 264.393 115.194 265.598 115.245 267.131 115.478 C 268.665 115.71 270.143 115.862 271.913 116.163 C 273.682 116.464 274.501 116.725 276 117.007 C 277.499 117.289 278.902 117.649 280.45 117.978 C 281.998 118.307 284.222 118.987 286.225 119.665 Q 288.228 120.344 291.388 121.64 Q 295.308 123.3 297.375 124.165 C 299.442 125.031 301.148 125.951 303.188 126.928 C 305.227 127.905 305.67 128.033 306.956 128.742 C 308.243 129.452 309.742 130.492 311.316 131.344 C 312.89 132.195 314.014 132.875 315.438 133.765 C 316.861 134.656 318.072 135.411 319.402 136.428 C 320.731 137.444 321.953 138.676 323.388 139.828 C 324.822 140.98 325.884 141.951 327.213 143.128 C 328.541 144.305 329.453 145.122 330.616 146.215 C 331.78 147.308 332.327 148.002 333.325 148.94 C 334.323 149.879 335.622 151.266 336.825 152.565 C 338.028 153.865 338.96 154.864 340.038 156.178 C 341.115 157.492 342.053 158.85 343.138 160.303 C 344.222 161.756 344.809 162.534 345.7 163.753 C 346.591 164.972 347.21 165.745 347.95 166.878 C 348.69 168.011 349.297 169.193 350.038 170.44 Q 350.778 171.688 353.1 175.515 L 355.038 179.228 Q 356.536 182.137 357.225 183.628 C 357.914 185.119 358.145 186.119 358.85 187.54 Q 359.555 188.962 360.538 191.515 Q 361.383 194.053 361.765 195.415 C 362.147 196.778 362.675 198.188 363.136 199.69 C 363.597 201.193 363.916 202.694 364.288 204.378 C 364.659 206.062 364.666 206.646 364.85 207.878 Q 365.034 209.11 365.538 213.04 L 366.1 217.765 Q 366.621 221.511 366.725 223.54 C 366.829 225.57 366.903 227.779 366.725 230.078 C 366.547 232.377 366.663 231.717 366.413 232.565 C 366.162 233.414 366.014 233.917 365.538 234.503 C 365.061 235.089 364.797 235.274 364.288 235.54 C 363.778 235.807 362.765 236.029 361.913 235.94 C 361.06 235.852 360.547 235.718 359.85 235.385 C 359.153 235.052 358.654 234.762 358.225 234.24 C 357.796 233.718 357.815 233.226 357.609 232.565 Z " fill="rgb(233,181,50)" vector-effect="non-scaling-stroke" stroke-width="5" stroke="rgb(0,0,0)" stroke-linejoin="miter" stroke-linecap="square" stroke-miterlimit="3"/></g></svg>